G04 #@! TF.GenerationSoftware,KiCad,Pcbnew,(6.0.5)*
G04 #@! TF.CreationDate,2022-07-17T17:02:57+02:00*
G04 #@! TF.ProjectId,STS1_COBC_V2,53545331-5f43-44f4-9243-5f56322e6b69,rev?*
G04 #@! TF.SameCoordinates,Original*
G04 #@! TF.FileFunction,Copper,L3,Inr*
G04 #@! TF.FilePolarity,Positive*
%FSLAX46Y46*%
G04 Gerber Fmt 4.6, Leading zero omitted, Abs format (unit mm)*
G04 Created by KiCad (PCBNEW (6.0.5)) date 2022-07-17 17:02:57*
%MOMM*%
%LPD*%
G01*
G04 APERTURE LIST*
G04 #@! TA.AperFunction,ComponentPad*
%ADD10C,0.900000*%
G04 #@! TD*
G04 #@! TA.AperFunction,ComponentPad*
%ADD11C,8.600000*%
G04 #@! TD*
G04 #@! TA.AperFunction,ComponentPad*
%ADD12R,1.350000X1.350000*%
G04 #@! TD*
G04 #@! TA.AperFunction,ComponentPad*
%ADD13O,1.350000X1.350000*%
G04 #@! TD*
G04 #@! TA.AperFunction,ComponentPad*
%ADD14R,1.700000X1.700000*%
G04 #@! TD*
G04 #@! TA.AperFunction,ComponentPad*
%ADD15C,0.500000*%
G04 #@! TD*
G04 #@! TA.AperFunction,ComponentPad*
%ADD16O,1.700000X1.700000*%
G04 #@! TD*
G04 #@! TA.AperFunction,ComponentPad*
%ADD17C,2.240000*%
G04 #@! TD*
G04 #@! TA.AperFunction,ComponentPad*
%ADD18C,2.740000*%
G04 #@! TD*
G04 #@! TA.AperFunction,ComponentPad*
%ADD19C,1.000000*%
G04 #@! TD*
G04 #@! TA.AperFunction,HeatsinkPad*
%ADD20C,0.554000*%
G04 #@! TD*
G04 #@! TA.AperFunction,ViaPad*
%ADD21C,0.600000*%
G04 #@! TD*
G04 APERTURE END LIST*
D10*
X194912959Y-44019581D03*
X190352121Y-44019581D03*
X192632540Y-49525000D03*
X189407540Y-46300000D03*
D11*
X192632540Y-46300000D03*
D10*
X195857540Y-46300000D03*
X190352121Y-48580419D03*
X194912959Y-48580419D03*
X192632540Y-43075000D03*
X118352121Y-124580419D03*
X122912959Y-120019581D03*
X122912959Y-124580419D03*
X118352121Y-120019581D03*
X120632540Y-119075000D03*
D11*
X120632540Y-122300000D03*
D10*
X117407540Y-122300000D03*
X123857540Y-122300000D03*
X120632540Y-125525000D03*
X190352121Y-124580419D03*
X192632540Y-119075000D03*
D11*
X192632540Y-122300000D03*
D10*
X190352121Y-120019581D03*
X192632540Y-125525000D03*
X189407540Y-122300000D03*
X195857540Y-122300000D03*
X194912959Y-124580419D03*
X194912959Y-120019581D03*
D12*
X194632540Y-64300000D03*
D13*
X192632540Y-64300000D03*
X194632540Y-66300000D03*
X192632540Y-66300000D03*
X194632540Y-68300000D03*
X192632540Y-68300000D03*
X194632540Y-70300000D03*
X192632540Y-70300000D03*
X194632540Y-72300000D03*
X192632540Y-72300000D03*
X194632540Y-74300000D03*
X192632540Y-74300000D03*
X194632540Y-76300000D03*
X192632540Y-76300000D03*
X194632540Y-78300000D03*
X192632540Y-78300000D03*
X194632540Y-80300000D03*
X192632540Y-80300000D03*
X194632540Y-82300000D03*
X192632540Y-82300000D03*
X194632540Y-84300000D03*
X192632540Y-84300000D03*
X194632540Y-86300000D03*
X192632540Y-86300000D03*
X194632540Y-88300000D03*
X192632540Y-88300000D03*
X194632540Y-90300000D03*
X192632540Y-90300000D03*
X194632540Y-92300000D03*
X192632540Y-92300000D03*
X194632540Y-94300000D03*
X192632540Y-94300000D03*
X194632540Y-96300000D03*
X192632540Y-96300000D03*
X194632540Y-98300000D03*
X192632540Y-98300000D03*
X194632540Y-100300000D03*
X192632540Y-100300000D03*
X194632540Y-102300000D03*
X192632540Y-102300000D03*
X194632540Y-104300000D03*
X192632540Y-104300000D03*
X194632540Y-106300000D03*
X192632540Y-106300000D03*
X194632540Y-108300000D03*
X192632540Y-108300000D03*
X194632540Y-110300000D03*
X192632540Y-110300000D03*
X194632540Y-112300000D03*
X192632540Y-112300000D03*
D10*
X120632540Y-43075000D03*
X122912959Y-44019581D03*
X120632540Y-49525000D03*
X117407540Y-46300000D03*
X122912959Y-48580419D03*
X123857540Y-46300000D03*
X118352121Y-44019581D03*
X118352121Y-48580419D03*
D11*
X120632540Y-46300000D03*
D12*
X120500000Y-64300000D03*
D13*
X118500000Y-64300000D03*
X120500000Y-66300000D03*
X118500000Y-66300000D03*
X120500000Y-68300000D03*
X118500000Y-68300000D03*
X120500000Y-70300000D03*
X118500000Y-70300000D03*
X120500000Y-72300000D03*
X118500000Y-72300000D03*
X120500000Y-74300000D03*
X118500000Y-74300000D03*
X120500000Y-76300000D03*
X118500000Y-76300000D03*
X120500000Y-78300000D03*
X118500000Y-78300000D03*
X120500000Y-80300000D03*
X118500000Y-80300000D03*
X120500000Y-82300000D03*
X118500000Y-82300000D03*
X120500000Y-84300000D03*
X118500000Y-84300000D03*
X120500000Y-86300000D03*
X118500000Y-86300000D03*
X120500000Y-88300000D03*
X118500000Y-88300000D03*
X120500000Y-90300000D03*
X118500000Y-90300000D03*
X120500000Y-92300000D03*
X118500000Y-92300000D03*
X120500000Y-94300000D03*
X118500000Y-94300000D03*
X120500000Y-96300000D03*
X118500000Y-96300000D03*
X120500000Y-98300000D03*
X118500000Y-98300000D03*
X120500000Y-100300000D03*
X118500000Y-100300000D03*
X120500000Y-102300000D03*
X118500000Y-102300000D03*
X120500000Y-104300000D03*
X118500000Y-104300000D03*
X120500000Y-106300000D03*
X118500000Y-106300000D03*
X120500000Y-108300000D03*
X118500000Y-108300000D03*
X120500000Y-110300000D03*
X118500000Y-110300000D03*
X120500000Y-112300000D03*
X118500000Y-112300000D03*
D14*
X160532540Y-119600000D03*
X155132540Y-119600000D03*
D15*
X152207540Y-53525000D03*
X153307540Y-54625000D03*
X153307540Y-52425000D03*
X152207540Y-52425000D03*
X154407540Y-52425000D03*
X152207540Y-54625000D03*
X153307540Y-53525000D03*
X154407540Y-54625000D03*
X154407540Y-53525000D03*
D14*
X155592540Y-87460000D03*
D16*
X155632540Y-90000000D03*
X158172540Y-90000000D03*
D14*
X149562540Y-113465000D03*
D16*
X147022540Y-113505000D03*
X147022540Y-116045000D03*
D17*
X131132540Y-51300000D03*
D18*
X128592540Y-48760000D03*
X133672540Y-53840000D03*
X133672540Y-48760000D03*
X128592540Y-53840000D03*
D15*
X177982540Y-46950000D03*
X180082540Y-46950000D03*
X177982540Y-49050000D03*
X180082540Y-49050000D03*
D14*
X130232540Y-103600000D03*
X130232540Y-112200000D03*
D19*
X155465940Y-64100000D03*
X154399140Y-64100000D03*
D14*
X130232540Y-99300000D03*
X126232540Y-108000000D03*
X126232540Y-112200000D03*
D20*
X145632540Y-45167000D03*
X145632540Y-46433000D03*
X145632540Y-45800000D03*
D14*
X130232540Y-108000000D03*
D21*
X161282540Y-111600000D03*
X159532540Y-113800000D03*
X160132540Y-114050000D03*
X159632540Y-114650000D03*
X169932540Y-121650000D03*
X160632540Y-122000000D03*
X131532540Y-76550000D03*
X164662540Y-91160000D03*
X172742540Y-106300000D03*
X172107540Y-108475000D03*
X165132540Y-96950000D03*
X145882540Y-100550000D03*
X134182540Y-106400000D03*
X134182540Y-105850000D03*
X134182540Y-105300000D03*
X148882540Y-111700000D03*
X148032540Y-111700000D03*
X145482540Y-110650000D03*
X164282540Y-102300000D03*
X163626540Y-101706000D03*
X163632540Y-102350000D03*
X162882540Y-102200000D03*
X125982540Y-84900000D03*
X125982540Y-84250000D03*
X125982540Y-83700000D03*
X124682540Y-76850000D03*
X124132540Y-76850000D03*
X123582540Y-76850000D03*
X126982540Y-71750000D03*
X126382540Y-71750000D03*
X126832540Y-69100000D03*
X126282540Y-69100000D03*
X125732540Y-69100000D03*
X141032540Y-70850000D03*
X141032540Y-71400000D03*
X141032540Y-71950000D03*
X139532540Y-72400000D03*
X138982540Y-72400000D03*
X136582540Y-78000000D03*
X137132540Y-78050000D03*
X137832540Y-78450000D03*
X138432540Y-78450000D03*
X139032540Y-78450000D03*
X136682540Y-80700000D03*
X136682540Y-80100000D03*
X137532540Y-89000000D03*
X138882540Y-88300000D03*
X136882540Y-87100000D03*
X136282540Y-87100000D03*
X135682540Y-87100000D03*
X137182540Y-94900000D03*
X137182540Y-94300000D03*
X137182540Y-93700000D03*
X143382540Y-84050000D03*
X142782540Y-84050000D03*
X142182540Y-84050000D03*
X141582540Y-84050000D03*
X140982540Y-84050000D03*
X135982540Y-84750000D03*
X136782540Y-82200000D03*
X136782540Y-82950000D03*
X136032540Y-83750000D03*
X134982540Y-82950000D03*
X134382540Y-82950000D03*
X132532540Y-83000000D03*
X132257540Y-82425000D03*
X131332540Y-79250000D03*
X131682540Y-124450000D03*
X123682540Y-108800000D03*
X127882540Y-79450000D03*
X141682540Y-89400000D03*
X142132540Y-90600000D03*
X177032540Y-101250000D03*
X175732540Y-103450000D03*
X165932540Y-113000000D03*
X162782540Y-118350000D03*
X163932540Y-117900000D03*
X165332540Y-109000000D03*
X161032540Y-95000000D03*
X187332540Y-95500000D03*
X182032540Y-73800000D03*
X181132540Y-77900000D03*
X166132540Y-90200000D03*
X180032540Y-79800000D03*
X178432540Y-79800000D03*
X177832540Y-82100000D03*
X176032540Y-84100000D03*
X185332540Y-109000000D03*
X176132540Y-110600000D03*
X184732540Y-110400000D03*
X181232540Y-102300000D03*
X176632540Y-111500000D03*
X181632540Y-45500000D03*
X182832540Y-45500000D03*
X168482540Y-105780000D03*
X181812540Y-97810000D03*
X168962540Y-100490000D03*
X181702540Y-96970000D03*
X169552540Y-98680000D03*
X179828195Y-95295655D03*
X169622540Y-96480000D03*
X181632540Y-94310000D03*
X169592540Y-97380000D03*
X182702540Y-93120000D03*
X169622540Y-95570000D03*
X175666404Y-102209826D03*
X174432540Y-101400000D03*
X155832540Y-43700000D03*
X145832540Y-54500000D03*
X187432540Y-53900000D03*
X161432540Y-47100000D03*
X170232540Y-51900000D03*
X161032540Y-115600000D03*
X145832540Y-55100000D03*
X186132540Y-109400000D03*
X158032540Y-119500000D03*
X139632540Y-48300000D03*
X154232540Y-47100000D03*
X140232540Y-43700000D03*
X143232540Y-52300000D03*
X140832540Y-46500000D03*
X135612540Y-115020000D03*
X174792540Y-121630000D03*
X167632540Y-49100000D03*
X158832540Y-51900000D03*
X173032540Y-50100000D03*
X149232540Y-44300000D03*
X135432540Y-52300000D03*
X154632540Y-44300000D03*
X158232540Y-51900000D03*
X138432540Y-44300000D03*
X142032540Y-46500000D03*
X154032540Y-44300000D03*
X158432540Y-47100000D03*
X175732540Y-118300000D03*
X189882540Y-108480000D03*
X139152540Y-115140000D03*
X136282540Y-115020000D03*
X148032540Y-44300000D03*
X164632540Y-44100000D03*
X151832540Y-47100000D03*
X187962540Y-108440000D03*
X182832540Y-43100000D03*
X170032540Y-46500000D03*
X158632540Y-54700000D03*
X185832540Y-42900000D03*
X155832540Y-44300000D03*
X155232540Y-110800000D03*
X158032540Y-120500000D03*
X137232540Y-53100000D03*
X170632540Y-49100000D03*
X163632540Y-51900000D03*
X163232540Y-47100000D03*
X166232540Y-54700000D03*
X143232540Y-46500000D03*
X160032540Y-43700000D03*
X172232540Y-50900000D03*
X166632540Y-51900000D03*
X140232540Y-46500000D03*
X165432540Y-44900000D03*
X173232540Y-52900000D03*
X162832540Y-54700000D03*
X152232540Y-43700000D03*
X148632540Y-44300000D03*
X160632540Y-43100000D03*
X181632540Y-43100000D03*
X187232540Y-44100000D03*
X172632540Y-50500000D03*
X142232540Y-54500000D03*
X174692540Y-123670000D03*
X145632540Y-52300000D03*
X132632540Y-50300000D03*
X136632540Y-52300000D03*
X165432540Y-54100000D03*
X175232540Y-50300000D03*
X164482540Y-97600000D03*
X158832540Y-43700000D03*
X176832540Y-42700000D03*
X169032540Y-51900000D03*
X165432540Y-51900000D03*
X162432540Y-58300000D03*
X137232540Y-50300000D03*
X176832540Y-44700000D03*
X165832540Y-49100000D03*
X156432540Y-109800000D03*
X131782540Y-119280000D03*
X146232540Y-52300000D03*
X161832540Y-43700000D03*
X157632540Y-51900000D03*
X145032540Y-44300000D03*
X166832540Y-54700000D03*
X185402540Y-113370000D03*
X174832540Y-50700000D03*
X150602540Y-99850000D03*
X137832540Y-44300000D03*
X137532540Y-117380000D03*
X166632540Y-46100000D03*
X162432540Y-60500000D03*
X153232540Y-56700000D03*
X150432540Y-51700000D03*
X187872540Y-119330000D03*
X168232540Y-46500000D03*
X159432540Y-43700000D03*
X131782540Y-120790000D03*
X172832540Y-49100000D03*
X162432540Y-43700000D03*
X162032540Y-47100000D03*
X191992540Y-115410000D03*
X142832540Y-54500000D03*
X176032540Y-49500000D03*
X139312540Y-119370000D03*
X136032540Y-52300000D03*
X158032540Y-54700000D03*
X141102540Y-121100000D03*
X174032540Y-49100000D03*
X156432540Y-55900000D03*
X154332540Y-104100000D03*
X170032540Y-54700000D03*
X170452540Y-123560000D03*
X175232540Y-46500000D03*
X137232540Y-44300000D03*
X141632540Y-52500000D03*
X155232540Y-44300000D03*
X175732540Y-117100000D03*
X138632540Y-54100000D03*
X175732540Y-117700000D03*
X150432540Y-43700000D03*
X140132540Y-116150000D03*
X145232540Y-54500000D03*
X190052540Y-117300000D03*
X135432540Y-50300000D03*
X141432540Y-46500000D03*
X187432540Y-49300000D03*
X174032540Y-51500000D03*
X168432540Y-54100000D03*
X158682540Y-107100000D03*
X142632540Y-44300000D03*
X160032540Y-54100000D03*
X155432540Y-47100000D03*
X142632540Y-46500000D03*
X130122540Y-119310000D03*
X159232540Y-54700000D03*
X161832540Y-54100000D03*
X163032540Y-43700000D03*
X167032540Y-46500000D03*
X172362540Y-123630000D03*
X162432540Y-54100000D03*
X169432540Y-49100000D03*
X190092540Y-115510000D03*
X158432540Y-106450000D03*
X167232540Y-54100000D03*
X143832540Y-44300000D03*
X159032540Y-47100000D03*
X163632540Y-43700000D03*
X188082540Y-100510000D03*
X151232540Y-47100000D03*
X146902540Y-104490000D03*
X150632540Y-55700000D03*
X175632540Y-49900000D03*
X143432540Y-54500000D03*
X165132540Y-97600000D03*
X173232540Y-55300000D03*
X157432540Y-61500000D03*
X177882540Y-104050000D03*
X173232540Y-54100000D03*
X154832540Y-47100000D03*
X136032540Y-50300000D03*
X161632540Y-115600000D03*
X139632540Y-44300000D03*
X139312540Y-121070000D03*
X140832540Y-43700000D03*
X169432540Y-46500000D03*
X180432540Y-43100000D03*
X142632540Y-52300000D03*
X166232540Y-45700000D03*
X149112540Y-103550000D03*
X168832540Y-54700000D03*
X145032540Y-52300000D03*
X172632540Y-44700000D03*
X164232540Y-47500000D03*
X136632540Y-48500000D03*
X140162540Y-115120000D03*
X149112540Y-102110000D03*
X167232540Y-51900000D03*
X161832540Y-43100000D03*
X175732540Y-116500000D03*
X172232540Y-49100000D03*
X145632540Y-44300000D03*
X156632540Y-47100000D03*
X159432540Y-54100000D03*
X163832540Y-96950000D03*
X165632540Y-54700000D03*
X149832074Y-44307273D03*
X167832540Y-54100000D03*
X155862540Y-103050000D03*
X146832540Y-44300000D03*
X160632540Y-51900000D03*
X137232540Y-52300000D03*
X136632540Y-49700000D03*
X148832540Y-56100000D03*
X151632540Y-50900000D03*
X139032540Y-44300000D03*
X167632540Y-46500000D03*
X169432540Y-54700000D03*
X172362540Y-121550000D03*
X136632540Y-47900000D03*
X137232540Y-46100000D03*
X139632540Y-47700000D03*
X142632540Y-43700000D03*
X137502540Y-119310000D03*
X168832540Y-49100000D03*
X166032540Y-51900000D03*
X144432540Y-44300000D03*
X187922540Y-117300000D03*
X178232540Y-104560000D03*
X151032540Y-51300000D03*
X141162540Y-115110000D03*
X133212540Y-120730000D03*
X136632540Y-50300000D03*
X159632540Y-47100000D03*
X172632540Y-42700000D03*
X164232540Y-51900000D03*
X157632540Y-43700000D03*
X165832540Y-45300000D03*
X145912540Y-104470000D03*
X160632540Y-54100000D03*
X170232540Y-54100000D03*
X173432540Y-49100000D03*
X149982540Y-99850000D03*
X153832540Y-56700000D03*
X157532540Y-104400000D03*
X165032540Y-48300000D03*
X168832540Y-46500000D03*
X160832540Y-47100000D03*
X155232540Y-59500000D03*
X158192540Y-99890000D03*
X156432540Y-55300000D03*
X133212540Y-122200000D03*
X155232540Y-51500000D03*
X169632540Y-51900000D03*
X178302540Y-103530000D03*
X164632540Y-47900000D03*
X146232540Y-44300000D03*
X139632540Y-43700000D03*
X142032540Y-43700000D03*
X149432540Y-47100000D03*
X157832540Y-47100000D03*
X152832540Y-44300000D03*
X134832540Y-52300000D03*
X189902540Y-106600000D03*
X151032540Y-43700000D03*
X168432540Y-51900000D03*
X173632540Y-51900000D03*
X174632540Y-46500000D03*
X163432540Y-54700000D03*
X151232540Y-99840000D03*
X149092540Y-100910000D03*
X139432540Y-49500000D03*
X166432540Y-49100000D03*
X153632540Y-47100000D03*
X155232540Y-109800000D03*
X173432540Y-46500000D03*
X149832540Y-43700000D03*
X147752540Y-104480000D03*
X161232540Y-43100000D03*
X147432540Y-44300000D03*
X156432540Y-54700000D03*
X173232540Y-54700000D03*
X136632540Y-47300000D03*
X163832540Y-97600000D03*
X164232540Y-43700000D03*
X157632540Y-99850000D03*
X165432540Y-48700000D03*
X141212540Y-117350000D03*
X174032540Y-46500000D03*
X138142540Y-115170000D03*
X150032540Y-47100000D03*
X177002540Y-121200000D03*
X141432540Y-43700000D03*
X156032540Y-47100000D03*
X177002540Y-123690000D03*
X164832540Y-54100000D03*
X157032540Y-54100000D03*
X160032540Y-43100000D03*
X161032540Y-115000000D03*
X170232540Y-58300000D03*
X162432540Y-51900000D03*
X161632540Y-115000000D03*
X136632540Y-49100000D03*
X156432540Y-110800000D03*
X152932540Y-103500000D03*
X164832540Y-51900000D03*
X157632540Y-54100000D03*
X167032540Y-49100000D03*
X132632540Y-52300000D03*
X176992540Y-120560000D03*
X142032540Y-51900000D03*
X146832540Y-52300000D03*
X170632540Y-46500000D03*
X164482540Y-97000000D03*
X137232540Y-45500000D03*
X170232540Y-60300000D03*
X152432540Y-47100000D03*
X151632540Y-43700000D03*
X151882540Y-99850000D03*
X154032540Y-59500000D03*
X150632540Y-47100000D03*
X139232540Y-54100000D03*
X188052540Y-103040000D03*
X146432540Y-55100000D03*
X157032540Y-43700000D03*
X163032540Y-51900000D03*
X170032540Y-49100000D03*
X163832540Y-47100000D03*
X145142540Y-104420000D03*
X187432540Y-56700000D03*
X173232540Y-53500000D03*
X152832540Y-43700000D03*
X153432540Y-44300000D03*
X160232540Y-47100000D03*
X155872540Y-102400000D03*
X161232540Y-54100000D03*
X148832540Y-52300000D03*
X139632540Y-47100000D03*
X174432540Y-51100000D03*
X137232540Y-47300000D03*
X183032540Y-51300000D03*
X156432540Y-43700000D03*
X146902540Y-100080000D03*
X161832540Y-51900000D03*
X162632540Y-47100000D03*
X164232540Y-54100000D03*
X158232540Y-43700000D03*
X173232540Y-52300000D03*
X134832540Y-50300000D03*
X152932540Y-101700000D03*
X139432540Y-48900000D03*
X172832540Y-46500000D03*
X187232540Y-46100000D03*
X159432540Y-51900000D03*
X164032540Y-54700000D03*
X167832540Y-51900000D03*
X148832540Y-54300000D03*
X176982540Y-119900000D03*
X193772540Y-115390000D03*
X137232540Y-46700000D03*
X160032540Y-51900000D03*
X168232540Y-49100000D03*
X141222540Y-116130000D03*
X160632540Y-61500000D03*
X159632540Y-122500000D03*
X161232540Y-51900000D03*
X165032540Y-44500000D03*
X155832540Y-51700000D03*
X156432540Y-51900000D03*
X172232540Y-46500000D03*
X156432540Y-54100000D03*
X143232540Y-44300000D03*
X173432540Y-49700000D03*
X153032540Y-47100000D03*
X155632540Y-106200000D03*
X185192540Y-100510000D03*
X158032540Y-122500000D03*
X137232540Y-44900000D03*
X157232540Y-47100000D03*
X157032540Y-51900000D03*
X139632540Y-46500000D03*
X179032540Y-43100000D03*
X185462540Y-111510000D03*
X139232540Y-52500000D03*
X141632540Y-54100000D03*
X159932540Y-67000000D03*
X177482540Y-118850000D03*
X180182540Y-117700000D03*
X179032540Y-117400000D03*
X145302540Y-107990000D03*
X172332540Y-54800000D03*
X183632540Y-55300000D03*
X175432540Y-115500000D03*
X178482540Y-117700000D03*
X176602540Y-116810000D03*
X152732540Y-73500000D03*
X140432540Y-88400000D03*
X173232540Y-115200000D03*
X177532540Y-61600000D03*
X173869540Y-114463000D03*
X153132540Y-117400000D03*
X174932540Y-115200000D03*
X144232540Y-100800000D03*
X177882540Y-117700000D03*
X179582540Y-117700000D03*
X144432540Y-48400000D03*
X173245540Y-114463000D03*
X174469540Y-114463000D03*
X156732540Y-111900000D03*
X173857540Y-115075000D03*
X147732540Y-68300000D03*
X147632540Y-49200000D03*
X154332540Y-95800000D03*
X160232540Y-95800000D03*
X166632540Y-108900000D03*
X157892540Y-108061100D03*
X185432540Y-123700000D03*
X155132540Y-112700000D03*
X155172540Y-117140000D03*
X166807540Y-112475000D03*
X164832540Y-111500000D03*
X161032540Y-116500000D03*
X134032540Y-103400000D03*
X142632540Y-107100000D03*
X131632540Y-116500000D03*
X147232540Y-122400000D03*
X167357540Y-117175000D03*
X166782540Y-119725000D03*
X145032540Y-123000000D03*
X137032540Y-107200000D03*
X165912540Y-120580000D03*
X169682540Y-119710000D03*
X176152540Y-106380000D03*
X181962540Y-106400000D03*
X179452540Y-116370000D03*
X168312540Y-107420000D03*
X169602540Y-104970000D03*
X183162540Y-107210000D03*
X148211440Y-58200000D03*
X156632540Y-58200000D03*
X140532540Y-58200000D03*
X140532540Y-51100000D03*
X161362540Y-99554820D03*
X182432540Y-90900000D03*
X160712540Y-100428900D03*
X180232540Y-91100000D03*
X159872540Y-100750000D03*
X188202540Y-86170000D03*
X170362540Y-118910000D03*
X170922540Y-118190000D03*
X167853640Y-97500000D03*
X189142540Y-79750000D03*
X182036360Y-57984970D03*
X182832540Y-47600000D03*
X148502540Y-107500000D03*
X169552540Y-110850000D03*
X181284440Y-59351990D03*
X182032540Y-48900000D03*
X179332540Y-58700000D03*
X177032540Y-46200000D03*
X182388280Y-57276494D03*
X183232540Y-46900000D03*
X182532540Y-48300000D03*
X181684440Y-58692857D03*
X157432540Y-73800000D03*
X155532540Y-61100000D03*
X167742540Y-93040000D03*
X167982540Y-94960000D03*
X180838280Y-60000000D03*
X180732540Y-49900000D03*
X152532540Y-92700000D03*
X151832540Y-108700000D03*
X160532540Y-56700000D03*
X147632540Y-48448097D03*
X171432540Y-59400000D03*
X171432540Y-43600000D03*
M02*
