G04 #@! TF.GenerationSoftware,KiCad,Pcbnew,(6.0.5)*
G04 #@! TF.CreationDate,2022-07-17T17:02:58+02:00*
G04 #@! TF.ProjectId,STS1_COBC_V2,53545331-5f43-44f4-9243-5f56322e6b69,rev?*
G04 #@! TF.SameCoordinates,Original*
G04 #@! TF.FileFunction,Legend,Top*
G04 #@! TF.FilePolarity,Positive*
%FSLAX46Y46*%
G04 Gerber Fmt 4.6, Leading zero omitted, Abs format (unit mm)*
G04 Created by KiCad (PCBNEW (6.0.5)) date 2022-07-17 17:02:58*
%MOMM*%
%LPD*%
G01*
G04 APERTURE LIST*
G04 Aperture macros list*
%AMRoundRect*
0 Rectangle with rounded corners*
0 $1 Rounding radius*
0 $2 $3 $4 $5 $6 $7 $8 $9 X,Y pos of 4 corners*
0 Add a 4 corners polygon primitive as box body*
4,1,4,$2,$3,$4,$5,$6,$7,$8,$9,$2,$3,0*
0 Add four circle primitives for the rounded corners*
1,1,$1+$1,$2,$3*
1,1,$1+$1,$4,$5*
1,1,$1+$1,$6,$7*
1,1,$1+$1,$8,$9*
0 Add four rect primitives between the rounded corners*
20,1,$1+$1,$2,$3,$4,$5,0*
20,1,$1+$1,$4,$5,$6,$7,0*
20,1,$1+$1,$6,$7,$8,$9,0*
20,1,$1+$1,$8,$9,$2,$3,0*%
G04 Aperture macros list end*
%ADD10C,0.100000*%
%ADD11C,0.150000*%
%ADD12C,0.200000*%
%ADD13C,0.010000*%
%ADD14C,0.120000*%
%ADD15C,0.250000*%
%ADD16C,0.600000*%
%ADD17C,1.500000*%
%ADD18C,1.280000*%
%ADD19C,8.980000*%
%ADD20RoundRect,0.190000X-0.675000X-0.675000X0.675000X-0.675000X0.675000X0.675000X-0.675000X0.675000X0*%
%ADD21O,1.730000X1.730000*%
%ADD22RoundRect,0.330000X0.140000X0.170000X-0.140000X0.170000X-0.140000X-0.170000X0.140000X-0.170000X0*%
%ADD23RoundRect,0.440000X0.325000X0.650000X-0.325000X0.650000X-0.325000X-0.650000X0.325000X-0.650000X0*%
%ADD24RoundRect,0.337500X0.147500X0.172500X-0.147500X0.172500X-0.147500X-0.172500X0.147500X-0.172500X0*%
%ADD25RoundRect,0.190000X0.800000X0.650000X-0.800000X0.650000X-0.800000X-0.650000X0.800000X-0.650000X0*%
%ADD26C,0.980000*%
%ADD27RoundRect,0.440000X0.250000X0.475000X-0.250000X0.475000X-0.250000X-0.475000X0.250000X-0.475000X0*%
%ADD28RoundRect,0.440000X0.450000X-0.262500X0.450000X0.262500X-0.450000X0.262500X-0.450000X-0.262500X0*%
%ADD29RoundRect,0.330000X-0.140000X-0.170000X0.140000X-0.170000X0.140000X0.170000X-0.140000X0.170000X0*%
%ADD30RoundRect,0.415000X-0.250000X0.225000X-0.250000X-0.225000X0.250000X-0.225000X0.250000X0.225000X0*%
%ADD31RoundRect,0.440000X-0.250000X-0.475000X0.250000X-0.475000X0.250000X0.475000X-0.250000X0.475000X0*%
%ADD32RoundRect,0.330000X0.170000X-0.140000X0.170000X0.140000X-0.170000X0.140000X-0.170000X-0.140000X0*%
%ADD33RoundRect,0.340000X0.150000X-0.587500X0.150000X0.587500X-0.150000X0.587500X-0.150000X-0.587500X0*%
%ADD34RoundRect,0.415000X-0.225000X-0.250000X0.225000X-0.250000X0.225000X0.250000X-0.225000X0.250000X0*%
%ADD35RoundRect,0.440000X-0.475000X0.250000X-0.475000X-0.250000X0.475000X-0.250000X0.475000X0.250000X0*%
%ADD36RoundRect,0.390000X0.275000X-0.200000X0.275000X0.200000X-0.275000X0.200000X-0.275000X-0.200000X0*%
%ADD37C,0.430000*%
%ADD38RoundRect,0.190000X0.825000X-0.325000X0.825000X0.325000X-0.825000X0.325000X-0.825000X-0.325000X0*%
%ADD39RoundRect,0.390000X-0.275000X0.200000X-0.275000X-0.200000X0.275000X-0.200000X0.275000X0.200000X0*%
%ADD40RoundRect,0.190000X-0.850000X-0.850000X0.850000X-0.850000X0.850000X0.850000X-0.850000X0.850000X0*%
%ADD41RoundRect,0.440000X-0.262500X-0.450000X0.262500X-0.450000X0.262500X0.450000X-0.262500X0.450000X0*%
%ADD42RoundRect,0.330000X-0.170000X0.140000X-0.170000X-0.140000X0.170000X-0.140000X0.170000X0.140000X0*%
%ADD43RoundRect,0.190000X0.475000X-0.225000X0.475000X0.225000X-0.475000X0.225000X-0.475000X-0.225000X0*%
%ADD44RoundRect,0.190000X-1.725000X-2.175000X1.725000X-2.175000X1.725000X2.175000X-1.725000X2.175000X0*%
%ADD45RoundRect,0.252500X0.350000X0.062500X-0.350000X0.062500X-0.350000X-0.062500X0.350000X-0.062500X0*%
%ADD46RoundRect,0.252500X0.062500X0.350000X-0.062500X0.350000X-0.062500X-0.350000X0.062500X-0.350000X0*%
%ADD47RoundRect,0.190000X1.350000X1.350000X-1.350000X1.350000X-1.350000X-1.350000X1.350000X-1.350000X0*%
%ADD48RoundRect,0.190000X0.850000X-0.850000X0.850000X0.850000X-0.850000X0.850000X-0.850000X-0.850000X0*%
%ADD49O,2.080000X2.080000*%
%ADD50RoundRect,0.337500X-0.172500X0.147500X-0.172500X-0.147500X0.172500X-0.147500X0.172500X0.147500X0*%
%ADD51RoundRect,0.408750X-0.256250X0.218750X-0.256250X-0.218750X0.256250X-0.218750X0.256250X0.218750X0*%
%ADD52RoundRect,0.440000X0.787500X0.925000X-0.787500X0.925000X-0.787500X-0.925000X0.787500X-0.925000X0*%
%ADD53RoundRect,0.390000X-0.200000X-0.275000X0.200000X-0.275000X0.200000X0.275000X-0.200000X0.275000X0*%
%ADD54RoundRect,0.390000X0.200000X0.275000X-0.200000X0.275000X-0.200000X-0.275000X0.200000X-0.275000X0*%
%ADD55RoundRect,0.440000X-0.450000X0.262500X-0.450000X-0.262500X0.450000X-0.262500X0.450000X0.262500X0*%
%ADD56C,2.620000*%
%ADD57C,3.120000*%
%ADD58RoundRect,0.433750X0.243750X0.456250X-0.243750X0.456250X-0.243750X-0.456250X0.243750X-0.456250X0*%
%ADD59RoundRect,0.190000X-0.876300X-0.774700X0.876300X-0.774700X0.876300X0.774700X-0.876300X0.774700X0*%
%ADD60RoundRect,0.190000X-0.403999X-0.127400X0.403999X-0.127400X0.403999X0.127400X-0.403999X0.127400X0*%
%ADD61RoundRect,0.440000X0.475000X-0.250000X0.475000X0.250000X-0.475000X0.250000X-0.475000X-0.250000X0*%
%ADD62RoundRect,0.190000X-0.355600X-0.127000X0.355600X-0.127000X0.355600X0.127000X-0.355600X0.127000X0*%
%ADD63RoundRect,0.190000X-0.127000X-0.355600X0.127000X-0.355600X0.127000X0.355600X-0.127000X0.355600X0*%
%ADD64RoundRect,0.190000X-0.127000X-0.596900X0.127000X-0.596900X0.127000X0.596900X-0.127000X0.596900X0*%
%ADD65RoundRect,0.433750X-0.456250X0.243750X-0.456250X-0.243750X0.456250X-0.243750X0.456250X0.243750X0*%
%ADD66RoundRect,0.252500X-0.362500X-0.062500X0.362500X-0.062500X0.362500X0.062500X-0.362500X0.062500X0*%
%ADD67RoundRect,0.252500X-0.062500X-0.362500X0.062500X-0.362500X0.062500X0.362500X-0.062500X0.362500X0*%
%ADD68RoundRect,0.190000X-1.300000X-1.300000X1.300000X-1.300000X1.300000X1.300000X-1.300000X1.300000X0*%
%ADD69RoundRect,0.190000X-0.500000X-0.312500X0.500000X-0.312500X0.500000X0.312500X-0.500000X0.312500X0*%
%ADD70RoundRect,0.415000X0.225000X0.250000X-0.225000X0.250000X-0.225000X-0.250000X0.225000X-0.250000X0*%
%ADD71RoundRect,0.337500X-0.147500X-0.172500X0.147500X-0.172500X0.147500X0.172500X-0.147500X0.172500X0*%
%ADD72RoundRect,0.190000X-0.235000X-0.280000X0.235000X-0.280000X0.235000X0.280000X-0.235000X0.280000X0*%
%ADD73RoundRect,0.190000X-1.260000X-0.850000X1.260000X-0.850000X1.260000X0.850000X-1.260000X0.850000X0*%
%ADD74C,1.380000*%
%ADD75RoundRect,0.190000X0.375000X0.125000X-0.375000X0.125000X-0.375000X-0.125000X0.375000X-0.125000X0*%
%ADD76RoundRect,0.190000X0.500000X-0.575000X0.500000X0.575000X-0.500000X0.575000X-0.500000X-0.575000X0*%
%ADD77RoundRect,0.190000X0.737500X-0.150000X0.737500X0.150000X-0.737500X0.150000X-0.737500X-0.150000X0*%
%ADD78RoundRect,0.190000X-0.150000X-0.737500X0.150000X-0.737500X0.150000X0.737500X-0.150000X0.737500X0*%
%ADD79RoundRect,0.190000X-1.450000X-2.700000X1.450000X-2.700000X1.450000X2.700000X-1.450000X2.700000X0*%
%ADD80RoundRect,0.190000X-0.350000X0.300000X-0.350000X-0.300000X0.350000X-0.300000X0.350000X0.300000X0*%
%ADD81RoundRect,0.440000X-1.025000X0.787500X-1.025000X-0.787500X1.025000X-0.787500X1.025000X0.787500X0*%
%ADD82RoundRect,0.190000X-0.175000X-0.500000X0.175000X-0.500000X0.175000X0.500000X-0.175000X0.500000X0*%
%ADD83RoundRect,0.190000X-0.500000X0.175000X-0.500000X-0.175000X0.500000X-0.175000X0.500000X0.175000X0*%
%ADD84RoundRect,0.337500X0.172500X-0.147500X0.172500X0.147500X-0.172500X0.147500X-0.172500X-0.147500X0*%
%ADD85RoundRect,0.190000X-0.150000X0.225000X-0.150000X-0.225000X0.150000X-0.225000X0.150000X0.225000X0*%
%ADD86RoundRect,0.190000X-1.700000X-0.900000X1.700000X-0.900000X1.700000X0.900000X-1.700000X0.900000X0*%
%ADD87RoundRect,0.265000X-0.275000X-0.075000X0.275000X-0.075000X0.275000X0.075000X-0.275000X0.075000X0*%
%ADD88RoundRect,0.190000X-0.350000X-0.800000X0.350000X-0.800000X0.350000X0.800000X-0.350000X0.800000X0*%
%ADD89RoundRect,0.190000X0.600000X-0.200000X0.600000X0.200000X-0.600000X0.200000X-0.600000X-0.200000X0*%
%ADD90RoundRect,0.210000X-0.080000X-0.080000X0.080000X-0.080000X0.080000X0.080000X-0.080000X0.080000X0*%
%ADD91RoundRect,0.210000X-0.080000X-0.280000X0.080000X-0.280000X0.080000X0.280000X-0.080000X0.280000X0*%
%ADD92RoundRect,0.340000X0.150000X-0.512500X0.150000X0.512500X-0.150000X0.512500X-0.150000X-0.512500X0*%
%ADD93RoundRect,0.190000X-1.200000X-0.370000X1.200000X-0.370000X1.200000X0.370000X-1.200000X0.370000X0*%
G04 APERTURE END LIST*
D10*
X160115873Y-97476190D02*
X160282540Y-97976190D01*
X160449206Y-97476190D01*
X160901587Y-97928571D02*
X160877778Y-97952380D01*
X160806349Y-97976190D01*
X160758730Y-97976190D01*
X160687301Y-97952380D01*
X160639682Y-97904761D01*
X160615873Y-97857142D01*
X160592063Y-97761904D01*
X160592063Y-97690476D01*
X160615873Y-97595238D01*
X160639682Y-97547619D01*
X160687301Y-97500000D01*
X160758730Y-97476190D01*
X160806349Y-97476190D01*
X160877778Y-97500000D01*
X160901587Y-97523809D01*
X161401587Y-97928571D02*
X161377778Y-97952380D01*
X161306349Y-97976190D01*
X161258730Y-97976190D01*
X161187301Y-97952380D01*
X161139682Y-97904761D01*
X161115873Y-97857142D01*
X161092063Y-97761904D01*
X161092063Y-97690476D01*
X161115873Y-97595238D01*
X161139682Y-97547619D01*
X161187301Y-97500000D01*
X161258730Y-97476190D01*
X161306349Y-97476190D01*
X161377778Y-97500000D01*
X161401587Y-97523809D01*
X163549206Y-120276190D02*
X163549206Y-119776190D01*
X163739682Y-119776190D01*
X163787301Y-119800000D01*
X163811111Y-119823809D01*
X163834920Y-119871428D01*
X163834920Y-119942857D01*
X163811111Y-119990476D01*
X163787301Y-120014285D01*
X163739682Y-120038095D01*
X163549206Y-120038095D01*
X164025397Y-120133333D02*
X164263492Y-120133333D01*
X163977778Y-120276190D02*
X164144444Y-119776190D01*
X164311111Y-120276190D01*
X164692063Y-119942857D02*
X164692063Y-120276190D01*
X164573016Y-119752380D02*
X164453968Y-120109523D01*
X164763492Y-120109523D01*
X163915873Y-117876190D02*
X164082540Y-118376190D01*
X164249206Y-117876190D01*
X164701587Y-118328571D02*
X164677778Y-118352380D01*
X164606349Y-118376190D01*
X164558730Y-118376190D01*
X164487301Y-118352380D01*
X164439682Y-118304761D01*
X164415873Y-118257142D01*
X164392063Y-118161904D01*
X164392063Y-118090476D01*
X164415873Y-117995238D01*
X164439682Y-117947619D01*
X164487301Y-117900000D01*
X164558730Y-117876190D01*
X164606349Y-117876190D01*
X164677778Y-117900000D01*
X164701587Y-117923809D01*
X165201587Y-118328571D02*
X165177778Y-118352380D01*
X165106349Y-118376190D01*
X165058730Y-118376190D01*
X164987301Y-118352380D01*
X164939682Y-118304761D01*
X164915873Y-118257142D01*
X164892063Y-118161904D01*
X164892063Y-118090476D01*
X164915873Y-117995238D01*
X164939682Y-117947619D01*
X164987301Y-117900000D01*
X165058730Y-117876190D01*
X165106349Y-117876190D01*
X165177778Y-117900000D01*
X165201587Y-117923809D01*
X177465873Y-101526190D02*
X177632540Y-102026190D01*
X177799206Y-101526190D01*
X178251587Y-101978571D02*
X178227778Y-102002380D01*
X178156349Y-102026190D01*
X178108730Y-102026190D01*
X178037301Y-102002380D01*
X177989682Y-101954761D01*
X177965873Y-101907142D01*
X177942063Y-101811904D01*
X177942063Y-101740476D01*
X177965873Y-101645238D01*
X177989682Y-101597619D01*
X178037301Y-101550000D01*
X178108730Y-101526190D01*
X178156349Y-101526190D01*
X178227778Y-101550000D01*
X178251587Y-101573809D01*
X178751587Y-101978571D02*
X178727778Y-102002380D01*
X178656349Y-102026190D01*
X178608730Y-102026190D01*
X178537301Y-102002380D01*
X178489682Y-101954761D01*
X178465873Y-101907142D01*
X178442063Y-101811904D01*
X178442063Y-101740476D01*
X178465873Y-101645238D01*
X178489682Y-101597619D01*
X178537301Y-101550000D01*
X178608730Y-101526190D01*
X178656349Y-101526190D01*
X178727778Y-101550000D01*
X178751587Y-101573809D01*
X168575397Y-117726190D02*
X168575397Y-117226190D01*
X168765873Y-117226190D01*
X168813492Y-117250000D01*
X168837301Y-117273809D01*
X168861111Y-117321428D01*
X168861111Y-117392857D01*
X168837301Y-117440476D01*
X168813492Y-117464285D01*
X168765873Y-117488095D01*
X168575397Y-117488095D01*
X169242063Y-117464285D02*
X169313492Y-117488095D01*
X169337301Y-117511904D01*
X169361111Y-117559523D01*
X169361111Y-117630952D01*
X169337301Y-117678571D01*
X169313492Y-117702380D01*
X169265873Y-117726190D01*
X169075397Y-117726190D01*
X169075397Y-117226190D01*
X169242063Y-117226190D01*
X169289682Y-117250000D01*
X169313492Y-117273809D01*
X169337301Y-117321428D01*
X169337301Y-117369047D01*
X169313492Y-117416666D01*
X169289682Y-117440476D01*
X169242063Y-117464285D01*
X169075397Y-117464285D01*
X169837301Y-117726190D02*
X169551587Y-117726190D01*
X169694444Y-117726190D02*
X169694444Y-117226190D01*
X169646825Y-117297619D01*
X169599206Y-117345238D01*
X169551587Y-117369047D01*
X170146825Y-117226190D02*
X170194444Y-117226190D01*
X170242063Y-117250000D01*
X170265873Y-117273809D01*
X170289682Y-117321428D01*
X170313492Y-117416666D01*
X170313492Y-117535714D01*
X170289682Y-117630952D01*
X170265873Y-117678571D01*
X170242063Y-117702380D01*
X170194444Y-117726190D01*
X170146825Y-117726190D01*
X170099206Y-117702380D01*
X170075397Y-117678571D01*
X170051587Y-117630952D01*
X170027778Y-117535714D01*
X170027778Y-117416666D01*
X170051587Y-117321428D01*
X170075397Y-117273809D01*
X170099206Y-117250000D01*
X170146825Y-117226190D01*
X176965873Y-114426190D02*
X177132540Y-114926190D01*
X177299206Y-114426190D01*
X177751587Y-114878571D02*
X177727778Y-114902380D01*
X177656349Y-114926190D01*
X177608730Y-114926190D01*
X177537301Y-114902380D01*
X177489682Y-114854761D01*
X177465873Y-114807142D01*
X177442063Y-114711904D01*
X177442063Y-114640476D01*
X177465873Y-114545238D01*
X177489682Y-114497619D01*
X177537301Y-114450000D01*
X177608730Y-114426190D01*
X177656349Y-114426190D01*
X177727778Y-114450000D01*
X177751587Y-114473809D01*
X178251587Y-114878571D02*
X178227778Y-114902380D01*
X178156349Y-114926190D01*
X178108730Y-114926190D01*
X178037301Y-114902380D01*
X177989682Y-114854761D01*
X177965873Y-114807142D01*
X177942063Y-114711904D01*
X177942063Y-114640476D01*
X177965873Y-114545238D01*
X177989682Y-114497619D01*
X178037301Y-114450000D01*
X178108730Y-114426190D01*
X178156349Y-114426190D01*
X178227778Y-114450000D01*
X178251587Y-114473809D01*
X157463492Y-116726190D02*
X157582540Y-117226190D01*
X157677778Y-116869047D01*
X157773016Y-117226190D01*
X157892063Y-116726190D01*
X158082540Y-117226190D02*
X158082540Y-116726190D01*
X158201587Y-116726190D01*
X158273016Y-116750000D01*
X158320635Y-116797619D01*
X158344444Y-116845238D01*
X158368254Y-116940476D01*
X158368254Y-117011904D01*
X158344444Y-117107142D01*
X158320635Y-117154761D01*
X158273016Y-117202380D01*
X158201587Y-117226190D01*
X158082540Y-117226190D01*
X158463492Y-117273809D02*
X158844444Y-117273809D01*
X158892063Y-116726190D02*
X159058730Y-117226190D01*
X159225397Y-116726190D01*
X159677778Y-117178571D02*
X159653968Y-117202380D01*
X159582540Y-117226190D01*
X159534920Y-117226190D01*
X159463492Y-117202380D01*
X159415873Y-117154761D01*
X159392063Y-117107142D01*
X159368254Y-117011904D01*
X159368254Y-116940476D01*
X159392063Y-116845238D01*
X159415873Y-116797619D01*
X159463492Y-116750000D01*
X159534920Y-116726190D01*
X159582540Y-116726190D01*
X159653968Y-116750000D01*
X159677778Y-116773809D01*
X160177778Y-117178571D02*
X160153968Y-117202380D01*
X160082540Y-117226190D01*
X160034920Y-117226190D01*
X159963492Y-117202380D01*
X159915873Y-117154761D01*
X159892063Y-117107142D01*
X159868254Y-117011904D01*
X159868254Y-116940476D01*
X159892063Y-116845238D01*
X159915873Y-116797619D01*
X159963492Y-116750000D01*
X160034920Y-116726190D01*
X160082540Y-116726190D01*
X160153968Y-116750000D01*
X160177778Y-116773809D01*
X143949206Y-99264285D02*
X143782540Y-99264285D01*
X143782540Y-99526190D02*
X143782540Y-99026190D01*
X144020635Y-99026190D01*
X144496825Y-99526190D02*
X144330159Y-99288095D01*
X144211111Y-99526190D02*
X144211111Y-99026190D01*
X144401587Y-99026190D01*
X144449206Y-99050000D01*
X144473016Y-99073809D01*
X144496825Y-99121428D01*
X144496825Y-99192857D01*
X144473016Y-99240476D01*
X144449206Y-99264285D01*
X144401587Y-99288095D01*
X144211111Y-99288095D01*
X144592063Y-99573809D02*
X144973016Y-99573809D01*
X145020635Y-99026190D02*
X145187301Y-99526190D01*
X145353968Y-99026190D01*
X145806349Y-99478571D02*
X145782540Y-99502380D01*
X145711111Y-99526190D01*
X145663492Y-99526190D01*
X145592063Y-99502380D01*
X145544444Y-99454761D01*
X145520635Y-99407142D01*
X145496825Y-99311904D01*
X145496825Y-99240476D01*
X145520635Y-99145238D01*
X145544444Y-99097619D01*
X145592063Y-99050000D01*
X145663492Y-99026190D01*
X145711111Y-99026190D01*
X145782540Y-99050000D01*
X145806349Y-99073809D01*
X146306349Y-99478571D02*
X146282540Y-99502380D01*
X146211111Y-99526190D01*
X146163492Y-99526190D01*
X146092063Y-99502380D01*
X146044444Y-99454761D01*
X146020635Y-99407142D01*
X145996825Y-99311904D01*
X145996825Y-99240476D01*
X146020635Y-99145238D01*
X146044444Y-99097619D01*
X146092063Y-99050000D01*
X146163492Y-99026190D01*
X146211111Y-99026190D01*
X146282540Y-99050000D01*
X146306349Y-99073809D01*
X145196825Y-107164285D02*
X145030159Y-107164285D01*
X145030159Y-107426190D02*
X145030159Y-106926190D01*
X145268254Y-106926190D01*
X145696825Y-107426190D02*
X145458730Y-107426190D01*
X145458730Y-106926190D01*
X145744444Y-107473809D02*
X146125397Y-107473809D01*
X146173016Y-106926190D02*
X146339682Y-107426190D01*
X146506349Y-106926190D01*
X146673016Y-107426190D02*
X146673016Y-106926190D01*
X146792063Y-106926190D01*
X146863492Y-106950000D01*
X146911111Y-106997619D01*
X146934920Y-107045238D01*
X146958730Y-107140476D01*
X146958730Y-107211904D01*
X146934920Y-107307142D01*
X146911111Y-107354761D01*
X146863492Y-107402380D01*
X146792063Y-107426190D01*
X146673016Y-107426190D01*
X147173016Y-107426190D02*
X147173016Y-106926190D01*
X147292063Y-106926190D01*
X147363492Y-106950000D01*
X147411111Y-106997619D01*
X147434920Y-107045238D01*
X147458730Y-107140476D01*
X147458730Y-107211904D01*
X147434920Y-107307142D01*
X147411111Y-107354761D01*
X147363492Y-107402380D01*
X147292063Y-107426190D01*
X147173016Y-107426190D01*
X154613492Y-122026190D02*
X154613492Y-121526190D01*
X154803968Y-121526190D01*
X154851587Y-121550000D01*
X154875397Y-121573809D01*
X154899206Y-121621428D01*
X154899206Y-121692857D01*
X154875397Y-121740476D01*
X154851587Y-121764285D01*
X154803968Y-121788095D01*
X154613492Y-121788095D01*
X155399206Y-121978571D02*
X155375397Y-122002380D01*
X155303968Y-122026190D01*
X155256349Y-122026190D01*
X155184920Y-122002380D01*
X155137301Y-121954761D01*
X155113492Y-121907142D01*
X155089682Y-121811904D01*
X155089682Y-121740476D01*
X155113492Y-121645238D01*
X155137301Y-121597619D01*
X155184920Y-121550000D01*
X155256349Y-121526190D01*
X155303968Y-121526190D01*
X155375397Y-121550000D01*
X155399206Y-121573809D01*
X155708730Y-121526190D02*
X155756349Y-121526190D01*
X155803968Y-121550000D01*
X155827778Y-121573809D01*
X155851587Y-121621428D01*
X155875397Y-121716666D01*
X155875397Y-121835714D01*
X155851587Y-121930952D01*
X155827778Y-121978571D01*
X155803968Y-122002380D01*
X155756349Y-122026190D01*
X155708730Y-122026190D01*
X155661111Y-122002380D01*
X155637301Y-121978571D01*
X155613492Y-121930952D01*
X155589682Y-121835714D01*
X155589682Y-121716666D01*
X155613492Y-121621428D01*
X155637301Y-121573809D01*
X155661111Y-121550000D01*
X155708730Y-121526190D01*
X159813492Y-121926190D02*
X159813492Y-121426190D01*
X160003968Y-121426190D01*
X160051587Y-121450000D01*
X160075397Y-121473809D01*
X160099206Y-121521428D01*
X160099206Y-121592857D01*
X160075397Y-121640476D01*
X160051587Y-121664285D01*
X160003968Y-121688095D01*
X159813492Y-121688095D01*
X160599206Y-121878571D02*
X160575397Y-121902380D01*
X160503968Y-121926190D01*
X160456349Y-121926190D01*
X160384920Y-121902380D01*
X160337301Y-121854761D01*
X160313492Y-121807142D01*
X160289682Y-121711904D01*
X160289682Y-121640476D01*
X160313492Y-121545238D01*
X160337301Y-121497619D01*
X160384920Y-121450000D01*
X160456349Y-121426190D01*
X160503968Y-121426190D01*
X160575397Y-121450000D01*
X160599206Y-121473809D01*
X161075397Y-121926190D02*
X160789682Y-121926190D01*
X160932540Y-121926190D02*
X160932540Y-121426190D01*
X160884920Y-121497619D01*
X160837301Y-121545238D01*
X160789682Y-121569047D01*
X153892063Y-85664285D02*
X153963492Y-85688095D01*
X153987301Y-85711904D01*
X154011111Y-85759523D01*
X154011111Y-85830952D01*
X153987301Y-85878571D01*
X153963492Y-85902380D01*
X153915873Y-85926190D01*
X153725397Y-85926190D01*
X153725397Y-85426190D01*
X153892063Y-85426190D01*
X153939682Y-85450000D01*
X153963492Y-85473809D01*
X153987301Y-85521428D01*
X153987301Y-85569047D01*
X153963492Y-85616666D01*
X153939682Y-85640476D01*
X153892063Y-85664285D01*
X153725397Y-85664285D01*
X154296825Y-85926190D02*
X154249206Y-85902380D01*
X154225397Y-85878571D01*
X154201587Y-85830952D01*
X154201587Y-85688095D01*
X154225397Y-85640476D01*
X154249206Y-85616666D01*
X154296825Y-85592857D01*
X154368254Y-85592857D01*
X154415873Y-85616666D01*
X154439682Y-85640476D01*
X154463492Y-85688095D01*
X154463492Y-85830952D01*
X154439682Y-85878571D01*
X154415873Y-85902380D01*
X154368254Y-85926190D01*
X154296825Y-85926190D01*
X154749206Y-85926190D02*
X154701587Y-85902380D01*
X154677778Y-85878571D01*
X154653968Y-85830952D01*
X154653968Y-85688095D01*
X154677778Y-85640476D01*
X154701587Y-85616666D01*
X154749206Y-85592857D01*
X154820635Y-85592857D01*
X154868254Y-85616666D01*
X154892063Y-85640476D01*
X154915873Y-85688095D01*
X154915873Y-85830952D01*
X154892063Y-85878571D01*
X154868254Y-85902380D01*
X154820635Y-85926190D01*
X154749206Y-85926190D01*
X155058730Y-85592857D02*
X155249206Y-85592857D01*
X155130159Y-85426190D02*
X155130159Y-85854761D01*
X155153968Y-85902380D01*
X155201587Y-85926190D01*
X155249206Y-85926190D01*
X155296825Y-85973809D02*
X155677778Y-85973809D01*
X156082540Y-85878571D02*
X156058730Y-85902380D01*
X155987301Y-85926190D01*
X155939682Y-85926190D01*
X155868254Y-85902380D01*
X155820635Y-85854761D01*
X155796825Y-85807142D01*
X155773016Y-85711904D01*
X155773016Y-85640476D01*
X155796825Y-85545238D01*
X155820635Y-85497619D01*
X155868254Y-85450000D01*
X155939682Y-85426190D01*
X155987301Y-85426190D01*
X156058730Y-85450000D01*
X156082540Y-85473809D01*
X156368254Y-85926190D02*
X156320635Y-85902380D01*
X156296825Y-85878571D01*
X156273016Y-85830952D01*
X156273016Y-85688095D01*
X156296825Y-85640476D01*
X156320635Y-85616666D01*
X156368254Y-85592857D01*
X156439682Y-85592857D01*
X156487301Y-85616666D01*
X156511111Y-85640476D01*
X156534920Y-85688095D01*
X156534920Y-85830952D01*
X156511111Y-85878571D01*
X156487301Y-85902380D01*
X156439682Y-85926190D01*
X156368254Y-85926190D01*
X156749206Y-85592857D02*
X156749206Y-85926190D01*
X156749206Y-85640476D02*
X156773016Y-85616666D01*
X156820635Y-85592857D01*
X156892063Y-85592857D01*
X156939682Y-85616666D01*
X156963492Y-85664285D01*
X156963492Y-85926190D01*
X157130159Y-85592857D02*
X157320635Y-85592857D01*
X157201587Y-85926190D02*
X157201587Y-85497619D01*
X157225397Y-85450000D01*
X157273016Y-85426190D01*
X157320635Y-85426190D01*
X157487301Y-85926190D02*
X157487301Y-85592857D01*
X157487301Y-85426190D02*
X157463492Y-85450000D01*
X157487301Y-85473809D01*
X157511111Y-85450000D01*
X157487301Y-85426190D01*
X157487301Y-85473809D01*
X157939682Y-85592857D02*
X157939682Y-85997619D01*
X157915873Y-86045238D01*
X157892063Y-86069047D01*
X157844444Y-86092857D01*
X157773016Y-86092857D01*
X157725397Y-86069047D01*
X157939682Y-85902380D02*
X157892063Y-85926190D01*
X157796825Y-85926190D01*
X157749206Y-85902380D01*
X157725397Y-85878571D01*
X157701587Y-85830952D01*
X157701587Y-85688095D01*
X157725397Y-85640476D01*
X157749206Y-85616666D01*
X157796825Y-85592857D01*
X157892063Y-85592857D01*
X157939682Y-85616666D01*
X129261111Y-101364285D02*
X129094444Y-101364285D01*
X129094444Y-101626190D02*
X129094444Y-101126190D01*
X129332540Y-101126190D01*
X129808730Y-101626190D02*
X129642063Y-101388095D01*
X129523016Y-101626190D02*
X129523016Y-101126190D01*
X129713492Y-101126190D01*
X129761111Y-101150000D01*
X129784920Y-101173809D01*
X129808730Y-101221428D01*
X129808730Y-101292857D01*
X129784920Y-101340476D01*
X129761111Y-101364285D01*
X129713492Y-101388095D01*
X129523016Y-101388095D01*
X129903968Y-101673809D02*
X130284920Y-101673809D01*
X130689682Y-101578571D02*
X130665873Y-101602380D01*
X130594444Y-101626190D01*
X130546825Y-101626190D01*
X130475397Y-101602380D01*
X130427778Y-101554761D01*
X130403968Y-101507142D01*
X130380159Y-101411904D01*
X130380159Y-101340476D01*
X130403968Y-101245238D01*
X130427778Y-101197619D01*
X130475397Y-101150000D01*
X130546825Y-101126190D01*
X130594444Y-101126190D01*
X130665873Y-101150000D01*
X130689682Y-101173809D01*
X131142063Y-101626190D02*
X130903968Y-101626190D01*
X130903968Y-101126190D01*
X131308730Y-101626190D02*
X131308730Y-101126190D01*
X131594444Y-101626190D02*
X131380159Y-101340476D01*
X131594444Y-101126190D02*
X131308730Y-101411904D01*
X128958730Y-105764285D02*
X128792063Y-105764285D01*
X128792063Y-106026190D02*
X128792063Y-105526190D01*
X129030159Y-105526190D01*
X129506349Y-106026190D02*
X129339682Y-105788095D01*
X129220635Y-106026190D02*
X129220635Y-105526190D01*
X129411111Y-105526190D01*
X129458730Y-105550000D01*
X129482540Y-105573809D01*
X129506349Y-105621428D01*
X129506349Y-105692857D01*
X129482540Y-105740476D01*
X129458730Y-105764285D01*
X129411111Y-105788095D01*
X129220635Y-105788095D01*
X129601587Y-106073809D02*
X129982540Y-106073809D01*
X130101587Y-106026190D02*
X130101587Y-105526190D01*
X130268254Y-105883333D01*
X130434920Y-105526190D01*
X130434920Y-106026190D01*
X130673016Y-106026190D02*
X130673016Y-105526190D01*
X130887301Y-106002380D02*
X130958730Y-106026190D01*
X131077778Y-106026190D01*
X131125397Y-106002380D01*
X131149206Y-105978571D01*
X131173016Y-105930952D01*
X131173016Y-105883333D01*
X131149206Y-105835714D01*
X131125397Y-105811904D01*
X131077778Y-105788095D01*
X130982540Y-105764285D01*
X130934920Y-105740476D01*
X130911111Y-105716666D01*
X130887301Y-105669047D01*
X130887301Y-105621428D01*
X130911111Y-105573809D01*
X130934920Y-105550000D01*
X130982540Y-105526190D01*
X131101587Y-105526190D01*
X131173016Y-105550000D01*
X131482540Y-105526190D02*
X131577778Y-105526190D01*
X131625397Y-105550000D01*
X131673016Y-105597619D01*
X131696825Y-105692857D01*
X131696825Y-105859523D01*
X131673016Y-105954761D01*
X131625397Y-106002380D01*
X131577778Y-106026190D01*
X131482540Y-106026190D01*
X131434920Y-106002380D01*
X131387301Y-105954761D01*
X131363492Y-105859523D01*
X131363492Y-105692857D01*
X131387301Y-105597619D01*
X131434920Y-105550000D01*
X131482540Y-105526190D01*
X132968254Y-110242857D02*
X132968254Y-110076190D01*
X132706349Y-110076190D02*
X133206349Y-110076190D01*
X133206349Y-110314285D01*
X132706349Y-110790476D02*
X132944444Y-110623809D01*
X132706349Y-110504761D02*
X133206349Y-110504761D01*
X133206349Y-110695238D01*
X133182540Y-110742857D01*
X133158730Y-110766666D01*
X133111111Y-110790476D01*
X133039682Y-110790476D01*
X132992063Y-110766666D01*
X132968254Y-110742857D01*
X132944444Y-110695238D01*
X132944444Y-110504761D01*
X132658730Y-110885714D02*
X132658730Y-111266666D01*
X132753968Y-111671428D02*
X132730159Y-111647619D01*
X132706349Y-111576190D01*
X132706349Y-111528571D01*
X132730159Y-111457142D01*
X132777778Y-111409523D01*
X132825397Y-111385714D01*
X132920635Y-111361904D01*
X132992063Y-111361904D01*
X133087301Y-111385714D01*
X133134920Y-111409523D01*
X133182540Y-111457142D01*
X133206349Y-111528571D01*
X133206349Y-111576190D01*
X133182540Y-111647619D01*
X133158730Y-111671428D01*
X132730159Y-111861904D02*
X132706349Y-111933333D01*
X132706349Y-112052380D01*
X132730159Y-112100000D01*
X132753968Y-112123809D01*
X132801587Y-112147619D01*
X132849206Y-112147619D01*
X132896825Y-112123809D01*
X132920635Y-112100000D01*
X132944444Y-112052380D01*
X132968254Y-111957142D01*
X132992063Y-111909523D01*
X133015873Y-111885714D01*
X133063492Y-111861904D01*
X133111111Y-111861904D01*
X133158730Y-111885714D01*
X133182540Y-111909523D01*
X133206349Y-111957142D01*
X133206349Y-112076190D01*
X133182540Y-112147619D01*
X128958730Y-110064285D02*
X128792063Y-110064285D01*
X128792063Y-110326190D02*
X128792063Y-109826190D01*
X129030159Y-109826190D01*
X129506349Y-110326190D02*
X129339682Y-110088095D01*
X129220635Y-110326190D02*
X129220635Y-109826190D01*
X129411111Y-109826190D01*
X129458730Y-109850000D01*
X129482540Y-109873809D01*
X129506349Y-109921428D01*
X129506349Y-109992857D01*
X129482540Y-110040476D01*
X129458730Y-110064285D01*
X129411111Y-110088095D01*
X129220635Y-110088095D01*
X129601587Y-110373809D02*
X129982540Y-110373809D01*
X130101587Y-110326190D02*
X130101587Y-109826190D01*
X130268254Y-110183333D01*
X130434920Y-109826190D01*
X130434920Y-110326190D01*
X130768254Y-109826190D02*
X130863492Y-109826190D01*
X130911111Y-109850000D01*
X130958730Y-109897619D01*
X130982540Y-109992857D01*
X130982540Y-110159523D01*
X130958730Y-110254761D01*
X130911111Y-110302380D01*
X130863492Y-110326190D01*
X130768254Y-110326190D01*
X130720635Y-110302380D01*
X130673016Y-110254761D01*
X130649206Y-110159523D01*
X130649206Y-109992857D01*
X130673016Y-109897619D01*
X130720635Y-109850000D01*
X130768254Y-109826190D01*
X131173016Y-110302380D02*
X131244444Y-110326190D01*
X131363492Y-110326190D01*
X131411111Y-110302380D01*
X131434920Y-110278571D01*
X131458730Y-110230952D01*
X131458730Y-110183333D01*
X131434920Y-110135714D01*
X131411111Y-110111904D01*
X131363492Y-110088095D01*
X131268254Y-110064285D01*
X131220635Y-110040476D01*
X131196825Y-110016666D01*
X131173016Y-109969047D01*
X131173016Y-109921428D01*
X131196825Y-109873809D01*
X131220635Y-109850000D01*
X131268254Y-109826190D01*
X131387301Y-109826190D01*
X131458730Y-109850000D01*
X131673016Y-110326190D02*
X131673016Y-109826190D01*
X125108730Y-110064285D02*
X124942063Y-110064285D01*
X124942063Y-110326190D02*
X124942063Y-109826190D01*
X125180159Y-109826190D01*
X125608730Y-110326190D02*
X125370635Y-110326190D01*
X125370635Y-109826190D01*
X125656349Y-110373809D02*
X126037301Y-110373809D01*
X126442063Y-110278571D02*
X126418254Y-110302380D01*
X126346825Y-110326190D01*
X126299206Y-110326190D01*
X126227778Y-110302380D01*
X126180159Y-110254761D01*
X126156349Y-110207142D01*
X126132540Y-110111904D01*
X126132540Y-110040476D01*
X126156349Y-109945238D01*
X126180159Y-109897619D01*
X126227778Y-109850000D01*
X126299206Y-109826190D01*
X126346825Y-109826190D01*
X126418254Y-109850000D01*
X126442063Y-109873809D01*
X126894444Y-110326190D02*
X126656349Y-110326190D01*
X126656349Y-109826190D01*
X127061111Y-110326190D02*
X127061111Y-109826190D01*
X127346825Y-110326190D02*
X127132540Y-110040476D01*
X127346825Y-109826190D02*
X127061111Y-110111904D01*
X128906349Y-114361785D02*
X128739682Y-114361785D01*
X128739682Y-114623690D02*
X128739682Y-114123690D01*
X128977778Y-114123690D01*
X129406349Y-114623690D02*
X129168254Y-114623690D01*
X129168254Y-114123690D01*
X129453968Y-114671309D02*
X129834920Y-114671309D01*
X129953968Y-114623690D02*
X129953968Y-114123690D01*
X130120635Y-114480833D01*
X130287301Y-114123690D01*
X130287301Y-114623690D01*
X130525397Y-114623690D02*
X130525397Y-114123690D01*
X130739682Y-114599880D02*
X130811111Y-114623690D01*
X130930159Y-114623690D01*
X130977778Y-114599880D01*
X131001587Y-114576071D01*
X131025397Y-114528452D01*
X131025397Y-114480833D01*
X131001587Y-114433214D01*
X130977778Y-114409404D01*
X130930159Y-114385595D01*
X130834920Y-114361785D01*
X130787301Y-114337976D01*
X130763492Y-114314166D01*
X130739682Y-114266547D01*
X130739682Y-114218928D01*
X130763492Y-114171309D01*
X130787301Y-114147500D01*
X130834920Y-114123690D01*
X130953968Y-114123690D01*
X131025397Y-114147500D01*
X131334920Y-114123690D02*
X131430159Y-114123690D01*
X131477778Y-114147500D01*
X131525397Y-114195119D01*
X131549206Y-114290357D01*
X131549206Y-114457023D01*
X131525397Y-114552261D01*
X131477778Y-114599880D01*
X131430159Y-114623690D01*
X131334920Y-114623690D01*
X131287301Y-114599880D01*
X131239682Y-114552261D01*
X131215873Y-114457023D01*
X131215873Y-114290357D01*
X131239682Y-114195119D01*
X131287301Y-114147500D01*
X131334920Y-114123690D01*
X124906349Y-114364285D02*
X124739682Y-114364285D01*
X124739682Y-114626190D02*
X124739682Y-114126190D01*
X124977778Y-114126190D01*
X125406349Y-114626190D02*
X125168254Y-114626190D01*
X125168254Y-114126190D01*
X125453968Y-114673809D02*
X125834920Y-114673809D01*
X125953968Y-114626190D02*
X125953968Y-114126190D01*
X126120635Y-114483333D01*
X126287301Y-114126190D01*
X126287301Y-114626190D01*
X126620635Y-114126190D02*
X126715873Y-114126190D01*
X126763492Y-114150000D01*
X126811111Y-114197619D01*
X126834920Y-114292857D01*
X126834920Y-114459523D01*
X126811111Y-114554761D01*
X126763492Y-114602380D01*
X126715873Y-114626190D01*
X126620635Y-114626190D01*
X126573016Y-114602380D01*
X126525397Y-114554761D01*
X126501587Y-114459523D01*
X126501587Y-114292857D01*
X126525397Y-114197619D01*
X126573016Y-114150000D01*
X126620635Y-114126190D01*
X127025397Y-114602380D02*
X127096825Y-114626190D01*
X127215873Y-114626190D01*
X127263492Y-114602380D01*
X127287301Y-114578571D01*
X127311111Y-114530952D01*
X127311111Y-114483333D01*
X127287301Y-114435714D01*
X127263492Y-114411904D01*
X127215873Y-114388095D01*
X127120635Y-114364285D01*
X127073016Y-114340476D01*
X127049206Y-114316666D01*
X127025397Y-114269047D01*
X127025397Y-114221428D01*
X127049206Y-114173809D01*
X127073016Y-114150000D01*
X127120635Y-114126190D01*
X127239682Y-114126190D01*
X127311111Y-114150000D01*
X127525397Y-114626190D02*
X127525397Y-114126190D01*
D11*
X149122540Y-53220000D02*
X149122540Y-45600000D01*
X164372540Y-53230000D02*
X149132540Y-53230000D01*
X149122540Y-45600000D02*
X164362540Y-45600000D01*
X164362540Y-45600000D02*
X164362540Y-53220000D01*
D12*
X127467968Y-43280217D02*
X128153682Y-43280217D01*
X127810825Y-44480217D02*
X127810825Y-43280217D01*
X128553682Y-43280217D02*
X128553682Y-44251645D01*
X128610825Y-44365931D01*
X128667968Y-44423074D01*
X128782254Y-44480217D01*
X129010825Y-44480217D01*
X129125111Y-44423074D01*
X129182254Y-44365931D01*
X129239397Y-44251645D01*
X129239397Y-43280217D01*
X130610825Y-43280217D02*
X130896540Y-44480217D01*
X131125111Y-43623074D01*
X131353682Y-44480217D01*
X131639397Y-43280217D01*
X132096540Y-44480217D02*
X132096540Y-43680217D01*
X132096540Y-43280217D02*
X132039397Y-43337360D01*
X132096540Y-43394502D01*
X132153682Y-43337360D01*
X132096540Y-43280217D01*
X132096540Y-43394502D01*
X133125111Y-44423074D02*
X133010825Y-44480217D01*
X132782254Y-44480217D01*
X132667968Y-44423074D01*
X132610825Y-44308788D01*
X132610825Y-43851645D01*
X132667968Y-43737360D01*
X132782254Y-43680217D01*
X133010825Y-43680217D01*
X133125111Y-43737360D01*
X133182254Y-43851645D01*
X133182254Y-43965931D01*
X132610825Y-44080217D01*
X133696539Y-43680217D02*
X133696539Y-44480217D01*
X133696539Y-43794502D02*
X133753682Y-43737360D01*
X133867968Y-43680217D01*
X134039397Y-43680217D01*
X134153682Y-43737360D01*
X134210825Y-43851645D01*
X134210825Y-44480217D01*
X135639397Y-44423074D02*
X135810825Y-44480217D01*
X136096540Y-44480217D01*
X136210825Y-44423074D01*
X136267968Y-44365931D01*
X136325111Y-44251645D01*
X136325111Y-44137360D01*
X136267968Y-44023074D01*
X136210825Y-43965931D01*
X136096540Y-43908788D01*
X135867968Y-43851645D01*
X135753682Y-43794502D01*
X135696540Y-43737360D01*
X135639397Y-43623074D01*
X135639397Y-43508788D01*
X135696540Y-43394502D01*
X135753682Y-43337360D01*
X135867968Y-43280217D01*
X136153682Y-43280217D01*
X136325111Y-43337360D01*
X136839397Y-43680217D02*
X136839397Y-44880217D01*
X136839397Y-43737360D02*
X136953682Y-43680217D01*
X137182254Y-43680217D01*
X137296540Y-43737360D01*
X137353682Y-43794502D01*
X137410825Y-43908788D01*
X137410825Y-44251645D01*
X137353682Y-44365931D01*
X137296540Y-44423074D01*
X137182254Y-44480217D01*
X136953682Y-44480217D01*
X136839397Y-44423074D01*
X138439397Y-44480217D02*
X138439397Y-43851645D01*
X138382254Y-43737360D01*
X138267968Y-43680217D01*
X138039397Y-43680217D01*
X137925111Y-43737360D01*
X138439397Y-44423074D02*
X138325111Y-44480217D01*
X138039397Y-44480217D01*
X137925111Y-44423074D01*
X137867968Y-44308788D01*
X137867968Y-44194502D01*
X137925111Y-44080217D01*
X138039397Y-44023074D01*
X138325111Y-44023074D01*
X138439397Y-43965931D01*
X139525111Y-44423074D02*
X139410825Y-44480217D01*
X139182254Y-44480217D01*
X139067968Y-44423074D01*
X139010825Y-44365931D01*
X138953682Y-44251645D01*
X138953682Y-43908788D01*
X139010825Y-43794502D01*
X139067968Y-43737360D01*
X139182254Y-43680217D01*
X139410825Y-43680217D01*
X139525111Y-43737360D01*
X140496540Y-44423074D02*
X140382254Y-44480217D01*
X140153682Y-44480217D01*
X140039397Y-44423074D01*
X139982254Y-44308788D01*
X139982254Y-43851645D01*
X140039397Y-43737360D01*
X140153682Y-43680217D01*
X140382254Y-43680217D01*
X140496540Y-43737360D01*
X140553682Y-43851645D01*
X140553682Y-43965931D01*
X139982254Y-44080217D01*
X141810825Y-43280217D02*
X142496540Y-43280217D01*
X142153682Y-44480217D02*
X142153682Y-43280217D01*
X143353682Y-44423074D02*
X143239397Y-44480217D01*
X143010825Y-44480217D01*
X142896540Y-44423074D01*
X142839397Y-44308788D01*
X142839397Y-43851645D01*
X142896540Y-43737360D01*
X143010825Y-43680217D01*
X143239397Y-43680217D01*
X143353682Y-43737360D01*
X143410825Y-43851645D01*
X143410825Y-43965931D01*
X142839397Y-44080217D01*
X144439397Y-44480217D02*
X144439397Y-43851645D01*
X144382254Y-43737360D01*
X144267968Y-43680217D01*
X144039397Y-43680217D01*
X143925111Y-43737360D01*
X144439397Y-44423074D02*
X144325111Y-44480217D01*
X144039397Y-44480217D01*
X143925111Y-44423074D01*
X143867968Y-44308788D01*
X143867968Y-44194502D01*
X143925111Y-44080217D01*
X144039397Y-44023074D01*
X144325111Y-44023074D01*
X144439397Y-43965931D01*
X145010825Y-44480217D02*
X145010825Y-43680217D01*
X145010825Y-43794502D02*
X145067968Y-43737360D01*
X145182254Y-43680217D01*
X145353682Y-43680217D01*
X145467968Y-43737360D01*
X145525111Y-43851645D01*
X145525111Y-44480217D01*
X145525111Y-43851645D02*
X145582254Y-43737360D01*
X145696540Y-43680217D01*
X145867968Y-43680217D01*
X145982254Y-43737360D01*
X146039397Y-43851645D01*
X146039397Y-44480217D01*
X147467968Y-44423074D02*
X147639397Y-44480217D01*
X147925111Y-44480217D01*
X148039397Y-44423074D01*
X148096540Y-44365931D01*
X148153682Y-44251645D01*
X148153682Y-44137360D01*
X148096540Y-44023074D01*
X148039397Y-43965931D01*
X147925111Y-43908788D01*
X147696540Y-43851645D01*
X147582254Y-43794502D01*
X147525111Y-43737360D01*
X147467968Y-43623074D01*
X147467968Y-43508788D01*
X147525111Y-43394502D01*
X147582254Y-43337360D01*
X147696540Y-43280217D01*
X147982254Y-43280217D01*
X148153682Y-43337360D01*
X148496540Y-43280217D02*
X149182254Y-43280217D01*
X148839397Y-44480217D02*
X148839397Y-43280217D01*
X149525111Y-44423074D02*
X149696540Y-44480217D01*
X149982254Y-44480217D01*
X150096540Y-44423074D01*
X150153682Y-44365931D01*
X150210825Y-44251645D01*
X150210825Y-44137360D01*
X150153682Y-44023074D01*
X150096540Y-43965931D01*
X149982254Y-43908788D01*
X149753682Y-43851645D01*
X149639397Y-43794502D01*
X149582254Y-43737360D01*
X149525111Y-43623074D01*
X149525111Y-43508788D01*
X149582254Y-43394502D01*
X149639397Y-43337360D01*
X149753682Y-43280217D01*
X150039397Y-43280217D01*
X150210825Y-43337360D01*
X136296540Y-46812217D02*
X136010825Y-46812217D01*
X136010825Y-45097931D01*
X136296540Y-45097931D01*
X137439397Y-46297931D02*
X137382254Y-46355074D01*
X137210825Y-46412217D01*
X137096540Y-46412217D01*
X136925111Y-46355074D01*
X136810825Y-46240788D01*
X136753682Y-46126502D01*
X136696540Y-45897931D01*
X136696540Y-45726502D01*
X136753682Y-45497931D01*
X136810825Y-45383645D01*
X136925111Y-45269360D01*
X137096540Y-45212217D01*
X137210825Y-45212217D01*
X137382254Y-45269360D01*
X137439397Y-45326502D01*
X138182254Y-45212217D02*
X138410825Y-45212217D01*
X138525111Y-45269360D01*
X138639397Y-45383645D01*
X138696540Y-45612217D01*
X138696540Y-46012217D01*
X138639397Y-46240788D01*
X138525111Y-46355074D01*
X138410825Y-46412217D01*
X138182254Y-46412217D01*
X138067968Y-46355074D01*
X137953682Y-46240788D01*
X137896540Y-46012217D01*
X137896540Y-45612217D01*
X137953682Y-45383645D01*
X138067968Y-45269360D01*
X138182254Y-45212217D01*
X139610825Y-45783645D02*
X139782254Y-45840788D01*
X139839397Y-45897931D01*
X139896540Y-46012217D01*
X139896540Y-46183645D01*
X139839397Y-46297931D01*
X139782254Y-46355074D01*
X139667968Y-46412217D01*
X139210825Y-46412217D01*
X139210825Y-45212217D01*
X139610825Y-45212217D01*
X139725111Y-45269360D01*
X139782254Y-45326502D01*
X139839397Y-45440788D01*
X139839397Y-45555074D01*
X139782254Y-45669360D01*
X139725111Y-45726502D01*
X139610825Y-45783645D01*
X139210825Y-45783645D01*
X141096540Y-46297931D02*
X141039397Y-46355074D01*
X140867968Y-46412217D01*
X140753682Y-46412217D01*
X140582254Y-46355074D01*
X140467968Y-46240788D01*
X140410825Y-46126502D01*
X140353682Y-45897931D01*
X140353682Y-45726502D01*
X140410825Y-45497931D01*
X140467968Y-45383645D01*
X140582254Y-45269360D01*
X140753682Y-45212217D01*
X140867968Y-45212217D01*
X141039397Y-45269360D01*
X141096540Y-45326502D01*
X141496540Y-46812217D02*
X141782254Y-46812217D01*
X141782254Y-45097931D01*
X141496540Y-45097931D01*
X137639397Y-48744217D02*
X137353682Y-48744217D01*
X137353682Y-47029931D01*
X137639397Y-47029931D01*
X137925111Y-47144217D02*
X138325111Y-48344217D01*
X138725111Y-47144217D01*
X139067968Y-47258502D02*
X139125111Y-47201360D01*
X139239397Y-47144217D01*
X139525111Y-47144217D01*
X139639397Y-47201360D01*
X139696540Y-47258502D01*
X139753682Y-47372788D01*
X139753682Y-47487074D01*
X139696540Y-47658502D01*
X139010825Y-48344217D01*
X139753682Y-48344217D01*
X140153682Y-48744217D02*
X140439397Y-48744217D01*
X140439397Y-47029931D01*
X140153682Y-47029931D01*
X145706825Y-49962857D02*
X145706825Y-48762857D01*
X146278254Y-49962857D02*
X146278254Y-48762857D01*
X146563968Y-48762857D01*
X146735397Y-48820000D01*
X146849682Y-48934285D01*
X146906825Y-49048571D01*
X146963968Y-49277142D01*
X146963968Y-49448571D01*
X146906825Y-49677142D01*
X146849682Y-49791428D01*
X146735397Y-49905714D01*
X146563968Y-49962857D01*
X146278254Y-49962857D01*
X147478254Y-49848571D02*
X147535397Y-49905714D01*
X147478254Y-49962857D01*
X147421111Y-49905714D01*
X147478254Y-49848571D01*
X147478254Y-49962857D01*
X147478254Y-49220000D02*
X147535397Y-49277142D01*
X147478254Y-49334285D01*
X147421111Y-49277142D01*
X147478254Y-49220000D01*
X147478254Y-49334285D01*
D11*
X139122540Y-91404288D02*
X139122540Y-91642384D01*
X138884444Y-91547146D02*
X139122540Y-91642384D01*
X139360635Y-91547146D01*
X138979682Y-91832860D02*
X139122540Y-91642384D01*
X139265397Y-91832860D01*
G36*
X169053662Y-43446419D02*
G01*
X169066726Y-43449663D01*
X169068171Y-43451484D01*
X169063980Y-43460258D01*
X169052414Y-43481637D01*
X169034613Y-43513586D01*
X169011719Y-43554074D01*
X168984871Y-43601068D01*
X168960221Y-43643871D01*
X168923296Y-43707359D01*
X168893141Y-43757614D01*
X168868254Y-43796179D01*
X168847132Y-43824597D01*
X168828271Y-43844410D01*
X168810170Y-43857160D01*
X168791324Y-43864390D01*
X168770232Y-43867642D01*
X168745390Y-43868459D01*
X168741388Y-43868467D01*
X168712222Y-43868075D01*
X168696118Y-43865884D01*
X168689209Y-43860372D01*
X168687625Y-43850016D01*
X168687607Y-43847300D01*
X168689415Y-43833744D01*
X168697994Y-43827662D01*
X168718074Y-43826147D01*
X168722030Y-43826134D01*
X168756415Y-43822814D01*
X168780744Y-43810613D01*
X168800971Y-43786169D01*
X168805279Y-43779124D01*
X168823283Y-43748611D01*
X168775389Y-43666722D01*
X168750202Y-43623678D01*
X168722687Y-43576680D01*
X168697190Y-43533157D01*
X168686537Y-43514984D01*
X168645580Y-43445134D01*
X168685644Y-43445171D01*
X168725707Y-43445208D01*
X168792294Y-43564145D01*
X168814822Y-43604002D01*
X168834370Y-43637860D01*
X168849515Y-43663313D01*
X168858834Y-43677956D01*
X168861108Y-43680524D01*
X168865801Y-43672647D01*
X168877310Y-43652561D01*
X168894177Y-43622829D01*
X168914946Y-43586017D01*
X168928701Y-43561550D01*
X168994067Y-43445134D01*
X169031337Y-43445134D01*
X169053662Y-43446419D01*
G37*
D13*
X169053662Y-43446419D02*
X169066726Y-43449663D01*
X169068171Y-43451484D01*
X169063980Y-43460258D01*
X169052414Y-43481637D01*
X169034613Y-43513586D01*
X169011719Y-43554074D01*
X168984871Y-43601068D01*
X168960221Y-43643871D01*
X168923296Y-43707359D01*
X168893141Y-43757614D01*
X168868254Y-43796179D01*
X168847132Y-43824597D01*
X168828271Y-43844410D01*
X168810170Y-43857160D01*
X168791324Y-43864390D01*
X168770232Y-43867642D01*
X168745390Y-43868459D01*
X168741388Y-43868467D01*
X168712222Y-43868075D01*
X168696118Y-43865884D01*
X168689209Y-43860372D01*
X168687625Y-43850016D01*
X168687607Y-43847300D01*
X168689415Y-43833744D01*
X168697994Y-43827662D01*
X168718074Y-43826147D01*
X168722030Y-43826134D01*
X168756415Y-43822814D01*
X168780744Y-43810613D01*
X168800971Y-43786169D01*
X168805279Y-43779124D01*
X168823283Y-43748611D01*
X168775389Y-43666722D01*
X168750202Y-43623678D01*
X168722687Y-43576680D01*
X168697190Y-43533157D01*
X168686537Y-43514984D01*
X168645580Y-43445134D01*
X168685644Y-43445171D01*
X168725707Y-43445208D01*
X168792294Y-43564145D01*
X168814822Y-43604002D01*
X168834370Y-43637860D01*
X168849515Y-43663313D01*
X168858834Y-43677956D01*
X168861108Y-43680524D01*
X168865801Y-43672647D01*
X168877310Y-43652561D01*
X168894177Y-43622829D01*
X168914946Y-43586017D01*
X168928701Y-43561550D01*
X168994067Y-43445134D01*
X169031337Y-43445134D01*
X169053662Y-43446419D01*
G36*
X169311761Y-48616573D02*
G01*
X169328216Y-48633543D01*
X169334753Y-48655687D01*
X169329029Y-48677985D01*
X169323040Y-48685567D01*
X169298771Y-48700773D01*
X169272612Y-48699197D01*
X169261224Y-48693789D01*
X169248501Y-48678093D01*
X169246516Y-48656388D01*
X169253544Y-48634132D01*
X169267864Y-48616784D01*
X169287727Y-48609800D01*
X169311761Y-48616573D01*
G37*
X169311761Y-48616573D02*
X169328216Y-48633543D01*
X169334753Y-48655687D01*
X169329029Y-48677985D01*
X169323040Y-48685567D01*
X169298771Y-48700773D01*
X169272612Y-48699197D01*
X169261224Y-48693789D01*
X169248501Y-48678093D01*
X169246516Y-48656388D01*
X169253544Y-48634132D01*
X169267864Y-48616784D01*
X169287727Y-48609800D01*
X169311761Y-48616573D01*
G36*
X174652130Y-48952700D02*
G01*
X174675189Y-48981937D01*
X174694175Y-49005460D01*
X174706852Y-49020532D01*
X174710958Y-49024667D01*
X174716805Y-49018349D01*
X174730572Y-49001259D01*
X174750043Y-48976191D01*
X174767648Y-48953059D01*
X174821707Y-48881451D01*
X174866712Y-48881092D01*
X174911717Y-48880734D01*
X174844678Y-48967517D01*
X174811868Y-49009457D01*
X174788172Y-49040509D01*
X174773377Y-49063918D01*
X174767266Y-49082927D01*
X174769627Y-49100780D01*
X174780245Y-49120721D01*
X174798905Y-49145995D01*
X174825393Y-49179846D01*
X174830232Y-49186128D01*
X174857415Y-49221561D01*
X174881341Y-49252709D01*
X174899913Y-49276843D01*
X174911030Y-49291234D01*
X174912788Y-49293484D01*
X174914003Y-49299708D01*
X174903459Y-49302924D01*
X174878718Y-49303811D01*
X174875660Y-49303800D01*
X174830174Y-49303532D01*
X174771196Y-49223270D01*
X174747718Y-49192123D01*
X174727650Y-49167001D01*
X174713152Y-49150506D01*
X174706436Y-49145220D01*
X174699274Y-49152430D01*
X174684131Y-49170375D01*
X174663264Y-49196307D01*
X174640263Y-49225750D01*
X174579873Y-49304067D01*
X174494587Y-49304067D01*
X174511324Y-49280784D01*
X174522811Y-49265262D01*
X174542049Y-49239753D01*
X174566445Y-49207677D01*
X174593405Y-49172456D01*
X174595927Y-49169173D01*
X174663793Y-49080847D01*
X174595223Y-48991373D01*
X174569102Y-48957282D01*
X174546290Y-48927494D01*
X174528984Y-48904880D01*
X174519380Y-48892308D01*
X174518626Y-48891317D01*
X174517635Y-48884909D01*
X174528735Y-48881628D01*
X174553267Y-48880734D01*
X174595935Y-48880734D01*
X174652130Y-48952700D01*
G37*
X174652130Y-48952700D02*
X174675189Y-48981937D01*
X174694175Y-49005460D01*
X174706852Y-49020532D01*
X174710958Y-49024667D01*
X174716805Y-49018349D01*
X174730572Y-49001259D01*
X174750043Y-48976191D01*
X174767648Y-48953059D01*
X174821707Y-48881451D01*
X174866712Y-48881092D01*
X174911717Y-48880734D01*
X174844678Y-48967517D01*
X174811868Y-49009457D01*
X174788172Y-49040509D01*
X174773377Y-49063918D01*
X174767266Y-49082927D01*
X174769627Y-49100780D01*
X174780245Y-49120721D01*
X174798905Y-49145995D01*
X174825393Y-49179846D01*
X174830232Y-49186128D01*
X174857415Y-49221561D01*
X174881341Y-49252709D01*
X174899913Y-49276843D01*
X174911030Y-49291234D01*
X174912788Y-49293484D01*
X174914003Y-49299708D01*
X174903459Y-49302924D01*
X174878718Y-49303811D01*
X174875660Y-49303800D01*
X174830174Y-49303532D01*
X174771196Y-49223270D01*
X174747718Y-49192123D01*
X174727650Y-49167001D01*
X174713152Y-49150506D01*
X174706436Y-49145220D01*
X174699274Y-49152430D01*
X174684131Y-49170375D01*
X174663264Y-49196307D01*
X174640263Y-49225750D01*
X174579873Y-49304067D01*
X174494587Y-49304067D01*
X174511324Y-49280784D01*
X174522811Y-49265262D01*
X174542049Y-49239753D01*
X174566445Y-49207677D01*
X174593405Y-49172456D01*
X174595927Y-49169173D01*
X174663793Y-49080847D01*
X174595223Y-48991373D01*
X174569102Y-48957282D01*
X174546290Y-48927494D01*
X174528984Y-48904880D01*
X174519380Y-48892308D01*
X174518626Y-48891317D01*
X174517635Y-48884909D01*
X174528735Y-48881628D01*
X174553267Y-48880734D01*
X174595935Y-48880734D01*
X174652130Y-48952700D01*
G36*
X169017807Y-48964178D02*
G01*
X169017326Y-48974614D01*
X169014936Y-48984552D01*
X169009216Y-48995612D01*
X168998744Y-49009410D01*
X168982098Y-49027565D01*
X168957857Y-49051693D01*
X168924600Y-49083412D01*
X168880905Y-49124341D01*
X168859712Y-49144095D01*
X168701617Y-49291367D01*
X168859712Y-49293670D01*
X169017807Y-49295974D01*
X169017807Y-49354867D01*
X168594474Y-49354867D01*
X168594474Y-49322222D01*
X168594954Y-49311787D01*
X168597344Y-49301849D01*
X168603064Y-49290790D01*
X168613535Y-49276993D01*
X168630180Y-49258841D01*
X168654420Y-49234715D01*
X168687677Y-49202998D01*
X168731371Y-49162073D01*
X168752580Y-49142306D01*
X168910687Y-48995034D01*
X168758930Y-48990800D01*
X168607174Y-48986567D01*
X168604520Y-48959050D01*
X168601867Y-48931534D01*
X169017807Y-48931534D01*
X169017807Y-48964178D01*
G37*
X169017807Y-48964178D02*
X169017326Y-48974614D01*
X169014936Y-48984552D01*
X169009216Y-48995612D01*
X168998744Y-49009410D01*
X168982098Y-49027565D01*
X168957857Y-49051693D01*
X168924600Y-49083412D01*
X168880905Y-49124341D01*
X168859712Y-49144095D01*
X168701617Y-49291367D01*
X168859712Y-49293670D01*
X169017807Y-49295974D01*
X169017807Y-49354867D01*
X168594474Y-49354867D01*
X168594474Y-49322222D01*
X168594954Y-49311787D01*
X168597344Y-49301849D01*
X168603064Y-49290790D01*
X168613535Y-49276993D01*
X168630180Y-49258841D01*
X168654420Y-49234715D01*
X168687677Y-49202998D01*
X168731371Y-49162073D01*
X168752580Y-49142306D01*
X168910687Y-48995034D01*
X168758930Y-48990800D01*
X168607174Y-48986567D01*
X168604520Y-48959050D01*
X168601867Y-48931534D01*
X169017807Y-48931534D01*
X169017807Y-48964178D01*
G36*
X169022242Y-48660600D02*
G01*
X169023481Y-48617687D01*
X169027914Y-48585507D01*
X169036535Y-48558002D01*
X169040639Y-48548548D01*
X169068111Y-48503833D01*
X169106164Y-48462089D01*
X169149798Y-48428069D01*
X169187670Y-48408728D01*
X169233707Y-48391554D01*
X169235840Y-46312340D01*
X169237974Y-44233126D01*
X169071128Y-44228300D01*
X169158267Y-43893867D01*
X169183336Y-43797663D01*
X169204483Y-43716570D01*
X169222057Y-43649312D01*
X169236408Y-43594612D01*
X169247883Y-43551197D01*
X169256831Y-43517789D01*
X169263603Y-43493114D01*
X169268546Y-43475895D01*
X169272009Y-43464858D01*
X169274342Y-43458726D01*
X169275892Y-43456225D01*
X169277010Y-43456077D01*
X169277809Y-43456780D01*
X169280767Y-43465498D01*
X169287704Y-43488931D01*
X169298161Y-43525452D01*
X169311684Y-43573434D01*
X169327814Y-43631249D01*
X169346098Y-43697270D01*
X169366077Y-43769870D01*
X169385343Y-43840267D01*
X169488957Y-44219834D01*
X169401548Y-44222237D01*
X169314140Y-44224640D01*
X169314140Y-48387782D01*
X169345496Y-48393665D01*
X169402140Y-48412457D01*
X169454325Y-48445116D01*
X169499049Y-48488642D01*
X169533310Y-48540030D01*
X169554108Y-48596279D01*
X169555689Y-48603918D01*
X169561558Y-48635200D01*
X173708340Y-48635200D01*
X173708340Y-48550534D01*
X173708931Y-48514956D01*
X173710523Y-48486688D01*
X173712848Y-48469330D01*
X173714690Y-48465594D01*
X173725857Y-48467533D01*
X173750940Y-48473311D01*
X173788001Y-48482413D01*
X173835102Y-48494322D01*
X173890306Y-48508523D01*
X173951676Y-48524498D01*
X174017274Y-48541732D01*
X174085161Y-48559709D01*
X174153402Y-48577912D01*
X174220057Y-48595826D01*
X174283190Y-48612933D01*
X174340863Y-48628719D01*
X174391138Y-48642666D01*
X174432078Y-48654259D01*
X174461746Y-48662981D01*
X174478202Y-48668316D01*
X174480904Y-48669718D01*
X174471663Y-48673041D01*
X174447736Y-48680283D01*
X174410792Y-48690975D01*
X174362500Y-48704647D01*
X174304529Y-48720830D01*
X174238548Y-48739054D01*
X174166226Y-48758849D01*
X174106274Y-48775136D01*
X174029995Y-48795810D01*
X173958605Y-48815199D01*
X173893794Y-48832840D01*
X173837253Y-48848271D01*
X173790674Y-48861030D01*
X173755748Y-48870655D01*
X173734166Y-48876683D01*
X173727695Y-48878587D01*
X173722623Y-48875368D01*
X173718962Y-48860280D01*
X173716445Y-48831556D01*
X173714995Y-48794739D01*
X173712574Y-48707167D01*
X171637264Y-48705033D01*
X169561955Y-48702900D01*
X169542934Y-48755067D01*
X169515019Y-48808769D01*
X169474026Y-48856802D01*
X169423739Y-48895061D01*
X169404247Y-48905574D01*
X169365562Y-48918817D01*
X169318628Y-48927021D01*
X169270922Y-48929412D01*
X169229916Y-48925218D01*
X169225240Y-48924089D01*
X169164296Y-48899466D01*
X169110117Y-48860535D01*
X169065255Y-48809384D01*
X169045442Y-48776734D01*
X169033487Y-48751462D01*
X169026460Y-48728075D01*
X169023124Y-48700385D01*
X169022571Y-48676381D01*
X169088080Y-48676381D01*
X169098585Y-48726722D01*
X169122062Y-48772963D01*
X169157784Y-48812610D01*
X169205022Y-48843169D01*
X169237885Y-48855889D01*
X169280018Y-48862631D01*
X169328025Y-48857955D01*
X169345903Y-48853914D01*
X169383429Y-48837633D01*
X169420836Y-48809943D01*
X169453500Y-48775343D01*
X169476796Y-48738332D01*
X169483593Y-48719933D01*
X169491319Y-48661749D01*
X169484151Y-48606777D01*
X169463626Y-48557261D01*
X169431281Y-48515444D01*
X169388655Y-48483569D01*
X169337284Y-48463879D01*
X169304726Y-48458971D01*
X169249839Y-48460880D01*
X169202939Y-48476235D01*
X169160567Y-48506450D01*
X169141662Y-48525711D01*
X169108891Y-48573381D01*
X169091272Y-48624436D01*
X169088080Y-48676381D01*
X169022571Y-48676381D01*
X169022243Y-48662207D01*
X169022242Y-48660600D01*
G37*
X169022242Y-48660600D02*
X169023481Y-48617687D01*
X169027914Y-48585507D01*
X169036535Y-48558002D01*
X169040639Y-48548548D01*
X169068111Y-48503833D01*
X169106164Y-48462089D01*
X169149798Y-48428069D01*
X169187670Y-48408728D01*
X169233707Y-48391554D01*
X169235840Y-46312340D01*
X169237974Y-44233126D01*
X169071128Y-44228300D01*
X169158267Y-43893867D01*
X169183336Y-43797663D01*
X169204483Y-43716570D01*
X169222057Y-43649312D01*
X169236408Y-43594612D01*
X169247883Y-43551197D01*
X169256831Y-43517789D01*
X169263603Y-43493114D01*
X169268546Y-43475895D01*
X169272009Y-43464858D01*
X169274342Y-43458726D01*
X169275892Y-43456225D01*
X169277010Y-43456077D01*
X169277809Y-43456780D01*
X169280767Y-43465498D01*
X169287704Y-43488931D01*
X169298161Y-43525452D01*
X169311684Y-43573434D01*
X169327814Y-43631249D01*
X169346098Y-43697270D01*
X169366077Y-43769870D01*
X169385343Y-43840267D01*
X169488957Y-44219834D01*
X169401548Y-44222237D01*
X169314140Y-44224640D01*
X169314140Y-48387782D01*
X169345496Y-48393665D01*
X169402140Y-48412457D01*
X169454325Y-48445116D01*
X169499049Y-48488642D01*
X169533310Y-48540030D01*
X169554108Y-48596279D01*
X169555689Y-48603918D01*
X169561558Y-48635200D01*
X173708340Y-48635200D01*
X173708340Y-48550534D01*
X173708931Y-48514956D01*
X173710523Y-48486688D01*
X173712848Y-48469330D01*
X173714690Y-48465594D01*
X173725857Y-48467533D01*
X173750940Y-48473311D01*
X173788001Y-48482413D01*
X173835102Y-48494322D01*
X173890306Y-48508523D01*
X173951676Y-48524498D01*
X174017274Y-48541732D01*
X174085161Y-48559709D01*
X174153402Y-48577912D01*
X174220057Y-48595826D01*
X174283190Y-48612933D01*
X174340863Y-48628719D01*
X174391138Y-48642666D01*
X174432078Y-48654259D01*
X174461746Y-48662981D01*
X174478202Y-48668316D01*
X174480904Y-48669718D01*
X174471663Y-48673041D01*
X174447736Y-48680283D01*
X174410792Y-48690975D01*
X174362500Y-48704647D01*
X174304529Y-48720830D01*
X174238548Y-48739054D01*
X174166226Y-48758849D01*
X174106274Y-48775136D01*
X174029995Y-48795810D01*
X173958605Y-48815199D01*
X173893794Y-48832840D01*
X173837253Y-48848271D01*
X173790674Y-48861030D01*
X173755748Y-48870655D01*
X173734166Y-48876683D01*
X173727695Y-48878587D01*
X173722623Y-48875368D01*
X173718962Y-48860280D01*
X173716445Y-48831556D01*
X173714995Y-48794739D01*
X173712574Y-48707167D01*
X171637264Y-48705033D01*
X169561955Y-48702900D01*
X169542934Y-48755067D01*
X169515019Y-48808769D01*
X169474026Y-48856802D01*
X169423739Y-48895061D01*
X169404247Y-48905574D01*
X169365562Y-48918817D01*
X169318628Y-48927021D01*
X169270922Y-48929412D01*
X169229916Y-48925218D01*
X169225240Y-48924089D01*
X169164296Y-48899466D01*
X169110117Y-48860535D01*
X169065255Y-48809384D01*
X169045442Y-48776734D01*
X169033487Y-48751462D01*
X169026460Y-48728075D01*
X169023124Y-48700385D01*
X169022571Y-48676381D01*
X169088080Y-48676381D01*
X169098585Y-48726722D01*
X169122062Y-48772963D01*
X169157784Y-48812610D01*
X169205022Y-48843169D01*
X169237885Y-48855889D01*
X169280018Y-48862631D01*
X169328025Y-48857955D01*
X169345903Y-48853914D01*
X169383429Y-48837633D01*
X169420836Y-48809943D01*
X169453500Y-48775343D01*
X169476796Y-48738332D01*
X169483593Y-48719933D01*
X169491319Y-48661749D01*
X169484151Y-48606777D01*
X169463626Y-48557261D01*
X169431281Y-48515444D01*
X169388655Y-48483569D01*
X169337284Y-48463879D01*
X169304726Y-48458971D01*
X169249839Y-48460880D01*
X169202939Y-48476235D01*
X169160567Y-48506450D01*
X169141662Y-48525711D01*
X169108891Y-48573381D01*
X169091272Y-48624436D01*
X169088080Y-48676381D01*
X169022571Y-48676381D01*
X169022243Y-48662207D01*
X169022242Y-48660600D01*
D14*
X194632540Y-63240000D02*
X195692540Y-63240000D01*
X193632540Y-63240000D02*
X193632540Y-65300000D01*
X191572540Y-63240000D02*
X193632540Y-63240000D01*
X191572540Y-63240000D02*
X191572540Y-113360000D01*
X195692540Y-65300000D02*
X195692540Y-113360000D01*
X193632540Y-65300000D02*
X195692540Y-65300000D01*
X191572540Y-113360000D02*
X195692540Y-113360000D01*
X195692540Y-63240000D02*
X195692540Y-64300000D01*
X119500000Y-63240000D02*
X119500000Y-65300000D01*
X117440000Y-63240000D02*
X119500000Y-63240000D01*
X121560000Y-65300000D02*
X121560000Y-113360000D01*
X119500000Y-65300000D02*
X121560000Y-65300000D01*
X121560000Y-63240000D02*
X121560000Y-64300000D01*
X117440000Y-113360000D02*
X121560000Y-113360000D01*
X120500000Y-63240000D02*
X121560000Y-63240000D01*
X117440000Y-63240000D02*
X117440000Y-113360000D01*
X149640376Y-45960000D02*
X149424704Y-45960000D01*
X149640376Y-45240000D02*
X149424704Y-45240000D01*
X128973792Y-74050000D02*
X127551288Y-74050000D01*
X128973792Y-72230000D02*
X127551288Y-72230000D01*
X155412540Y-103930000D02*
X155412540Y-100230000D01*
X155412540Y-100230000D02*
X150112540Y-100230000D01*
X148993792Y-60065000D02*
X148471288Y-60065000D01*
X148993792Y-61535000D02*
X148471288Y-61535000D01*
X153067540Y-110727064D02*
X153067540Y-110272936D01*
X151597540Y-110727064D02*
X151597540Y-110272936D01*
X141724704Y-50740000D02*
X141940376Y-50740000D01*
X141724704Y-51460000D02*
X141940376Y-51460000D01*
X136292540Y-76099420D02*
X136292540Y-76380580D01*
X137312540Y-76099420D02*
X137312540Y-76380580D01*
X179871288Y-53365000D02*
X180393792Y-53365000D01*
X179871288Y-54835000D02*
X180393792Y-54835000D01*
X160372540Y-44507836D02*
X160372540Y-44292164D01*
X161092540Y-44507836D02*
X161092540Y-44292164D01*
X134372540Y-83280000D02*
X134372540Y-82630000D01*
X137492540Y-83280000D02*
X137492540Y-82630000D01*
X137492540Y-83280000D02*
X137492540Y-83930000D01*
X134372540Y-83280000D02*
X134372540Y-84955000D01*
X135031960Y-72220000D02*
X135313120Y-72220000D01*
X135031960Y-73240000D02*
X135313120Y-73240000D01*
X171667540Y-117468748D02*
X171667540Y-117991252D01*
X173137540Y-117468748D02*
X173137540Y-117991252D01*
X125705040Y-73057258D02*
X125705040Y-72582742D01*
X124660040Y-73057258D02*
X124660040Y-72582742D01*
X163943792Y-98165000D02*
X163421288Y-98165000D01*
X163943792Y-99635000D02*
X163421288Y-99635000D01*
X156032540Y-61100000D02*
G75*
G03*
X156032540Y-61100000I-500000J0D01*
G01*
X140072540Y-45107836D02*
X140072540Y-44892164D01*
X140792540Y-45107836D02*
X140792540Y-44892164D01*
D12*
X135132540Y-101085000D02*
X136782540Y-101085000D01*
X137132540Y-101050000D02*
X142132540Y-101050000D01*
X137132540Y-106280000D02*
X137132540Y-101050000D01*
X142132540Y-101050000D02*
X142132540Y-106280000D01*
X142132540Y-106280000D02*
X137132540Y-106280000D01*
D14*
X176793792Y-56935000D02*
X176271288Y-56935000D01*
X176793792Y-55465000D02*
X176271288Y-55465000D01*
X160010040Y-58262742D02*
X160010040Y-58737258D01*
X161055040Y-58262742D02*
X161055040Y-58737258D01*
X149124704Y-54940000D02*
X149340376Y-54940000D01*
X149124704Y-55660000D02*
X149340376Y-55660000D01*
X134637540Y-79228748D02*
X134637540Y-79751252D01*
X136107540Y-79228748D02*
X136107540Y-79751252D01*
X159202540Y-119600000D02*
X159202540Y-118270000D01*
X159202540Y-120870000D02*
X161862540Y-120870000D01*
X161862540Y-120870000D02*
X161862540Y-120930000D01*
X159202540Y-118270000D02*
X160532540Y-118270000D01*
X159202540Y-120930000D02*
X161862540Y-120930000D01*
X159202540Y-120870000D02*
X159202540Y-120930000D01*
X152905476Y-113935000D02*
X153359604Y-113935000D01*
X152905476Y-112465000D02*
X153359604Y-112465000D01*
X138072540Y-46892164D02*
X138072540Y-47107836D01*
X138792540Y-46892164D02*
X138792540Y-47107836D01*
X161855040Y-64937258D02*
X161855040Y-64462742D01*
X160810040Y-64937258D02*
X160810040Y-64462742D01*
X153802540Y-119600000D02*
X153802540Y-118270000D01*
X153802540Y-118270000D02*
X155132540Y-118270000D01*
X156462540Y-120870000D02*
X156462540Y-120930000D01*
X153802540Y-120930000D02*
X156462540Y-120930000D01*
X153802540Y-120870000D02*
X156462540Y-120870000D01*
X153802540Y-120870000D02*
X153802540Y-120930000D01*
X143440376Y-52940000D02*
X143224704Y-52940000D01*
X143440376Y-53660000D02*
X143224704Y-53660000D01*
X161940376Y-52640000D02*
X161724704Y-52640000D01*
X161940376Y-53360000D02*
X161724704Y-53360000D01*
X157092540Y-45207836D02*
X157092540Y-44992164D01*
X156372540Y-45207836D02*
X156372540Y-44992164D01*
X173727540Y-116988748D02*
X173727540Y-117511252D01*
X175197540Y-116988748D02*
X175197540Y-117511252D01*
D15*
X135357540Y-108620000D02*
G75*
G03*
X135357540Y-108620000I-125000J0D01*
G01*
D14*
X162972540Y-53392164D02*
X162972540Y-53607836D01*
X163692540Y-53392164D02*
X163692540Y-53607836D01*
X138191288Y-74395000D02*
X138713792Y-74395000D01*
X138191288Y-72925000D02*
X138713792Y-72925000D01*
X176793792Y-53365000D02*
X176271288Y-53365000D01*
X176793792Y-54835000D02*
X176271288Y-54835000D01*
X151197540Y-55635000D02*
X151197540Y-55160000D01*
X155417540Y-51415000D02*
X155417540Y-51890000D01*
X151197540Y-51415000D02*
X151197540Y-51890000D01*
X154942540Y-55635000D02*
X155417540Y-55635000D01*
X151672540Y-55635000D02*
X151197540Y-55635000D01*
X154942540Y-51415000D02*
X155417540Y-51415000D01*
X151672540Y-51415000D02*
X151197540Y-51415000D01*
X136740376Y-50940000D02*
X136524704Y-50940000D01*
X136740376Y-51660000D02*
X136524704Y-51660000D01*
X159340376Y-46260000D02*
X159124704Y-46260000D01*
X159340376Y-45540000D02*
X159124704Y-45540000D01*
X154362540Y-91330000D02*
X154362540Y-88670000D01*
X156792540Y-88700000D02*
X159492540Y-88700000D01*
X154362540Y-91330000D02*
X159502540Y-91330000D01*
X154362540Y-86100000D02*
X156792540Y-86100000D01*
X154362540Y-88670000D02*
X154362540Y-86100000D01*
X159502540Y-91330000D02*
X159502540Y-88670000D01*
X156792540Y-86100000D02*
X156792540Y-88700000D01*
X150242540Y-57137221D02*
X150242540Y-57462779D01*
X149222540Y-57137221D02*
X149222540Y-57462779D01*
X159324704Y-65840000D02*
X159540376Y-65840000D01*
X159324704Y-66560000D02*
X159540376Y-66560000D01*
X156210040Y-71562742D02*
X156210040Y-72037258D01*
X157255040Y-71562742D02*
X157255040Y-72037258D01*
X176793792Y-59665000D02*
X176271288Y-59665000D01*
X176793792Y-61135000D02*
X176271288Y-61135000D01*
X159655040Y-61362742D02*
X159655040Y-61837258D01*
X158610040Y-61362742D02*
X158610040Y-61837258D01*
X155737540Y-105958748D02*
X155737540Y-106481252D01*
X157207540Y-105958748D02*
X157207540Y-106481252D01*
X152692540Y-57307836D02*
X152692540Y-57092164D01*
X151972540Y-57307836D02*
X151972540Y-57092164D01*
X145692540Y-112235000D02*
X148352540Y-112235000D01*
X148322540Y-114665000D02*
X148322540Y-117365000D01*
X145692540Y-117375000D02*
X148352540Y-117375000D01*
X145692540Y-112235000D02*
X145692540Y-117375000D01*
X150922540Y-112235000D02*
X150922540Y-114665000D01*
X148352540Y-112235000D02*
X150922540Y-112235000D01*
X150922540Y-114665000D02*
X148322540Y-114665000D01*
X150992540Y-61990000D02*
X144232540Y-61990000D01*
X150992540Y-65410000D02*
X150992540Y-61990000D01*
X144232540Y-65410000D02*
X150992540Y-65410000D01*
X156495282Y-66377500D02*
X156969798Y-66377500D01*
X156495282Y-67422500D02*
X156969798Y-67422500D01*
X150069798Y-70522500D02*
X149595282Y-70522500D01*
X150069798Y-69477500D02*
X149595282Y-69477500D01*
X158469798Y-59822500D02*
X157995282Y-59822500D01*
X158469798Y-58777500D02*
X157995282Y-58777500D01*
X177340376Y-51140000D02*
X177124704Y-51140000D01*
X177340376Y-51860000D02*
X177124704Y-51860000D01*
X141347540Y-94720436D02*
X141347540Y-95174564D01*
X139877540Y-94720436D02*
X139877540Y-95174564D01*
X138040376Y-48140000D02*
X137824704Y-48140000D01*
X138040376Y-48860000D02*
X137824704Y-48860000D01*
X130132540Y-47794800D02*
X132132540Y-47794800D01*
X127627340Y-52300000D02*
X127627340Y-50300000D01*
X132132540Y-54805200D02*
X130132540Y-54805200D01*
X134637740Y-50300000D02*
X134637740Y-52300000D01*
X129557540Y-85210000D02*
X129557540Y-83290000D01*
X129557540Y-83290000D02*
X126872540Y-83290000D01*
X126872540Y-85210000D02*
X129557540Y-85210000D01*
X138348176Y-93082208D02*
X139896904Y-93082208D01*
X139896904Y-90821608D02*
X138348176Y-90821608D01*
X151497540Y-63538748D02*
X151497540Y-64061252D01*
X152967540Y-63538748D02*
X152967540Y-64061252D01*
X143040376Y-45140000D02*
X142824704Y-45140000D01*
X143040376Y-45860000D02*
X142824704Y-45860000D01*
X155140376Y-56340000D02*
X154924704Y-56340000D01*
X155140376Y-57060000D02*
X154924704Y-57060000D01*
X153697540Y-106461252D02*
X153697540Y-105938748D01*
X155167540Y-106461252D02*
X155167540Y-105938748D01*
X135132342Y-77356400D02*
X135598940Y-77356400D01*
X135598940Y-74470259D02*
X135598940Y-74003600D01*
X135598940Y-77356400D02*
X135598940Y-76889741D01*
X132246140Y-76889741D02*
X132246140Y-77356400D01*
X132246140Y-74003600D02*
X132246140Y-74470259D01*
X132712799Y-74003600D02*
X132246140Y-74003600D01*
X135598940Y-74003600D02*
X135132281Y-74003600D01*
X132246140Y-77356400D02*
X132712738Y-77356400D01*
X132081040Y-74410000D02*
G75*
G03*
X132081040Y-74410000I-63500J0D01*
G01*
X130895040Y-81662742D02*
X130895040Y-82137258D01*
X129850040Y-81662742D02*
X129850040Y-82137258D01*
X139552540Y-93282500D02*
X137632540Y-93282500D01*
X139552540Y-95967500D02*
X139552540Y-93282500D01*
X137632540Y-93282500D02*
X137632540Y-95967500D01*
X132899798Y-82082500D02*
X132425282Y-82082500D01*
X132899798Y-81037500D02*
X132425282Y-81037500D01*
X158757540Y-115271252D02*
X158757540Y-114748748D01*
X157287540Y-115271252D02*
X157287540Y-114748748D01*
X177647540Y-50110000D02*
X176922540Y-50110000D01*
X180417540Y-50110000D02*
X181142540Y-50110000D01*
X180417540Y-45890000D02*
X181142540Y-45890000D01*
X176922540Y-50110000D02*
X176922540Y-49385000D01*
X177647540Y-45890000D02*
X176922540Y-45890000D01*
X181142540Y-50110000D02*
X181142540Y-49385000D01*
X181142540Y-45890000D02*
X181142540Y-46615000D01*
X148142540Y-102711252D02*
X148142540Y-102188748D01*
X146672540Y-102711252D02*
X146672540Y-102188748D01*
X131390040Y-79042742D02*
X131390040Y-79517258D01*
X132435040Y-79042742D02*
X132435040Y-79517258D01*
X123514540Y-74481500D02*
X124657540Y-74481500D01*
X124657540Y-74481500D02*
X124657540Y-76513500D01*
X123387540Y-76513500D02*
X123387540Y-74481500D01*
X123387540Y-74291000D02*
X124657540Y-74291000D01*
X124657540Y-76513500D02*
X123387540Y-76513500D01*
X123387540Y-74481500D02*
X123514540Y-74481500D01*
X128902540Y-104870000D02*
X131562540Y-104870000D01*
X128902540Y-103600000D02*
X128902540Y-102270000D01*
X131562540Y-104870000D02*
X131562540Y-104930000D01*
X128902540Y-102270000D02*
X130232540Y-102270000D01*
X128902540Y-104930000D02*
X131562540Y-104930000D01*
X128902540Y-104870000D02*
X128902540Y-104930000D01*
X128902540Y-110870000D02*
X130232540Y-110870000D01*
X128902540Y-113530000D02*
X131562540Y-113530000D01*
X131562540Y-113470000D02*
X131562540Y-113530000D01*
X128902540Y-112200000D02*
X128902540Y-110870000D01*
X128902540Y-113470000D02*
X128902540Y-113530000D01*
X128902540Y-113470000D02*
X131562540Y-113470000D01*
X182540376Y-44560000D02*
X182324704Y-44560000D01*
X182540376Y-43840000D02*
X182324704Y-43840000D01*
X155237540Y-115271252D02*
X155237540Y-114748748D01*
X156707540Y-115271252D02*
X156707540Y-114748748D01*
X132293120Y-73240000D02*
X132011960Y-73240000D01*
X132293120Y-72220000D02*
X132011960Y-72220000D01*
X129850040Y-79112258D02*
X129850040Y-78637742D01*
X130895040Y-79112258D02*
X130895040Y-78637742D01*
X156367140Y-66000000D02*
X154247140Y-66000000D01*
X153447140Y-65200000D02*
X153447140Y-62200000D01*
X156367140Y-62200000D02*
X156367140Y-66000000D01*
X153447140Y-62200000D02*
X156367140Y-62200000D01*
X162692540Y-68700000D02*
X162692540Y-69350000D01*
X159572540Y-68700000D02*
X159572540Y-70375000D01*
X162692540Y-68700000D02*
X162692540Y-68050000D01*
X159572540Y-68700000D02*
X159572540Y-68050000D01*
X155032540Y-70900000D02*
X155432540Y-70900000D01*
X155032540Y-68600000D02*
X155032540Y-68800000D01*
X155032540Y-68600000D02*
X152432540Y-68600000D01*
X152432540Y-71000000D02*
X155032540Y-71000000D01*
X155032540Y-71000000D02*
X155032540Y-70900000D01*
X152432540Y-68600000D02*
X152432540Y-68800000D01*
X152432540Y-70800000D02*
X152432540Y-71000000D01*
X145972540Y-110261252D02*
X145972540Y-109738748D01*
X147442540Y-110261252D02*
X147442540Y-109738748D01*
X143692540Y-51092164D02*
X143692540Y-51307836D01*
X142972540Y-51092164D02*
X142972540Y-51307836D01*
X186532540Y-46750000D02*
X186532540Y-43450000D01*
X183732540Y-46750000D02*
X186532540Y-46750000D01*
X154769798Y-57477500D02*
X154295282Y-57477500D01*
X154769798Y-58522500D02*
X154295282Y-58522500D01*
X151155040Y-72537258D02*
X151155040Y-72062742D01*
X150110040Y-72537258D02*
X150110040Y-72062742D01*
X146569798Y-47377500D02*
X146095282Y-47377500D01*
X146569798Y-48422500D02*
X146095282Y-48422500D01*
X177340376Y-52140000D02*
X177124704Y-52140000D01*
X177340376Y-52860000D02*
X177124704Y-52860000D01*
X168972540Y-53392164D02*
X168972540Y-53607836D01*
X169692540Y-53392164D02*
X169692540Y-53607836D01*
X145155040Y-49962742D02*
X145155040Y-50437258D01*
X144110040Y-49962742D02*
X144110040Y-50437258D01*
X153471288Y-71465000D02*
X153993792Y-71465000D01*
X153471288Y-72935000D02*
X153993792Y-72935000D01*
X183155040Y-54337258D02*
X183155040Y-53862742D01*
X182110040Y-54337258D02*
X182110040Y-53862742D01*
X128902540Y-97970000D02*
X130232540Y-97970000D01*
X128902540Y-99300000D02*
X128902540Y-97970000D01*
X131562540Y-100570000D02*
X131562540Y-100630000D01*
X128902540Y-100630000D02*
X131562540Y-100630000D01*
X128902540Y-100570000D02*
X131562540Y-100570000D01*
X128902540Y-100570000D02*
X128902540Y-100630000D01*
X149340376Y-59660000D02*
X149124704Y-59660000D01*
X149340376Y-58940000D02*
X149124704Y-58940000D01*
D12*
X164057540Y-104075000D02*
X173357540Y-104075000D01*
X173357540Y-113375000D02*
X164057540Y-113375000D01*
X164057540Y-113375000D02*
X164057540Y-104075000D01*
X173357540Y-104075000D02*
X173357540Y-113375000D01*
D15*
X162607540Y-104225000D02*
G75*
G03*
X162607540Y-104225000I-125000J0D01*
G01*
D14*
X157995282Y-57177500D02*
X158469798Y-57177500D01*
X157995282Y-58222500D02*
X158469798Y-58222500D01*
X127472540Y-71620000D02*
X127472540Y-68620000D01*
X127472540Y-59020000D02*
X140072540Y-59020000D01*
X127472540Y-62020000D02*
X127472540Y-59020000D01*
X140072540Y-59020000D02*
X140072540Y-62020000D01*
X140072540Y-71620000D02*
X127472540Y-71620000D01*
X140072540Y-68620000D02*
X140072540Y-71620000D01*
X141997540Y-48761252D02*
X141997540Y-48238748D01*
X143467540Y-48761252D02*
X143467540Y-48238748D01*
X151793792Y-65965000D02*
X151271288Y-65965000D01*
X151793792Y-67435000D02*
X151271288Y-67435000D01*
X145710040Y-50437258D02*
X145710040Y-49962742D01*
X146755040Y-50437258D02*
X146755040Y-49962742D01*
X170940376Y-53360000D02*
X170724704Y-53360000D01*
X170940376Y-52640000D02*
X170724704Y-52640000D01*
X159397540Y-104737064D02*
X159397540Y-104282936D01*
X157927540Y-104737064D02*
X157927540Y-104282936D01*
X163271288Y-117535000D02*
X163793792Y-117535000D01*
X163271288Y-116065000D02*
X163793792Y-116065000D01*
X140322540Y-74540000D02*
X141522540Y-74540000D01*
X141522540Y-72690000D02*
X141522540Y-74540000D01*
X140322540Y-72690000D02*
X140322540Y-74540000D01*
X188667540Y-51961252D02*
X188667540Y-51438748D01*
X187197540Y-51961252D02*
X187197540Y-51438748D01*
X148340376Y-52940000D02*
X148124704Y-52940000D01*
X148340376Y-53660000D02*
X148124704Y-53660000D01*
X124902540Y-109270000D02*
X124902540Y-109330000D01*
X124902540Y-109330000D02*
X127562540Y-109330000D01*
X127562540Y-109270000D02*
X127562540Y-109330000D01*
X124902540Y-106670000D02*
X126232540Y-106670000D01*
X124902540Y-109270000D02*
X127562540Y-109270000D01*
X124902540Y-108000000D02*
X124902540Y-106670000D01*
X129432540Y-74352500D02*
X124912540Y-74352500D01*
X129432540Y-82412500D02*
X129432540Y-74352500D01*
X124912540Y-74352500D02*
X124912540Y-82412500D01*
X177005476Y-109235000D02*
X177459604Y-109235000D01*
X177005476Y-107765000D02*
X177459604Y-107765000D01*
X176287540Y-103888748D02*
X176287540Y-104411252D01*
X177757540Y-103888748D02*
X177757540Y-104411252D01*
X141334240Y-52461800D02*
X141651740Y-52461800D01*
X141651740Y-52461800D02*
X141651740Y-53046000D01*
X152292540Y-45207836D02*
X152292540Y-44992164D01*
X151572540Y-45207836D02*
X151572540Y-44992164D01*
X157595282Y-70022500D02*
X158069798Y-70022500D01*
X157595282Y-68977500D02*
X158069798Y-68977500D01*
X129862540Y-75704420D02*
X129862540Y-75985580D01*
X130882540Y-75704420D02*
X130882540Y-75985580D01*
X157955040Y-64637258D02*
X157955040Y-64162742D01*
X156910040Y-64637258D02*
X156910040Y-64162742D01*
X160332540Y-63500000D02*
X160332540Y-65050000D01*
X158532540Y-65050000D02*
X158532540Y-63750000D01*
D11*
X151632540Y-48400000D02*
X155432540Y-48400000D01*
X155432540Y-50600000D02*
X151632540Y-50600000D01*
X155432540Y-48400000D02*
X155432540Y-50600000D01*
X151632540Y-50600000D02*
X151632540Y-48400000D01*
D14*
X124871288Y-70995000D02*
X125393792Y-70995000D01*
X124871288Y-69525000D02*
X125393792Y-69525000D01*
X149497540Y-110261252D02*
X149497540Y-109738748D01*
X150967540Y-110261252D02*
X150967540Y-109738748D01*
X176793792Y-59035000D02*
X176271288Y-59035000D01*
X176793792Y-57565000D02*
X176271288Y-57565000D01*
X157603792Y-101895000D02*
X157081288Y-101895000D01*
X157603792Y-100425000D02*
X157081288Y-100425000D01*
X133942540Y-79139420D02*
X133942540Y-79420580D01*
X132922540Y-79139420D02*
X132922540Y-79420580D01*
X124902540Y-113470000D02*
X124902540Y-113530000D01*
X127562540Y-113470000D02*
X127562540Y-113530000D01*
X124902540Y-112200000D02*
X124902540Y-110870000D01*
X124902540Y-110870000D02*
X126232540Y-110870000D01*
X124902540Y-113470000D02*
X127562540Y-113470000D01*
X124902540Y-113530000D02*
X127562540Y-113530000D01*
X145632540Y-44690000D02*
X146632540Y-44690000D01*
X144632540Y-46910000D02*
X146632540Y-46910000D01*
D12*
X151542540Y-114500000D02*
X152742540Y-114500000D01*
D14*
X153440376Y-45960000D02*
X153224704Y-45960000D01*
X153440376Y-45240000D02*
X153224704Y-45240000D01*
X139997540Y-48761252D02*
X139997540Y-48238748D01*
X141467540Y-48761252D02*
X141467540Y-48238748D01*
X139241288Y-90402500D02*
X139763792Y-90402500D01*
X139241288Y-88932500D02*
X139763792Y-88932500D01*
X154632540Y-61100000D02*
G75*
G03*
X154632540Y-61100000I-500000J0D01*
G01*
X157227540Y-111291252D02*
X157227540Y-110768748D01*
X158697540Y-111291252D02*
X158697540Y-110768748D01*
X139307540Y-76198748D02*
X139307540Y-76721252D01*
X137837540Y-76198748D02*
X137837540Y-76721252D01*
X184871288Y-49265000D02*
X185393792Y-49265000D01*
X184871288Y-50735000D02*
X185393792Y-50735000D01*
X166692540Y-53392164D02*
X166692540Y-53607836D01*
X165972540Y-53392164D02*
X165972540Y-53607836D01*
X146142540Y-102711252D02*
X146142540Y-102188748D01*
X144672540Y-102711252D02*
X144672540Y-102188748D01*
X150710040Y-60537258D02*
X150710040Y-60062742D01*
X151755040Y-60537258D02*
X151755040Y-60062742D01*
D11*
X137732540Y-52200000D02*
X139132540Y-52200000D01*
X137482540Y-50150000D02*
X138082540Y-50150000D01*
X139132540Y-50400000D02*
X137732540Y-50400000D01*
X137482540Y-50150000D02*
X137482540Y-50750000D01*
X139132540Y-52200000D02*
X139132540Y-50400000D01*
X137732540Y-50400000D02*
X137732540Y-52200000D01*
D14*
X158855040Y-72037258D02*
X158855040Y-71562742D01*
X157810040Y-72037258D02*
X157810040Y-71562742D01*
X178610040Y-56362742D02*
X178610040Y-56837258D01*
X179655040Y-56362742D02*
X179655040Y-56837258D01*
X149371288Y-49935000D02*
X149893792Y-49935000D01*
X149371288Y-48465000D02*
X149893792Y-48465000D01*
X186692540Y-53200000D02*
X186692540Y-54000000D01*
X186692540Y-53200000D02*
X186692540Y-52400000D01*
X183572540Y-53200000D02*
X183572540Y-52400000D01*
X183572540Y-53200000D02*
X183572540Y-55000000D01*
X163943792Y-101665000D02*
X163421288Y-101665000D01*
X163943792Y-100195000D02*
X163421288Y-100195000D01*
X184871288Y-48635000D02*
X185393792Y-48635000D01*
X184871288Y-47165000D02*
X185393792Y-47165000D01*
X132900040Y-84077258D02*
X132900040Y-83602742D01*
X133945040Y-84077258D02*
X133945040Y-83602742D01*
X153255040Y-60062742D02*
X153255040Y-60537258D01*
X152210040Y-60062742D02*
X152210040Y-60537258D01*
X160737540Y-110758748D02*
X160737540Y-111281252D01*
X159267540Y-110758748D02*
X159267540Y-111281252D01*
X148724704Y-47340000D02*
X148940376Y-47340000D01*
X148724704Y-48060000D02*
X148940376Y-48060000D01*
X135297540Y-88886248D02*
X135297540Y-89408752D01*
X136767540Y-88886248D02*
X136767540Y-89408752D01*
X139782540Y-74760000D02*
X139782540Y-82820000D01*
X144302540Y-82820000D02*
X144302540Y-74760000D01*
X144302540Y-74760000D02*
X139782540Y-74760000D01*
X128902540Y-108000000D02*
X128902540Y-106670000D01*
X128902540Y-109270000D02*
X131562540Y-109270000D01*
X128902540Y-109270000D02*
X128902540Y-109330000D01*
X128902540Y-106670000D02*
X130232540Y-106670000D01*
X131562540Y-109270000D02*
X131562540Y-109330000D01*
X128902540Y-109330000D02*
X131562540Y-109330000D01*
X157040376Y-53360000D02*
X156824704Y-53360000D01*
X157040376Y-52640000D02*
X156824704Y-52640000D01*
X184871288Y-57135000D02*
X185393792Y-57135000D01*
X184871288Y-55665000D02*
X185393792Y-55665000D01*
X186712540Y-125340000D02*
X175712540Y-125340000D01*
X175712540Y-117340000D02*
X186712540Y-117340000D01*
X183477540Y-124510000D02*
X183477540Y-124575000D01*
X179947540Y-118105000D02*
X179947540Y-118170000D01*
X179947540Y-118105000D02*
X183477540Y-118105000D01*
X186712540Y-117340000D02*
X186712540Y-125340000D01*
X179947540Y-124510000D02*
X179947540Y-124575000D01*
X178622540Y-118170000D02*
X179947540Y-118170000D01*
X183477540Y-118105000D02*
X183477540Y-118170000D01*
X179947540Y-124575000D02*
X183477540Y-124575000D01*
%LPC*%
D16*
X155632540Y-61100000D02*
G75*
G03*
X155632540Y-61100000I-100000J0D01*
G01*
X154232540Y-61100000D02*
G75*
G03*
X154232540Y-61100000I-100000J0D01*
G01*
D17*
X193632540Y-57300000D03*
X119632540Y-56300000D03*
X132122000Y-114690000D03*
D18*
X194912959Y-44019581D03*
X190352121Y-44019581D03*
X192632540Y-49525000D03*
X189407540Y-46300000D03*
D19*
X192632540Y-46300000D03*
D18*
X195857540Y-46300000D03*
X190352121Y-48580419D03*
X194912959Y-48580419D03*
X192632540Y-43075000D03*
X118352121Y-124580419D03*
X122912959Y-120019581D03*
X122912959Y-124580419D03*
X118352121Y-120019581D03*
X120632540Y-119075000D03*
D19*
X120632540Y-122300000D03*
D18*
X117407540Y-122300000D03*
X123857540Y-122300000D03*
X120632540Y-125525000D03*
X190352121Y-124580419D03*
X192632540Y-119075000D03*
D19*
X192632540Y-122300000D03*
D18*
X190352121Y-120019581D03*
X192632540Y-125525000D03*
X189407540Y-122300000D03*
X195857540Y-122300000D03*
X194912959Y-124580419D03*
X194912959Y-120019581D03*
D17*
X181652000Y-114690000D03*
D20*
X194632540Y-64300000D03*
D21*
X192632540Y-64300000D03*
X194632540Y-66300000D03*
X192632540Y-66300000D03*
X194632540Y-68300000D03*
X192632540Y-68300000D03*
X194632540Y-70300000D03*
X192632540Y-70300000D03*
X194632540Y-72300000D03*
X192632540Y-72300000D03*
X194632540Y-74300000D03*
X192632540Y-74300000D03*
X194632540Y-76300000D03*
X192632540Y-76300000D03*
X194632540Y-78300000D03*
X192632540Y-78300000D03*
X194632540Y-80300000D03*
X192632540Y-80300000D03*
X194632540Y-82300000D03*
X192632540Y-82300000D03*
X194632540Y-84300000D03*
X192632540Y-84300000D03*
X194632540Y-86300000D03*
X192632540Y-86300000D03*
X194632540Y-88300000D03*
X192632540Y-88300000D03*
X194632540Y-90300000D03*
X192632540Y-90300000D03*
X194632540Y-92300000D03*
X192632540Y-92300000D03*
X194632540Y-94300000D03*
X192632540Y-94300000D03*
X194632540Y-96300000D03*
X192632540Y-96300000D03*
X194632540Y-98300000D03*
X192632540Y-98300000D03*
X194632540Y-100300000D03*
X192632540Y-100300000D03*
X194632540Y-102300000D03*
X192632540Y-102300000D03*
X194632540Y-104300000D03*
X192632540Y-104300000D03*
X194632540Y-106300000D03*
X192632540Y-106300000D03*
X194632540Y-108300000D03*
X192632540Y-108300000D03*
X194632540Y-110300000D03*
X192632540Y-110300000D03*
X194632540Y-112300000D03*
X192632540Y-112300000D03*
D18*
X120632540Y-43075000D03*
X122912959Y-44019581D03*
X120632540Y-49525000D03*
X117407540Y-46300000D03*
X122912959Y-48580419D03*
X123857540Y-46300000D03*
X118352121Y-44019581D03*
X118352121Y-48580419D03*
D19*
X120632540Y-46300000D03*
D20*
X120500000Y-64300000D03*
D21*
X118500000Y-64300000D03*
X120500000Y-66300000D03*
X118500000Y-66300000D03*
X120500000Y-68300000D03*
X118500000Y-68300000D03*
X120500000Y-70300000D03*
X118500000Y-70300000D03*
X120500000Y-72300000D03*
X118500000Y-72300000D03*
X120500000Y-74300000D03*
X118500000Y-74300000D03*
X120500000Y-76300000D03*
X118500000Y-76300000D03*
X120500000Y-78300000D03*
X118500000Y-78300000D03*
X120500000Y-80300000D03*
X118500000Y-80300000D03*
X120500000Y-82300000D03*
X118500000Y-82300000D03*
X120500000Y-84300000D03*
X118500000Y-84300000D03*
X120500000Y-86300000D03*
X118500000Y-86300000D03*
X120500000Y-88300000D03*
X118500000Y-88300000D03*
X120500000Y-90300000D03*
X118500000Y-90300000D03*
X120500000Y-92300000D03*
X118500000Y-92300000D03*
X120500000Y-94300000D03*
X118500000Y-94300000D03*
X120500000Y-96300000D03*
X118500000Y-96300000D03*
X120500000Y-98300000D03*
X118500000Y-98300000D03*
X120500000Y-100300000D03*
X118500000Y-100300000D03*
X120500000Y-102300000D03*
X118500000Y-102300000D03*
X120500000Y-104300000D03*
X118500000Y-104300000D03*
X120500000Y-106300000D03*
X118500000Y-106300000D03*
X120500000Y-108300000D03*
X118500000Y-108300000D03*
X120500000Y-110300000D03*
X118500000Y-110300000D03*
X120500000Y-112300000D03*
X118500000Y-112300000D03*
D22*
X150012540Y-45600000D03*
X149052540Y-45600000D03*
D23*
X129737540Y-73140000D03*
X126787540Y-73140000D03*
D24*
X145717540Y-53300000D03*
X144747540Y-53300000D03*
D25*
X154412540Y-101080000D03*
X151112540Y-101080000D03*
X151112540Y-103080000D03*
X154412540Y-103080000D03*
D26*
X144532540Y-107300000D03*
D27*
X149682540Y-60800000D03*
X147782540Y-60800000D03*
D28*
X152332540Y-111412500D03*
X152332540Y-109587500D03*
D29*
X141352540Y-51100000D03*
X142312540Y-51100000D03*
D30*
X136802540Y-75465000D03*
X136802540Y-77015000D03*
D31*
X179182540Y-54100000D03*
X181082540Y-54100000D03*
D32*
X160732540Y-44880000D03*
X160732540Y-43920000D03*
D33*
X134982540Y-84217500D03*
X136882540Y-84217500D03*
X135932540Y-82342500D03*
D34*
X134397540Y-72730000D03*
X135947540Y-72730000D03*
D35*
X172402540Y-116780000D03*
X172402540Y-118680000D03*
D36*
X125182540Y-73645000D03*
X125182540Y-71995000D03*
D26*
X162932540Y-119300000D03*
D27*
X164632540Y-98900000D03*
X162732540Y-98900000D03*
D37*
X155532540Y-61100000D03*
D32*
X140432540Y-45480000D03*
X140432540Y-44520000D03*
D38*
X135957540Y-101760000D03*
X135957540Y-103030000D03*
X135957540Y-104300000D03*
X135957540Y-105570000D03*
X143307540Y-105570000D03*
X143307540Y-104300000D03*
X143307540Y-103030000D03*
X143307540Y-101760000D03*
D27*
X177482540Y-56200000D03*
X175582540Y-56200000D03*
D24*
X165317540Y-53000000D03*
X164347540Y-53000000D03*
D39*
X160532540Y-57675000D03*
X160532540Y-59325000D03*
D29*
X148752540Y-55300000D03*
X149712540Y-55300000D03*
D35*
X135372540Y-78540000D03*
X135372540Y-80440000D03*
D40*
X160532540Y-119600000D03*
D41*
X152220040Y-113200000D03*
X154045040Y-113200000D03*
D42*
X138432540Y-46520000D03*
X138432540Y-47480000D03*
D36*
X161332540Y-65525000D03*
X161332540Y-63875000D03*
D40*
X155132540Y-119600000D03*
D26*
X170632540Y-116900000D03*
D22*
X143812540Y-53300000D03*
X142852540Y-53300000D03*
X162312540Y-53000000D03*
X161352540Y-53000000D03*
D32*
X156732540Y-45580000D03*
X156732540Y-44620000D03*
D35*
X174462540Y-116300000D03*
X174462540Y-118200000D03*
D43*
X135707540Y-109345000D03*
X135707540Y-110615000D03*
X135707540Y-111885000D03*
X135707540Y-113155000D03*
X143507540Y-113155000D03*
X143507540Y-111885000D03*
X143507540Y-110615000D03*
X143507540Y-109345000D03*
D44*
X139607540Y-111250000D03*
D42*
X163332540Y-53020000D03*
X163332540Y-53980000D03*
D31*
X137502540Y-73660000D03*
X139402540Y-73660000D03*
D24*
X160417540Y-53000000D03*
X159447540Y-53000000D03*
D27*
X177482540Y-54100000D03*
X175582540Y-54100000D03*
D45*
X155270040Y-54775000D03*
X155270040Y-54275000D03*
X155270040Y-53775000D03*
X155270040Y-53275000D03*
X155270040Y-52775000D03*
X155270040Y-52275000D03*
D46*
X154557540Y-51562500D03*
X154057540Y-51562500D03*
X153557540Y-51562500D03*
X153057540Y-51562500D03*
X152557540Y-51562500D03*
X152057540Y-51562500D03*
D45*
X151345040Y-52275000D03*
X151345040Y-52775000D03*
X151345040Y-53275000D03*
X151345040Y-53775000D03*
X151345040Y-54275000D03*
X151345040Y-54775000D03*
D46*
X152057540Y-55487500D03*
X152557540Y-55487500D03*
X153057540Y-55487500D03*
X153557540Y-55487500D03*
X154057540Y-55487500D03*
X154557540Y-55487500D03*
D47*
X153307540Y-53525000D03*
D22*
X137112540Y-51300000D03*
X136152540Y-51300000D03*
D26*
X160832540Y-98500000D03*
D22*
X159712540Y-45900000D03*
X158752540Y-45900000D03*
D24*
X139417540Y-45500000D03*
X138447540Y-45500000D03*
D48*
X155592540Y-87460000D03*
D49*
X155632540Y-90000000D03*
X158172540Y-90000000D03*
D50*
X161732540Y-44915000D03*
X161732540Y-45885000D03*
D51*
X149732540Y-56512500D03*
X149732540Y-58087500D03*
D26*
X178832540Y-51600000D03*
D29*
X158952540Y-66200000D03*
X159912540Y-66200000D03*
D39*
X156732540Y-70975000D03*
X156732540Y-72625000D03*
D27*
X177482540Y-60400000D03*
X175582540Y-60400000D03*
D39*
X159132540Y-60775000D03*
X159132540Y-62425000D03*
D35*
X156472540Y-105270000D03*
X156472540Y-107170000D03*
D32*
X152332540Y-57680000D03*
X152332540Y-56720000D03*
D40*
X149562540Y-113465000D03*
D49*
X147022540Y-113505000D03*
X147022540Y-116045000D03*
D52*
X149695040Y-63700000D03*
X144770040Y-63700000D03*
D53*
X155907540Y-66900000D03*
X157557540Y-66900000D03*
D54*
X150657540Y-70000000D03*
X149007540Y-70000000D03*
X159057540Y-59300000D03*
X157407540Y-59300000D03*
D22*
X177712540Y-51500000D03*
X176752540Y-51500000D03*
D55*
X140612540Y-94035000D03*
X140612540Y-95860000D03*
D22*
X138412540Y-48500000D03*
X137452540Y-48500000D03*
D56*
X131132540Y-51300000D03*
D57*
X128592540Y-48760000D03*
X133672540Y-53840000D03*
X133672540Y-48760000D03*
X128592540Y-53840000D03*
D58*
X128810040Y-84250000D03*
X126935040Y-84250000D03*
D59*
X139122540Y-91951908D03*
D60*
X140517140Y-91201907D03*
X140517140Y-91701908D03*
X140517140Y-92201908D03*
X140517140Y-92701909D03*
X137727940Y-92701909D03*
X137727940Y-92201908D03*
X137727940Y-91701908D03*
X137727940Y-91201907D03*
D35*
X152232540Y-62850000D03*
X152232540Y-64750000D03*
D22*
X143412540Y-45500000D03*
X142452540Y-45500000D03*
X155512540Y-56700000D03*
X154552540Y-56700000D03*
D61*
X154432540Y-107150000D03*
X154432540Y-105250000D03*
D62*
X132472540Y-74929999D03*
X132472540Y-75430000D03*
X132472540Y-75930000D03*
X132472540Y-76430001D03*
D63*
X133172478Y-77130086D03*
D64*
X133672604Y-76888786D03*
X134172540Y-76888786D03*
D63*
X134672602Y-77130086D03*
D62*
X135372540Y-76430001D03*
X135372540Y-75930000D03*
X135372540Y-75430000D03*
X135372540Y-74929999D03*
D63*
X134672541Y-74230000D03*
D64*
X134172540Y-74471290D03*
X133672540Y-74471290D03*
D63*
X133172539Y-74230000D03*
D24*
X159717540Y-44900000D03*
X158747540Y-44900000D03*
D39*
X130372540Y-81075000D03*
X130372540Y-82725000D03*
D65*
X138592540Y-94030000D03*
X138592540Y-95905000D03*
D26*
X163432540Y-118350000D03*
D50*
X151332540Y-56715000D03*
X151332540Y-57685000D03*
D54*
X133487540Y-81560000D03*
X131837540Y-81560000D03*
D50*
X157732540Y-44615000D03*
X157732540Y-45585000D03*
D61*
X158022540Y-114060000D03*
X158022540Y-115960000D03*
D66*
X177107540Y-47000000D03*
X177107540Y-47500000D03*
X177107540Y-48000000D03*
X177107540Y-48500000D03*
X177107540Y-49000000D03*
D67*
X178032540Y-49925000D03*
X178532540Y-49925000D03*
X179032540Y-49925000D03*
X179532540Y-49925000D03*
X180032540Y-49925000D03*
D66*
X180957540Y-49000000D03*
X180957540Y-48500000D03*
X180957540Y-48000000D03*
X180957540Y-47500000D03*
X180957540Y-47000000D03*
D67*
X180032540Y-46075000D03*
X179532540Y-46075000D03*
X179032540Y-46075000D03*
X178532540Y-46075000D03*
X178032540Y-46075000D03*
D68*
X179032540Y-48000000D03*
D61*
X147407540Y-103400000D03*
X147407540Y-101500000D03*
D39*
X131912540Y-78455000D03*
X131912540Y-80105000D03*
D50*
X146732540Y-53315000D03*
X146732540Y-54285000D03*
D69*
X124022540Y-74885000D03*
X124022540Y-76110000D03*
D26*
X145032540Y-100200000D03*
D40*
X130232540Y-103600000D03*
X130232540Y-112200000D03*
D22*
X182912540Y-44200000D03*
X181952540Y-44200000D03*
D61*
X155972540Y-115960000D03*
X155972540Y-114060000D03*
D70*
X132927540Y-72730000D03*
X131377540Y-72730000D03*
D36*
X130372540Y-79700000D03*
X130372540Y-78050000D03*
D71*
X137447540Y-49500000D03*
X138417540Y-49500000D03*
D72*
X153932140Y-65470000D03*
X154582140Y-65470000D03*
X155232140Y-65470000D03*
X155882140Y-65470000D03*
X155882140Y-62730000D03*
X155232140Y-62730000D03*
X154582140Y-62730000D03*
X153932140Y-62730000D03*
D73*
X154932540Y-64100000D03*
D74*
X155465940Y-64100000D03*
X154399140Y-64100000D03*
D33*
X160182540Y-69637500D03*
X162082540Y-69637500D03*
X161132540Y-67762500D03*
D75*
X155282540Y-70550000D03*
X155282540Y-70050000D03*
X155282540Y-69550000D03*
X155282540Y-69050000D03*
X152182540Y-69050000D03*
X152182540Y-69550000D03*
X152182540Y-70050000D03*
X152182540Y-70550000D03*
D61*
X146707540Y-110950000D03*
X146707540Y-109050000D03*
D50*
X148132540Y-45615000D03*
X148132540Y-46585000D03*
D24*
X168317540Y-53000000D03*
X167347540Y-53000000D03*
D42*
X143332540Y-50720000D03*
X143332540Y-51680000D03*
D76*
X185832540Y-45975000D03*
X185832540Y-44225000D03*
X184432540Y-44225000D03*
X184432540Y-45975000D03*
D54*
X155357540Y-58000000D03*
X153707540Y-58000000D03*
D36*
X150632540Y-73125000D03*
X150632540Y-71475000D03*
D54*
X147157540Y-47900000D03*
X145507540Y-47900000D03*
D22*
X177712540Y-52500000D03*
X176752540Y-52500000D03*
D42*
X169332540Y-53020000D03*
X169332540Y-53980000D03*
D39*
X144632540Y-49375000D03*
X144632540Y-51025000D03*
D31*
X152782540Y-72200000D03*
X154682540Y-72200000D03*
D36*
X182632540Y-54925000D03*
X182632540Y-53275000D03*
D40*
X130232540Y-99300000D03*
D22*
X149712540Y-59300000D03*
X148752540Y-59300000D03*
D77*
X162969540Y-104975000D03*
X162969540Y-105475000D03*
X162969540Y-105975000D03*
X162969540Y-106475000D03*
X162969540Y-106975000D03*
X162969540Y-107475000D03*
X162969540Y-107975000D03*
X162969540Y-108475000D03*
X162969540Y-108975000D03*
X162969540Y-109475000D03*
X162969540Y-109975000D03*
X162969540Y-110475000D03*
X162969540Y-110975000D03*
X162969540Y-111475000D03*
X162969540Y-111975000D03*
X162969540Y-112475000D03*
D78*
X164957540Y-114463000D03*
X165457540Y-114463000D03*
X165957540Y-114463000D03*
X166457540Y-114463000D03*
X166957540Y-114463000D03*
X167457540Y-114463000D03*
X167957540Y-114463000D03*
X168457540Y-114463000D03*
X168957540Y-114463000D03*
X169457540Y-114463000D03*
X169957540Y-114463000D03*
X170457540Y-114463000D03*
X170957540Y-114463000D03*
X171457540Y-114463000D03*
X171957540Y-114463000D03*
X172457540Y-114463000D03*
D77*
X174445540Y-112475000D03*
X174445540Y-111975000D03*
X174445540Y-111475000D03*
X174445540Y-110975000D03*
X174445540Y-110475000D03*
X174445540Y-109975000D03*
X174445540Y-109475000D03*
X174445540Y-108975000D03*
X174445540Y-108475000D03*
X174445540Y-107975000D03*
X174445540Y-107475000D03*
X174445540Y-106975000D03*
X174445540Y-106475000D03*
X174445540Y-105975000D03*
X174445540Y-105475000D03*
X174445540Y-104975000D03*
D78*
X172457540Y-102987000D03*
X171957540Y-102987000D03*
X171457540Y-102987000D03*
X170957540Y-102987000D03*
X170457540Y-102987000D03*
X169957540Y-102987000D03*
X169457540Y-102987000D03*
X168957540Y-102987000D03*
X168457540Y-102987000D03*
X167957540Y-102987000D03*
X167457540Y-102987000D03*
X166957540Y-102987000D03*
X166457540Y-102987000D03*
X165957540Y-102987000D03*
X165457540Y-102987000D03*
X164957540Y-102987000D03*
D26*
X178732540Y-60300000D03*
D53*
X157407540Y-57700000D03*
X159057540Y-57700000D03*
D79*
X128822540Y-65320000D03*
X138722540Y-65320000D03*
D61*
X142732540Y-49450000D03*
X142732540Y-47550000D03*
D27*
X152482540Y-66700000D03*
X150582540Y-66700000D03*
D36*
X146232540Y-51025000D03*
X146232540Y-49375000D03*
D50*
X150932540Y-44615000D03*
X150932540Y-45585000D03*
X158432540Y-53015000D03*
X158432540Y-53985000D03*
D22*
X171312540Y-53000000D03*
X170352540Y-53000000D03*
D28*
X158662540Y-105422500D03*
X158662540Y-103597500D03*
D31*
X162582540Y-116800000D03*
X164482540Y-116800000D03*
D26*
X132832540Y-109400000D03*
D80*
X140922540Y-74090000D03*
X140922540Y-72690000D03*
D61*
X187932540Y-52650000D03*
X187932540Y-50750000D03*
D22*
X148712540Y-53300000D03*
X147752540Y-53300000D03*
D40*
X126232540Y-108000000D03*
D81*
X127172540Y-75650000D03*
X127172540Y-81875000D03*
D41*
X176320040Y-108500000D03*
X178145040Y-108500000D03*
D35*
X177022540Y-103200000D03*
X177022540Y-105100000D03*
D82*
X141082540Y-52400000D03*
X140432540Y-52400000D03*
X139782540Y-52400000D03*
D83*
X139232540Y-53300000D03*
D82*
X139782540Y-54200000D03*
X140432540Y-54200000D03*
X141082540Y-54200000D03*
D83*
X141632540Y-53300000D03*
D32*
X151932540Y-45580000D03*
X151932540Y-44620000D03*
D53*
X157007540Y-69500000D03*
X158657540Y-69500000D03*
D30*
X130372540Y-75070000D03*
X130372540Y-76620000D03*
D84*
X149732540Y-54285000D03*
X149732540Y-53315000D03*
D36*
X157432540Y-65225000D03*
X157432540Y-63575000D03*
D85*
X159932540Y-63700000D03*
X159432540Y-63700000D03*
X158932540Y-63700000D03*
X158932540Y-65100000D03*
X159932540Y-65100000D03*
D86*
X153532540Y-49500000D03*
D31*
X124182540Y-70260000D03*
X126082540Y-70260000D03*
D61*
X150232540Y-110950000D03*
X150232540Y-109050000D03*
D27*
X177482540Y-58300000D03*
X175582540Y-58300000D03*
D26*
X177032540Y-101800000D03*
D27*
X158292540Y-101160000D03*
X156392540Y-101160000D03*
D30*
X133432540Y-78505000D03*
X133432540Y-80055000D03*
D26*
X176532540Y-114600000D03*
D40*
X126232540Y-112200000D03*
D87*
X144632540Y-45050000D03*
X144632540Y-45550000D03*
X144632540Y-46050000D03*
X144632540Y-46550000D03*
X146632540Y-46550000D03*
X146632540Y-46050000D03*
X146632540Y-45550000D03*
X146632540Y-45050000D03*
D88*
X145632540Y-45800000D03*
D50*
X141432540Y-44515000D03*
X141432540Y-45485000D03*
D89*
X152142540Y-114950000D03*
X152142540Y-115600000D03*
X152142540Y-116250000D03*
X154042540Y-116250000D03*
X154042540Y-114950000D03*
D22*
X153812540Y-45600000D03*
X152852540Y-45600000D03*
D61*
X140732540Y-49450000D03*
X140732540Y-47550000D03*
D31*
X138552540Y-89667500D03*
X140452540Y-89667500D03*
D50*
X172332540Y-53015000D03*
X172332540Y-53985000D03*
D37*
X154132540Y-61100000D03*
D61*
X157962540Y-111980000D03*
X157962540Y-110080000D03*
D26*
X159532540Y-116000000D03*
X135742540Y-92187500D03*
D35*
X138572540Y-75510000D03*
X138572540Y-77410000D03*
D31*
X184182540Y-50000000D03*
X186082540Y-50000000D03*
D42*
X166332540Y-53020000D03*
X166332540Y-53980000D03*
D61*
X145407540Y-103400000D03*
X145407540Y-101500000D03*
D36*
X151232540Y-61125000D03*
X151232540Y-59475000D03*
D24*
X155717540Y-45600000D03*
X154747540Y-45600000D03*
D90*
X138032540Y-50900000D03*
X138032540Y-51300000D03*
X138032540Y-51700000D03*
X138432540Y-51900000D03*
X138832540Y-51700000D03*
X138832540Y-51300000D03*
X138832540Y-50900000D03*
X138432540Y-50700000D03*
D91*
X138432540Y-51300000D03*
D36*
X158332540Y-72625000D03*
X158332540Y-70975000D03*
D39*
X179132540Y-55775000D03*
X179132540Y-57425000D03*
D31*
X148682540Y-49200000D03*
X150582540Y-49200000D03*
D92*
X184182540Y-54337500D03*
X185132540Y-54337500D03*
X186082540Y-54337500D03*
X186082540Y-52062500D03*
X184182540Y-52062500D03*
D27*
X164632540Y-100930000D03*
X162732540Y-100930000D03*
D31*
X184182540Y-47900000D03*
X186082540Y-47900000D03*
D36*
X133422540Y-84665000D03*
X133422540Y-83015000D03*
D39*
X152732540Y-59475000D03*
X152732540Y-61125000D03*
D35*
X160002540Y-110070000D03*
X160002540Y-111970000D03*
D29*
X148352540Y-47700000D03*
X149312540Y-47700000D03*
D35*
X136032540Y-88197500D03*
X136032540Y-90097500D03*
D81*
X142042540Y-76057500D03*
X142042540Y-82282500D03*
D40*
X130232540Y-108000000D03*
D22*
X157412540Y-53000000D03*
X156452540Y-53000000D03*
D31*
X184182540Y-56400000D03*
X186082540Y-56400000D03*
D26*
X141922540Y-91697500D03*
D93*
X179762540Y-118800000D03*
X183662540Y-118800000D03*
X179762540Y-120070000D03*
X183662540Y-120070000D03*
X179762540Y-121340000D03*
X183662540Y-121340000D03*
X179762540Y-122610000D03*
X183662540Y-122610000D03*
X179762540Y-123880000D03*
X183662540Y-123880000D03*
M02*
