G04 #@! TF.GenerationSoftware,KiCad,Pcbnew,(6.0.5)*
G04 #@! TF.CreationDate,2022-07-17T17:02:58+02:00*
G04 #@! TF.ProjectId,STS1_COBC_V2,53545331-5f43-44f4-9243-5f56322e6b69,rev?*
G04 #@! TF.SameCoordinates,Original*
G04 #@! TF.FileFunction,AssemblyDrawing,Top*
%FSLAX46Y46*%
G04 Gerber Fmt 4.6, Leading zero omitted, Abs format (unit mm)*
G04 Created by KiCad (PCBNEW (6.0.5)) date 2022-07-17 17:02:58*
%MOMM*%
%LPD*%
G01*
G04 APERTURE LIST*
%ADD10C,0.150000*%
%ADD11C,0.100000*%
G04 APERTURE END LIST*
D10*
X139122540Y-91404288D02*
X139122540Y-91642384D01*
X138884444Y-91547146D02*
X139122540Y-91642384D01*
X139360635Y-91547146D01*
X138979682Y-91832860D02*
X139122540Y-91642384D01*
X139265397Y-91832860D01*
D11*
X194382540Y-57300000D02*
G75*
G03*
X194382540Y-57300000I-750000J0D01*
G01*
X120382540Y-56300000D02*
G75*
G03*
X120382540Y-56300000I-750000J0D01*
G01*
X132872000Y-114690000D02*
G75*
G03*
X132872000Y-114690000I-750000J0D01*
G01*
X182402000Y-114690000D02*
G75*
G03*
X182402000Y-114690000I-750000J0D01*
G01*
X195632540Y-64300000D02*
X195632540Y-113300000D01*
X191632540Y-63300000D02*
X194632540Y-63300000D01*
X194632540Y-63300000D02*
X195632540Y-64300000D01*
X195632540Y-113300000D02*
X191632540Y-113300000D01*
X191632540Y-113300000D02*
X191632540Y-63300000D01*
X117500000Y-63300000D02*
X120500000Y-63300000D01*
X121500000Y-64300000D02*
X121500000Y-113300000D01*
X120500000Y-63300000D02*
X121500000Y-64300000D01*
X117500000Y-113300000D02*
X117500000Y-63300000D01*
X121500000Y-113300000D02*
X117500000Y-113300000D01*
X149032540Y-45850000D02*
X149032540Y-45350000D01*
X150032540Y-45350000D02*
X150032540Y-45850000D01*
X150032540Y-45850000D02*
X149032540Y-45850000D01*
X149032540Y-45350000D02*
X150032540Y-45350000D01*
X129862540Y-73940000D02*
X126662540Y-73940000D01*
X129862540Y-72340000D02*
X129862540Y-73940000D01*
X126662540Y-72340000D02*
X129862540Y-72340000D01*
X126662540Y-73940000D02*
X126662540Y-72340000D01*
X144732540Y-53050000D02*
X145732540Y-53050000D01*
X145732540Y-53550000D02*
X144732540Y-53550000D01*
X145732540Y-53050000D02*
X145732540Y-53550000D01*
X144732540Y-53550000D02*
X144732540Y-53050000D01*
X155262540Y-100680000D02*
X155262540Y-103480000D01*
X150462540Y-100480000D02*
X155062540Y-100480000D01*
X155062540Y-100480000D02*
X155262540Y-100680000D01*
X155062540Y-103680000D02*
X150462540Y-103680000D01*
X155262540Y-101480000D02*
X154262540Y-100480000D01*
X150262540Y-100680000D02*
X150462540Y-100480000D01*
X150262540Y-103480000D02*
X150262540Y-100680000D01*
X155262540Y-103480000D02*
X155062540Y-103680000D01*
X150462540Y-103680000D02*
X150262540Y-103480000D01*
X149732540Y-61425000D02*
X147732540Y-61425000D01*
X147732540Y-61425000D02*
X147732540Y-60175000D01*
X147732540Y-60175000D02*
X149732540Y-60175000D01*
X149732540Y-60175000D02*
X149732540Y-61425000D01*
X151707540Y-109500000D02*
X152957540Y-109500000D01*
X152957540Y-109500000D02*
X152957540Y-111500000D01*
X152957540Y-111500000D02*
X151707540Y-111500000D01*
X151707540Y-111500000D02*
X151707540Y-109500000D01*
X141332540Y-51350000D02*
X141332540Y-50850000D01*
X142332540Y-51350000D02*
X141332540Y-51350000D01*
X142332540Y-50850000D02*
X142332540Y-51350000D01*
X141332540Y-50850000D02*
X142332540Y-50850000D01*
X136402540Y-77040000D02*
X136402540Y-75440000D01*
X137202540Y-75440000D02*
X137202540Y-77040000D01*
X136402540Y-75440000D02*
X137202540Y-75440000D01*
X137202540Y-77040000D02*
X136402540Y-77040000D01*
X181132540Y-54725000D02*
X179132540Y-54725000D01*
X179132540Y-53475000D02*
X181132540Y-53475000D01*
X179132540Y-54725000D02*
X179132540Y-53475000D01*
X181132540Y-53475000D02*
X181132540Y-54725000D01*
X160982540Y-44900000D02*
X160482540Y-44900000D01*
X160482540Y-43900000D02*
X160982540Y-43900000D01*
X160982540Y-43900000D02*
X160982540Y-44900000D01*
X160482540Y-44900000D02*
X160482540Y-43900000D01*
X134807540Y-83930000D02*
X134482540Y-83605000D01*
X134482540Y-82630000D02*
X137382540Y-82630000D01*
X137382540Y-82630000D02*
X137382540Y-83930000D01*
X134482540Y-83605000D02*
X134482540Y-82630000D01*
X137382540Y-83930000D02*
X134807540Y-83930000D01*
X135972540Y-73130000D02*
X134372540Y-73130000D01*
X135972540Y-72330000D02*
X135972540Y-73130000D01*
X134372540Y-73130000D02*
X134372540Y-72330000D01*
X134372540Y-72330000D02*
X135972540Y-72330000D01*
X173027540Y-116730000D02*
X173027540Y-118730000D01*
X171777540Y-118730000D02*
X171777540Y-116730000D01*
X173027540Y-118730000D02*
X171777540Y-118730000D01*
X171777540Y-116730000D02*
X173027540Y-116730000D01*
X125595040Y-73620000D02*
X124770040Y-73620000D01*
X124770040Y-73620000D02*
X124770040Y-72020000D01*
X125595040Y-72020000D02*
X125595040Y-73620000D01*
X124770040Y-72020000D02*
X125595040Y-72020000D01*
X164682540Y-99525000D02*
X162682540Y-99525000D01*
X164682540Y-98275000D02*
X164682540Y-99525000D01*
X162682540Y-99525000D02*
X162682540Y-98275000D01*
X162682540Y-98275000D02*
X164682540Y-98275000D01*
X156032540Y-61100000D02*
G75*
G03*
X156032540Y-61100000I-500000J0D01*
G01*
X140182540Y-45500000D02*
X140182540Y-44500000D01*
X140182540Y-44500000D02*
X140682540Y-44500000D01*
X140682540Y-44500000D02*
X140682540Y-45500000D01*
X140682540Y-45500000D02*
X140182540Y-45500000D01*
X142272540Y-101050000D02*
X142272540Y-106280000D01*
X136992540Y-102320000D02*
X138262540Y-101050000D01*
X136992540Y-106280000D02*
X136992540Y-101050000D01*
X136992540Y-101050000D02*
X142272540Y-101050000D01*
X142272540Y-106280000D02*
X136992540Y-106280000D01*
X177532540Y-55575000D02*
X177532540Y-56825000D01*
X177532540Y-56825000D02*
X175532540Y-56825000D01*
X175532540Y-55575000D02*
X177532540Y-55575000D01*
X175532540Y-56825000D02*
X175532540Y-55575000D01*
X165332540Y-52750000D02*
X165332540Y-53250000D01*
X164332540Y-52750000D02*
X165332540Y-52750000D01*
X164332540Y-53250000D02*
X164332540Y-52750000D01*
X165332540Y-53250000D02*
X164332540Y-53250000D01*
X160945040Y-59300000D02*
X160120040Y-59300000D01*
X160945040Y-57700000D02*
X160945040Y-59300000D01*
X160120040Y-57700000D02*
X160945040Y-57700000D01*
X160120040Y-59300000D02*
X160120040Y-57700000D01*
X148732540Y-55550000D02*
X148732540Y-55050000D01*
X149732540Y-55550000D02*
X148732540Y-55550000D01*
X149732540Y-55050000D02*
X149732540Y-55550000D01*
X148732540Y-55050000D02*
X149732540Y-55050000D01*
X134747540Y-80490000D02*
X134747540Y-78490000D01*
X135997540Y-78490000D02*
X135997540Y-80490000D01*
X134747540Y-78490000D02*
X135997540Y-78490000D01*
X135997540Y-80490000D02*
X134747540Y-80490000D01*
X159262540Y-120870000D02*
X159262540Y-118965000D01*
X161802540Y-120870000D02*
X159262540Y-120870000D01*
X161802540Y-118330000D02*
X161802540Y-120870000D01*
X159897540Y-118330000D02*
X161802540Y-118330000D01*
X159262540Y-118965000D02*
X159897540Y-118330000D01*
X152132540Y-112575000D02*
X154132540Y-112575000D01*
X152132540Y-113825000D02*
X152132540Y-112575000D01*
X154132540Y-113825000D02*
X152132540Y-113825000D01*
X154132540Y-112575000D02*
X154132540Y-113825000D01*
X138182540Y-46500000D02*
X138682540Y-46500000D01*
X138682540Y-46500000D02*
X138682540Y-47500000D01*
X138682540Y-47500000D02*
X138182540Y-47500000D01*
X138182540Y-47500000D02*
X138182540Y-46500000D01*
X160920040Y-65500000D02*
X160920040Y-63900000D01*
X160920040Y-63900000D02*
X161745040Y-63900000D01*
X161745040Y-63900000D02*
X161745040Y-65500000D01*
X161745040Y-65500000D02*
X160920040Y-65500000D01*
X156402540Y-120870000D02*
X153862540Y-120870000D01*
X153862540Y-120870000D02*
X153862540Y-118965000D01*
X156402540Y-118330000D02*
X156402540Y-120870000D01*
X154497540Y-118330000D02*
X156402540Y-118330000D01*
X153862540Y-118965000D02*
X154497540Y-118330000D01*
X142832540Y-53050000D02*
X143832540Y-53050000D01*
X143832540Y-53550000D02*
X142832540Y-53550000D01*
X142832540Y-53550000D02*
X142832540Y-53050000D01*
X143832540Y-53050000D02*
X143832540Y-53550000D01*
X162332540Y-53250000D02*
X161332540Y-53250000D01*
X161332540Y-52750000D02*
X162332540Y-52750000D01*
X162332540Y-52750000D02*
X162332540Y-53250000D01*
X161332540Y-53250000D02*
X161332540Y-52750000D01*
X156982540Y-45600000D02*
X156482540Y-45600000D01*
X156482540Y-44600000D02*
X156982540Y-44600000D01*
X156482540Y-45600000D02*
X156482540Y-44600000D01*
X156982540Y-44600000D02*
X156982540Y-45600000D01*
X173837540Y-118250000D02*
X173837540Y-116250000D01*
X175087540Y-116250000D02*
X175087540Y-118250000D01*
X175087540Y-118250000D02*
X173837540Y-118250000D01*
X173837540Y-116250000D02*
X175087540Y-116250000D01*
X143607540Y-108250000D02*
X143607540Y-114250000D01*
X143607540Y-114250000D02*
X135607540Y-114250000D01*
X135607540Y-108250000D02*
X143607540Y-108250000D01*
X135607540Y-110250000D02*
X137607540Y-108250000D01*
X135607540Y-114250000D02*
X135607540Y-108250000D01*
X163582540Y-53000000D02*
X163582540Y-54000000D01*
X163082540Y-53000000D02*
X163582540Y-53000000D01*
X163582540Y-54000000D02*
X163082540Y-54000000D01*
X163082540Y-54000000D02*
X163082540Y-53000000D01*
X137452540Y-73035000D02*
X139452540Y-73035000D01*
X139452540Y-73035000D02*
X139452540Y-74285000D01*
X139452540Y-74285000D02*
X137452540Y-74285000D01*
X137452540Y-74285000D02*
X137452540Y-73035000D01*
X160432540Y-53250000D02*
X159432540Y-53250000D01*
X159432540Y-53250000D02*
X159432540Y-52750000D01*
X159432540Y-52750000D02*
X160432540Y-52750000D01*
X160432540Y-52750000D02*
X160432540Y-53250000D01*
X175532540Y-53475000D02*
X177532540Y-53475000D01*
X177532540Y-53475000D02*
X177532540Y-54725000D01*
X175532540Y-54725000D02*
X175532540Y-53475000D01*
X177532540Y-54725000D02*
X175532540Y-54725000D01*
X155307540Y-51525000D02*
X155307540Y-54525000D01*
X151307540Y-51525000D02*
X155307540Y-51525000D01*
X154307540Y-55525000D02*
X151307540Y-55525000D01*
X155307540Y-54525000D02*
X154307540Y-55525000D01*
X151307540Y-55525000D02*
X151307540Y-51525000D01*
X137132540Y-51550000D02*
X136132540Y-51550000D01*
X137132540Y-51050000D02*
X137132540Y-51550000D01*
X136132540Y-51550000D02*
X136132540Y-51050000D01*
X136132540Y-51050000D02*
X137132540Y-51050000D01*
X159732540Y-46150000D02*
X158732540Y-46150000D01*
X158732540Y-46150000D02*
X158732540Y-45650000D01*
X159732540Y-45650000D02*
X159732540Y-46150000D01*
X158732540Y-45650000D02*
X159732540Y-45650000D01*
X139432540Y-45250000D02*
X139432540Y-45750000D01*
X139432540Y-45750000D02*
X138432540Y-45750000D01*
X138432540Y-45750000D02*
X138432540Y-45250000D01*
X138432540Y-45250000D02*
X139432540Y-45250000D01*
X159442540Y-88730000D02*
X159442540Y-91270000D01*
X161482540Y-44900000D02*
X161982540Y-44900000D01*
X161482540Y-45900000D02*
X161482540Y-44900000D01*
X161982540Y-44900000D02*
X161982540Y-45900000D01*
X161982540Y-45900000D02*
X161482540Y-45900000D01*
X150132540Y-56500000D02*
X150132540Y-58100000D01*
X149332540Y-58100000D02*
X149332540Y-56500000D01*
X149332540Y-56500000D02*
X150132540Y-56500000D01*
X150132540Y-58100000D02*
X149332540Y-58100000D01*
X158932540Y-65950000D02*
X159932540Y-65950000D01*
X159932540Y-65950000D02*
X159932540Y-66450000D01*
X159932540Y-66450000D02*
X158932540Y-66450000D01*
X158932540Y-66450000D02*
X158932540Y-65950000D01*
X156320040Y-71000000D02*
X157145040Y-71000000D01*
X157145040Y-72600000D02*
X156320040Y-72600000D01*
X157145040Y-71000000D02*
X157145040Y-72600000D01*
X156320040Y-72600000D02*
X156320040Y-71000000D01*
X177532540Y-59775000D02*
X177532540Y-61025000D01*
X175532540Y-61025000D02*
X175532540Y-59775000D01*
X175532540Y-59775000D02*
X177532540Y-59775000D01*
X177532540Y-61025000D02*
X175532540Y-61025000D01*
X158720040Y-62400000D02*
X158720040Y-60800000D01*
X159545040Y-62400000D02*
X158720040Y-62400000D01*
X158720040Y-60800000D02*
X159545040Y-60800000D01*
X159545040Y-60800000D02*
X159545040Y-62400000D01*
X155847540Y-107220000D02*
X155847540Y-105220000D01*
X157097540Y-105220000D02*
X157097540Y-107220000D01*
X155847540Y-105220000D02*
X157097540Y-105220000D01*
X157097540Y-107220000D02*
X155847540Y-107220000D01*
X152582540Y-57700000D02*
X152082540Y-57700000D01*
X152582540Y-56700000D02*
X152582540Y-57700000D01*
X152082540Y-56700000D02*
X152582540Y-56700000D01*
X152082540Y-57700000D02*
X152082540Y-56700000D01*
X148292540Y-117315000D02*
X145752540Y-117315000D01*
X149432540Y-65300000D02*
X150232540Y-64500000D01*
X144232540Y-62100000D02*
X144232540Y-65300000D01*
X150232540Y-62100000D02*
X144232540Y-62100000D01*
X144232540Y-65300000D02*
X149432540Y-65300000D01*
X150232540Y-64500000D02*
X150232540Y-62100000D01*
X157532540Y-67312500D02*
X155932540Y-67312500D01*
X155932540Y-66487500D02*
X157532540Y-66487500D01*
X155932540Y-67312500D02*
X155932540Y-66487500D01*
X157532540Y-66487500D02*
X157532540Y-67312500D01*
X149032540Y-70412500D02*
X149032540Y-69587500D01*
X150632540Y-69587500D02*
X150632540Y-70412500D01*
X149032540Y-69587500D02*
X150632540Y-69587500D01*
X150632540Y-70412500D02*
X149032540Y-70412500D01*
X159032540Y-58887500D02*
X159032540Y-59712500D01*
X157432540Y-59712500D02*
X157432540Y-58887500D01*
X157432540Y-58887500D02*
X159032540Y-58887500D01*
X159032540Y-59712500D02*
X157432540Y-59712500D01*
X176732540Y-51750000D02*
X176732540Y-51250000D01*
X177732540Y-51250000D02*
X177732540Y-51750000D01*
X176732540Y-51250000D02*
X177732540Y-51250000D01*
X177732540Y-51750000D02*
X176732540Y-51750000D01*
X139987540Y-93947500D02*
X141237540Y-93947500D01*
X139987540Y-95947500D02*
X139987540Y-93947500D01*
X141237540Y-93947500D02*
X141237540Y-95947500D01*
X141237540Y-95947500D02*
X139987540Y-95947500D01*
X137432540Y-48250000D02*
X138432540Y-48250000D01*
X138432540Y-48250000D02*
X138432540Y-48750000D01*
X137432540Y-48750000D02*
X137432540Y-48250000D01*
X138432540Y-48750000D02*
X137432540Y-48750000D01*
X127682540Y-47850000D02*
X127682540Y-54750000D01*
X134582540Y-47850000D02*
X127682540Y-47850000D01*
X134582540Y-54750000D02*
X134582540Y-47850000D01*
X127682540Y-54750000D02*
X134582540Y-54750000D01*
X133632540Y-51300000D02*
G75*
G03*
X133632540Y-51300000I-2500000J0D01*
G01*
X126872540Y-83650000D02*
X126872540Y-84850000D01*
X128872540Y-83650000D02*
X126872540Y-83650000D01*
X128872540Y-84550000D02*
X128872540Y-83650000D01*
X126872540Y-84850000D02*
X128572540Y-84850000D01*
X128572540Y-84850000D02*
X128872540Y-84550000D01*
X139114798Y-91926424D02*
G75*
G03*
X139130282Y-89970792I7742J977816D01*
G01*
X137623940Y-90948608D02*
X137623940Y-92955208D01*
X137623940Y-92955208D02*
X140621140Y-92955208D01*
X140621140Y-92955208D02*
X140621140Y-90948608D01*
X140621140Y-90948608D02*
X137623940Y-90948608D01*
X152857540Y-64800000D02*
X151607540Y-64800000D01*
X151607540Y-62800000D02*
X152857540Y-62800000D01*
X151607540Y-64800000D02*
X151607540Y-62800000D01*
X152857540Y-62800000D02*
X152857540Y-64800000D01*
X143432540Y-45750000D02*
X142432540Y-45750000D01*
X143432540Y-45250000D02*
X143432540Y-45750000D01*
X142432540Y-45750000D02*
X142432540Y-45250000D01*
X142432540Y-45250000D02*
X143432540Y-45250000D01*
X154532540Y-56450000D02*
X155532540Y-56450000D01*
X155532540Y-56450000D02*
X155532540Y-56950000D01*
X154532540Y-56950000D02*
X154532540Y-56450000D01*
X155532540Y-56950000D02*
X154532540Y-56950000D01*
X155057540Y-107200000D02*
X153807540Y-107200000D01*
X153807540Y-105200000D02*
X155057540Y-105200000D01*
X155057540Y-105200000D02*
X155057540Y-107200000D01*
X153807540Y-107200000D02*
X153807540Y-105200000D01*
X132373140Y-77229400D02*
X135471940Y-77229400D01*
X135471940Y-77229400D02*
X135471940Y-74130600D01*
X135471940Y-74130600D02*
X132373140Y-74130600D01*
X132373140Y-74130600D02*
X132373140Y-77229400D01*
X159732540Y-44650000D02*
X159732540Y-45150000D01*
X159732540Y-45150000D02*
X158732540Y-45150000D01*
X158732540Y-44650000D02*
X159732540Y-44650000D01*
X158732540Y-45150000D02*
X158732540Y-44650000D01*
X130785040Y-81100000D02*
X130785040Y-82700000D01*
X129960040Y-81100000D02*
X130785040Y-81100000D01*
X130785040Y-82700000D02*
X129960040Y-82700000D01*
X129960040Y-82700000D02*
X129960040Y-81100000D01*
X137992540Y-95967500D02*
X139192540Y-95967500D01*
X139192540Y-95967500D02*
X139192540Y-94267500D01*
X138892540Y-93967500D02*
X137992540Y-93967500D01*
X137992540Y-93967500D02*
X137992540Y-95967500D01*
X139192540Y-94267500D02*
X138892540Y-93967500D01*
X151582540Y-57700000D02*
X151082540Y-57700000D01*
X151582540Y-56700000D02*
X151582540Y-57700000D01*
X151082540Y-56700000D02*
X151582540Y-56700000D01*
X151082540Y-57700000D02*
X151082540Y-56700000D01*
X131862540Y-81972500D02*
X131862540Y-81147500D01*
X133462540Y-81147500D02*
X133462540Y-81972500D01*
X133462540Y-81972500D02*
X131862540Y-81972500D01*
X131862540Y-81147500D02*
X133462540Y-81147500D01*
X157482540Y-45600000D02*
X157482540Y-44600000D01*
X157982540Y-44600000D02*
X157982540Y-45600000D01*
X157982540Y-45600000D02*
X157482540Y-45600000D01*
X157482540Y-44600000D02*
X157982540Y-44600000D01*
X157397540Y-116010000D02*
X157397540Y-114010000D01*
X158647540Y-116010000D02*
X157397540Y-116010000D01*
X157397540Y-114010000D02*
X158647540Y-114010000D01*
X158647540Y-114010000D02*
X158647540Y-116010000D01*
X181032540Y-50000000D02*
X177032540Y-50000000D01*
X177032540Y-50000000D02*
X177032540Y-47000000D01*
X181032540Y-46000000D02*
X181032540Y-50000000D01*
X177032540Y-47000000D02*
X178032540Y-46000000D01*
X178032540Y-46000000D02*
X181032540Y-46000000D01*
X146782540Y-103450000D02*
X146782540Y-101450000D01*
X148032540Y-101450000D02*
X148032540Y-103450000D01*
X148032540Y-103450000D02*
X146782540Y-103450000D01*
X146782540Y-101450000D02*
X148032540Y-101450000D01*
X132325040Y-78480000D02*
X132325040Y-80080000D01*
X131500040Y-80080000D02*
X131500040Y-78480000D01*
X132325040Y-80080000D02*
X131500040Y-80080000D01*
X131500040Y-78480000D02*
X132325040Y-78480000D01*
X146482540Y-54300000D02*
X146482540Y-53300000D01*
X146982540Y-54300000D02*
X146482540Y-54300000D01*
X146482540Y-53300000D02*
X146982540Y-53300000D01*
X146982540Y-53300000D02*
X146982540Y-54300000D01*
X129597540Y-102330000D02*
X131502540Y-102330000D01*
X131502540Y-104870000D02*
X128962540Y-104870000D01*
X128962540Y-102965000D02*
X129597540Y-102330000D01*
X131502540Y-102330000D02*
X131502540Y-104870000D01*
X128962540Y-104870000D02*
X128962540Y-102965000D01*
X128962540Y-111565000D02*
X129597540Y-110930000D01*
X131502540Y-113470000D02*
X128962540Y-113470000D01*
X131502540Y-110930000D02*
X131502540Y-113470000D01*
X128962540Y-113470000D02*
X128962540Y-111565000D01*
X129597540Y-110930000D02*
X131502540Y-110930000D01*
X181932540Y-43950000D02*
X182932540Y-43950000D01*
X182932540Y-44450000D02*
X181932540Y-44450000D01*
X182932540Y-43950000D02*
X182932540Y-44450000D01*
X181932540Y-44450000D02*
X181932540Y-43950000D01*
X155347540Y-116010000D02*
X155347540Y-114010000D01*
X156597540Y-116010000D02*
X155347540Y-116010000D01*
X155347540Y-114010000D02*
X156597540Y-114010000D01*
X156597540Y-114010000D02*
X156597540Y-116010000D01*
X131352540Y-73130000D02*
X131352540Y-72330000D01*
X131352540Y-72330000D02*
X132952540Y-72330000D01*
X132952540Y-73130000D02*
X131352540Y-73130000D01*
X132952540Y-72330000D02*
X132952540Y-73130000D01*
X129960040Y-79675000D02*
X129960040Y-78075000D01*
X130785040Y-78075000D02*
X130785040Y-79675000D01*
X130785040Y-79675000D02*
X129960040Y-79675000D01*
X129960040Y-78075000D02*
X130785040Y-78075000D01*
X138432540Y-49750000D02*
X137432540Y-49750000D01*
X138432540Y-49250000D02*
X138432540Y-49750000D01*
X137432540Y-49250000D02*
X138432540Y-49250000D01*
X137432540Y-49750000D02*
X137432540Y-49250000D01*
X153573640Y-65179500D02*
X153573640Y-62322000D01*
X156240640Y-62322000D02*
X156240640Y-65878000D01*
X153573640Y-62322000D02*
X156240640Y-62322000D01*
X156240640Y-65878000D02*
X154272140Y-65878000D01*
X154272140Y-65878000D02*
X153573640Y-65179500D01*
X159682540Y-69025000D02*
X159682540Y-68050000D01*
X162582540Y-68050000D02*
X162582540Y-69350000D01*
X159682540Y-68050000D02*
X162582540Y-68050000D01*
X160007540Y-69350000D02*
X159682540Y-69025000D01*
X162582540Y-69350000D02*
X160007540Y-69350000D01*
X152532540Y-70850000D02*
X154632540Y-70850000D01*
X152532540Y-68750000D02*
X152532540Y-70850000D01*
X154632540Y-70850000D02*
X154932540Y-70500000D01*
X154932540Y-70500000D02*
X154932540Y-68750000D01*
X154932540Y-68750000D02*
X152532540Y-68750000D01*
X147332540Y-109000000D02*
X147332540Y-111000000D01*
X146082540Y-109000000D02*
X147332540Y-109000000D01*
X147332540Y-111000000D02*
X146082540Y-111000000D01*
X146082540Y-111000000D02*
X146082540Y-109000000D01*
X148382540Y-46600000D02*
X147882540Y-46600000D01*
X147882540Y-46600000D02*
X147882540Y-45600000D01*
X148382540Y-45600000D02*
X148382540Y-46600000D01*
X147882540Y-45600000D02*
X148382540Y-45600000D01*
X168332540Y-53250000D02*
X167332540Y-53250000D01*
X167332540Y-53250000D02*
X167332540Y-52750000D01*
X167332540Y-52750000D02*
X168332540Y-52750000D01*
X168332540Y-52750000D02*
X168332540Y-53250000D01*
X143082540Y-51700000D02*
X143082540Y-50700000D01*
X143082540Y-50700000D02*
X143582540Y-50700000D01*
X143582540Y-51700000D02*
X143082540Y-51700000D01*
X143582540Y-50700000D02*
X143582540Y-51700000D01*
X184232540Y-43850000D02*
X186032540Y-43850000D01*
X185132540Y-46350000D02*
X186132540Y-45350000D01*
X184232540Y-46350000D02*
X184132540Y-46250000D01*
X186132540Y-46250000D02*
X186032540Y-46350000D01*
X184132540Y-43950000D02*
X184232540Y-43850000D01*
X186132540Y-43950000D02*
X186132540Y-46250000D01*
X186032540Y-43850000D02*
X186132540Y-43950000D01*
X186032540Y-46350000D02*
X184232540Y-46350000D01*
X184132540Y-46250000D02*
X184132540Y-43950000D01*
X155332540Y-57587500D02*
X155332540Y-58412500D01*
X155332540Y-58412500D02*
X153732540Y-58412500D01*
X153732540Y-57587500D02*
X155332540Y-57587500D01*
X153732540Y-58412500D02*
X153732540Y-57587500D01*
X150220040Y-73100000D02*
X150220040Y-71500000D01*
X151045040Y-71500000D02*
X151045040Y-73100000D01*
X151045040Y-73100000D02*
X150220040Y-73100000D01*
X150220040Y-71500000D02*
X151045040Y-71500000D01*
X147132540Y-47487500D02*
X147132540Y-48312500D01*
X147132540Y-48312500D02*
X145532540Y-48312500D01*
X145532540Y-48312500D02*
X145532540Y-47487500D01*
X145532540Y-47487500D02*
X147132540Y-47487500D01*
X177732540Y-52750000D02*
X176732540Y-52750000D01*
X177732540Y-52250000D02*
X177732540Y-52750000D01*
X176732540Y-52750000D02*
X176732540Y-52250000D01*
X176732540Y-52250000D02*
X177732540Y-52250000D01*
X169582540Y-53000000D02*
X169582540Y-54000000D01*
X169082540Y-54000000D02*
X169082540Y-53000000D01*
X169082540Y-53000000D02*
X169582540Y-53000000D01*
X169582540Y-54000000D02*
X169082540Y-54000000D01*
X144220040Y-51000000D02*
X144220040Y-49400000D01*
X145045040Y-51000000D02*
X144220040Y-51000000D01*
X145045040Y-49400000D02*
X145045040Y-51000000D01*
X144220040Y-49400000D02*
X145045040Y-49400000D01*
X152732540Y-72825000D02*
X152732540Y-71575000D01*
X154732540Y-71575000D02*
X154732540Y-72825000D01*
X154732540Y-72825000D02*
X152732540Y-72825000D01*
X152732540Y-71575000D02*
X154732540Y-71575000D01*
X183045040Y-54900000D02*
X182220040Y-54900000D01*
X182220040Y-54900000D02*
X182220040Y-53300000D01*
X183045040Y-53300000D02*
X183045040Y-54900000D01*
X182220040Y-53300000D02*
X183045040Y-53300000D01*
X131502540Y-98030000D02*
X131502540Y-100570000D01*
X128962540Y-100570000D02*
X128962540Y-98665000D01*
X131502540Y-100570000D02*
X128962540Y-100570000D01*
X128962540Y-98665000D02*
X129597540Y-98030000D01*
X129597540Y-98030000D02*
X131502540Y-98030000D01*
X148732540Y-59550000D02*
X148732540Y-59050000D01*
X149732540Y-59550000D02*
X148732540Y-59550000D01*
X148732540Y-59050000D02*
X149732540Y-59050000D01*
X149732540Y-59050000D02*
X149732540Y-59550000D01*
X163707540Y-104225000D02*
X164207540Y-103725000D01*
X163707540Y-113725000D02*
X163707540Y-103725000D01*
X173707540Y-103725000D02*
X173707540Y-113725000D01*
X163707540Y-103725000D02*
X173707540Y-103725000D01*
X173707540Y-113725000D02*
X163707540Y-113725000D01*
X157432540Y-57287500D02*
X159032540Y-57287500D01*
X159032540Y-57287500D02*
X159032540Y-58112500D01*
X159032540Y-58112500D02*
X157432540Y-58112500D01*
X157432540Y-58112500D02*
X157432540Y-57287500D01*
X128772540Y-68920000D02*
X128972540Y-68520000D01*
X138572540Y-69920000D02*
X138272540Y-70320000D01*
X138772540Y-61720000D02*
X138872540Y-61320000D01*
X132272540Y-70620000D02*
X131672540Y-70420000D01*
X127572540Y-68620000D02*
X127572540Y-71520000D01*
X133772540Y-59720000D02*
X132972540Y-59820000D01*
X135472540Y-60020000D02*
X134672540Y-59820000D01*
X139972540Y-59120000D02*
X127572540Y-59120000D01*
X132072540Y-60020000D02*
X131172540Y-60420000D01*
X138672540Y-62020000D02*
X138772540Y-61720000D01*
X128772540Y-61820000D02*
X128972540Y-62120000D01*
X131672540Y-70420000D02*
X131172540Y-70220000D01*
X139972540Y-71520000D02*
X139972540Y-68620000D01*
X139972540Y-59120000D02*
X139972540Y-62020000D01*
X138772540Y-69620000D02*
X138572540Y-69920000D01*
X138872540Y-61320000D02*
X138772540Y-61020000D01*
X138572540Y-60620000D02*
X138272540Y-60420000D01*
X127572540Y-59120000D02*
X127572540Y-62020000D01*
X129172540Y-60520000D02*
X128872540Y-60820000D01*
X137672540Y-60220000D02*
X137372540Y-60320000D01*
X130772540Y-70020000D02*
X130472540Y-70220000D01*
X128872540Y-60820000D02*
X128672540Y-61320000D01*
X130072540Y-60220000D02*
X129572540Y-60320000D01*
X130472540Y-70220000D02*
X129872540Y-70420000D01*
X137072540Y-60420000D02*
X136772540Y-60720000D01*
X134672540Y-59820000D02*
X133772540Y-59720000D01*
X130772540Y-60620000D02*
X130472540Y-60420000D01*
X138772540Y-68720000D02*
X138872540Y-69120000D01*
X135372540Y-70620000D02*
X134372540Y-70820000D01*
X129572540Y-60320000D02*
X129172540Y-60520000D01*
X137372540Y-60320000D02*
X137072540Y-60420000D01*
X138272540Y-70320000D02*
X137772540Y-70420000D01*
X127572540Y-71520000D02*
X139972540Y-71520000D01*
X136772540Y-69920000D02*
X136172540Y-70320000D01*
X136872540Y-70020000D02*
X136772540Y-69920000D01*
X135972540Y-60220000D02*
X135472540Y-60020000D01*
X138872540Y-69120000D02*
X138772540Y-69620000D01*
X131172540Y-60420000D02*
X130772540Y-60620000D01*
X129472540Y-70320000D02*
X129172540Y-70120000D01*
X128872540Y-69920000D02*
X128672540Y-69420000D01*
X137272540Y-70320000D02*
X136872540Y-70020000D01*
X136772540Y-60720000D02*
X136372540Y-60420000D01*
X136172540Y-70320000D02*
X135372540Y-70620000D01*
X128672540Y-69420000D02*
X128772540Y-68920000D01*
X129172540Y-70120000D02*
X128872540Y-69920000D01*
X132972540Y-59820000D02*
X132072540Y-60020000D01*
X133172540Y-70820000D02*
X132272540Y-70620000D01*
X130472540Y-60420000D02*
X130072540Y-60220000D01*
X137972540Y-60220000D02*
X137672540Y-60220000D01*
X131172540Y-70220000D02*
X130772540Y-70020000D01*
X137772540Y-70420000D02*
X137272540Y-70320000D01*
X138272540Y-60420000D02*
X137972540Y-60220000D01*
X138772540Y-61020000D02*
X138572540Y-60620000D01*
X128672540Y-61320000D02*
X128772540Y-61820000D01*
X129872540Y-70420000D02*
X129472540Y-70320000D01*
X136372540Y-60420000D02*
X135972540Y-60220000D01*
X138672540Y-68620000D02*
X138772540Y-68720000D01*
X134372540Y-70820000D02*
X133172540Y-70820000D01*
X132063052Y-68320000D02*
G75*
G03*
X132063052Y-68320000I-390512J0D01*
G01*
X142107540Y-49500000D02*
X142107540Y-47500000D01*
X143357540Y-47500000D02*
X143357540Y-49500000D01*
X142107540Y-47500000D02*
X143357540Y-47500000D01*
X143357540Y-49500000D02*
X142107540Y-49500000D01*
X150532540Y-67325000D02*
X150532540Y-66075000D01*
X150532540Y-66075000D02*
X152532540Y-66075000D01*
X152532540Y-67325000D02*
X150532540Y-67325000D01*
X152532540Y-66075000D02*
X152532540Y-67325000D01*
X145820040Y-51000000D02*
X145820040Y-49400000D01*
X146645040Y-49400000D02*
X146645040Y-51000000D01*
X145820040Y-49400000D02*
X146645040Y-49400000D01*
X146645040Y-51000000D02*
X145820040Y-51000000D01*
X151182540Y-44600000D02*
X151182540Y-45600000D01*
X150682540Y-44600000D02*
X151182540Y-44600000D01*
X150682540Y-45600000D02*
X150682540Y-44600000D01*
X151182540Y-45600000D02*
X150682540Y-45600000D01*
X158682540Y-54000000D02*
X158182540Y-54000000D01*
X158182540Y-54000000D02*
X158182540Y-53000000D01*
X158182540Y-53000000D02*
X158682540Y-53000000D01*
X158682540Y-53000000D02*
X158682540Y-54000000D01*
X170332540Y-53250000D02*
X170332540Y-52750000D01*
X170332540Y-52750000D02*
X171332540Y-52750000D01*
X171332540Y-52750000D02*
X171332540Y-53250000D01*
X171332540Y-53250000D02*
X170332540Y-53250000D01*
X159287540Y-103510000D02*
X159287540Y-105510000D01*
X158037540Y-103510000D02*
X159287540Y-103510000D01*
X159287540Y-105510000D02*
X158037540Y-105510000D01*
X158037540Y-105510000D02*
X158037540Y-103510000D01*
X164532540Y-116175000D02*
X164532540Y-117425000D01*
X164532540Y-117425000D02*
X162532540Y-117425000D01*
X162532540Y-116175000D02*
X164532540Y-116175000D01*
X162532540Y-117425000D02*
X162532540Y-116175000D01*
X140922540Y-73590000D02*
X140922540Y-73740000D01*
X141122540Y-73290000D02*
X140722540Y-73290000D01*
X140472540Y-72740000D02*
X141372540Y-72740000D01*
X140922540Y-73290000D02*
X140922540Y-73140000D01*
X140922540Y-73590000D02*
X141122540Y-73290000D01*
X141372540Y-72740000D02*
X141372540Y-74040000D01*
X140472540Y-74040000D02*
X140472540Y-72740000D01*
X141372540Y-74040000D02*
X140472540Y-74040000D01*
X141122540Y-73590000D02*
X140722540Y-73590000D01*
X140722540Y-73290000D02*
X140922540Y-73590000D01*
X188557540Y-52700000D02*
X187307540Y-52700000D01*
X187307540Y-52700000D02*
X187307540Y-50700000D01*
X187307540Y-50700000D02*
X188557540Y-50700000D01*
X188557540Y-50700000D02*
X188557540Y-52700000D01*
X147732540Y-53050000D02*
X148732540Y-53050000D01*
X147732540Y-53550000D02*
X147732540Y-53050000D01*
X148732540Y-53050000D02*
X148732540Y-53550000D01*
X148732540Y-53550000D02*
X147732540Y-53550000D01*
X124962540Y-109270000D02*
X124962540Y-107365000D01*
X127502540Y-109270000D02*
X124962540Y-109270000D01*
X124962540Y-107365000D02*
X125597540Y-106730000D01*
X127502540Y-106730000D02*
X127502540Y-109270000D01*
X125597540Y-106730000D02*
X127502540Y-106730000D01*
X129322540Y-82412500D02*
X129322540Y-76112500D01*
X125022540Y-82412500D02*
X129322540Y-82412500D01*
X129322540Y-76112500D02*
X128322540Y-75112500D01*
X128322540Y-75112500D02*
X125022540Y-75112500D01*
X125022540Y-75112500D02*
X125022540Y-82412500D01*
X178232540Y-107875000D02*
X178232540Y-109125000D01*
X176232540Y-107875000D02*
X178232540Y-107875000D01*
X176232540Y-109125000D02*
X176232540Y-107875000D01*
X178232540Y-109125000D02*
X176232540Y-109125000D01*
X177647540Y-105150000D02*
X176397540Y-105150000D01*
X177647540Y-103150000D02*
X177647540Y-105150000D01*
X176397540Y-105150000D02*
X176397540Y-103150000D01*
X176397540Y-103150000D02*
X177647540Y-103150000D01*
X139432540Y-53925000D02*
X141432540Y-53925000D01*
X141432540Y-53925000D02*
X141432540Y-52675000D01*
X139432540Y-52675000D02*
X139432540Y-53925000D01*
X141432540Y-52675000D02*
X139432540Y-52675000D01*
X151682540Y-45600000D02*
X151682540Y-44600000D01*
X152182540Y-44600000D02*
X152182540Y-45600000D01*
X152182540Y-45600000D02*
X151682540Y-45600000D01*
X151682540Y-44600000D02*
X152182540Y-44600000D01*
X158632540Y-69087500D02*
X158632540Y-69912500D01*
X158632540Y-69912500D02*
X157032540Y-69912500D01*
X157032540Y-69087500D02*
X158632540Y-69087500D01*
X157032540Y-69912500D02*
X157032540Y-69087500D01*
X130772540Y-75045000D02*
X130772540Y-76645000D01*
X130772540Y-76645000D02*
X129972540Y-76645000D01*
X129972540Y-76645000D02*
X129972540Y-75045000D01*
X129972540Y-75045000D02*
X130772540Y-75045000D01*
X149982540Y-54300000D02*
X149482540Y-54300000D01*
X149482540Y-53300000D02*
X149982540Y-53300000D01*
X149482540Y-54300000D02*
X149482540Y-53300000D01*
X149982540Y-53300000D02*
X149982540Y-54300000D01*
X157020040Y-65200000D02*
X157020040Y-63600000D01*
X157845040Y-63600000D02*
X157845040Y-65200000D01*
X157020040Y-63600000D02*
X157845040Y-63600000D01*
X157845040Y-65200000D02*
X157020040Y-65200000D01*
X159932540Y-63750000D02*
X160282540Y-64100000D01*
X159932540Y-63750000D02*
X158582540Y-63750000D01*
X158582540Y-63750000D02*
X158582540Y-65050000D01*
X160282540Y-65050000D02*
X160282540Y-64100000D01*
X158582540Y-65050000D02*
X160282540Y-65050000D01*
D10*
X152182540Y-50000000D02*
X152182540Y-49000000D01*
X154882540Y-49000000D02*
X154882540Y-50000000D01*
X154882540Y-49000000D02*
X152182540Y-49000000D01*
X152182540Y-50000000D02*
X154882540Y-50000000D01*
D11*
X124132540Y-69635000D02*
X126132540Y-69635000D01*
X126132540Y-70885000D02*
X124132540Y-70885000D01*
X124132540Y-70885000D02*
X124132540Y-69635000D01*
X126132540Y-69635000D02*
X126132540Y-70885000D01*
X150857540Y-109000000D02*
X150857540Y-111000000D01*
X149607540Y-109000000D02*
X150857540Y-109000000D01*
X149607540Y-111000000D02*
X149607540Y-109000000D01*
X150857540Y-111000000D02*
X149607540Y-111000000D01*
X177532540Y-58925000D02*
X175532540Y-58925000D01*
X175532540Y-57675000D02*
X177532540Y-57675000D01*
X175532540Y-58925000D02*
X175532540Y-57675000D01*
X177532540Y-57675000D02*
X177532540Y-58925000D01*
X158342540Y-101785000D02*
X156342540Y-101785000D01*
X158342540Y-100535000D02*
X158342540Y-101785000D01*
X156342540Y-100535000D02*
X158342540Y-100535000D01*
X156342540Y-101785000D02*
X156342540Y-100535000D01*
X133832540Y-80080000D02*
X133032540Y-80080000D01*
X133032540Y-78480000D02*
X133832540Y-78480000D01*
X133032540Y-80080000D02*
X133032540Y-78480000D01*
X133832540Y-78480000D02*
X133832540Y-80080000D01*
X125597540Y-110930000D02*
X127502540Y-110930000D01*
X124962540Y-111565000D02*
X125597540Y-110930000D01*
X127502540Y-110930000D02*
X127502540Y-113470000D01*
X127502540Y-113470000D02*
X124962540Y-113470000D01*
X124962540Y-113470000D02*
X124962540Y-111565000D01*
X146632540Y-44800000D02*
X146632540Y-46800000D01*
X144632540Y-46800000D02*
X144632540Y-45300000D01*
X145132540Y-44800000D02*
X146632540Y-44800000D01*
X146632540Y-46800000D02*
X144632540Y-46800000D01*
X144632540Y-45300000D02*
X145132540Y-44800000D01*
X141682540Y-44500000D02*
X141682540Y-45500000D01*
X141182540Y-44500000D02*
X141682540Y-44500000D01*
X141682540Y-45500000D02*
X141182540Y-45500000D01*
X141182540Y-45500000D02*
X141182540Y-44500000D01*
X153717540Y-114600000D02*
X153717540Y-116600000D01*
X152467540Y-116600000D02*
X152467540Y-114600000D01*
X153717540Y-116600000D02*
X152467540Y-116600000D01*
X152467540Y-114600000D02*
X153717540Y-114600000D01*
X152467540Y-115250000D02*
X153117540Y-114600000D01*
X152832540Y-45850000D02*
X152832540Y-45350000D01*
X152832540Y-45350000D02*
X153832540Y-45350000D01*
X153832540Y-45850000D02*
X152832540Y-45850000D01*
X153832540Y-45350000D02*
X153832540Y-45850000D01*
X140107540Y-47500000D02*
X141357540Y-47500000D01*
X141357540Y-47500000D02*
X141357540Y-49500000D01*
X140107540Y-49500000D02*
X140107540Y-47500000D01*
X141357540Y-49500000D02*
X140107540Y-49500000D01*
X140502540Y-89042500D02*
X140502540Y-90292500D01*
X140502540Y-90292500D02*
X138502540Y-90292500D01*
X138502540Y-90292500D02*
X138502540Y-89042500D01*
X138502540Y-89042500D02*
X140502540Y-89042500D01*
X172082540Y-53000000D02*
X172582540Y-53000000D01*
X172582540Y-53000000D02*
X172582540Y-54000000D01*
X172082540Y-54000000D02*
X172082540Y-53000000D01*
X172582540Y-54000000D02*
X172082540Y-54000000D01*
X154632540Y-61100000D02*
G75*
G03*
X154632540Y-61100000I-500000J0D01*
G01*
X158587540Y-112030000D02*
X157337540Y-112030000D01*
X157337540Y-112030000D02*
X157337540Y-110030000D01*
X157337540Y-110030000D02*
X158587540Y-110030000D01*
X158587540Y-110030000D02*
X158587540Y-112030000D01*
X137947540Y-77460000D02*
X137947540Y-75460000D01*
X139197540Y-77460000D02*
X137947540Y-77460000D01*
X137947540Y-75460000D02*
X139197540Y-75460000D01*
X139197540Y-75460000D02*
X139197540Y-77460000D01*
X186132540Y-50625000D02*
X184132540Y-50625000D01*
X184132540Y-49375000D02*
X186132540Y-49375000D01*
X186132540Y-49375000D02*
X186132540Y-50625000D01*
X184132540Y-50625000D02*
X184132540Y-49375000D01*
X166582540Y-54000000D02*
X166082540Y-54000000D01*
X166082540Y-54000000D02*
X166082540Y-53000000D01*
X166582540Y-53000000D02*
X166582540Y-54000000D01*
X166082540Y-53000000D02*
X166582540Y-53000000D01*
X146032540Y-101450000D02*
X146032540Y-103450000D01*
X146032540Y-103450000D02*
X144782540Y-103450000D01*
X144782540Y-103450000D02*
X144782540Y-101450000D01*
X144782540Y-101450000D02*
X146032540Y-101450000D01*
X150820040Y-61100000D02*
X150820040Y-59500000D01*
X151645040Y-61100000D02*
X150820040Y-61100000D01*
X150820040Y-59500000D02*
X151645040Y-59500000D01*
X151645040Y-59500000D02*
X151645040Y-61100000D01*
X154732540Y-45350000D02*
X155732540Y-45350000D01*
X155732540Y-45350000D02*
X155732540Y-45850000D01*
X154732540Y-45850000D02*
X154732540Y-45350000D01*
X155732540Y-45850000D02*
X154732540Y-45850000D01*
X138982540Y-52050000D02*
X137882540Y-52050000D01*
X137882540Y-50550000D02*
X138982540Y-50550000D01*
X138982540Y-50550000D02*
X138982540Y-52050000D01*
X137882540Y-52050000D02*
X137882540Y-50550000D01*
X158745040Y-71000000D02*
X158745040Y-72600000D01*
X158745040Y-72600000D02*
X157920040Y-72600000D01*
X157920040Y-71000000D02*
X158745040Y-71000000D01*
X157920040Y-72600000D02*
X157920040Y-71000000D01*
X178720040Y-57400000D02*
X178720040Y-55800000D01*
X179545040Y-55800000D02*
X179545040Y-57400000D01*
X179545040Y-57400000D02*
X178720040Y-57400000D01*
X178720040Y-55800000D02*
X179545040Y-55800000D01*
X148632540Y-49825000D02*
X148632540Y-48575000D01*
X150632540Y-49825000D02*
X148632540Y-49825000D01*
X148632540Y-48575000D02*
X150632540Y-48575000D01*
X150632540Y-48575000D02*
X150632540Y-49825000D01*
X184082540Y-54000000D02*
X183682540Y-53600000D01*
X183682540Y-53600000D02*
X183682540Y-52400000D01*
X186582540Y-52400000D02*
X186582540Y-54000000D01*
X186582540Y-54000000D02*
X184082540Y-54000000D01*
X183682540Y-52400000D02*
X186582540Y-52400000D01*
X164682540Y-100305000D02*
X164682540Y-101555000D01*
X164682540Y-101555000D02*
X162682540Y-101555000D01*
X162682540Y-101555000D02*
X162682540Y-100305000D01*
X162682540Y-100305000D02*
X164682540Y-100305000D01*
X186132540Y-48525000D02*
X184132540Y-48525000D01*
X186132540Y-47275000D02*
X186132540Y-48525000D01*
X184132540Y-47275000D02*
X186132540Y-47275000D01*
X184132540Y-48525000D02*
X184132540Y-47275000D01*
X133010040Y-84640000D02*
X133010040Y-83040000D01*
X133010040Y-83040000D02*
X133835040Y-83040000D01*
X133835040Y-83040000D02*
X133835040Y-84640000D01*
X133835040Y-84640000D02*
X133010040Y-84640000D01*
X153145040Y-61100000D02*
X152320040Y-61100000D01*
X153145040Y-59500000D02*
X153145040Y-61100000D01*
X152320040Y-61100000D02*
X152320040Y-59500000D01*
X152320040Y-59500000D02*
X153145040Y-59500000D01*
X160627540Y-112020000D02*
X159377540Y-112020000D01*
X159377540Y-110020000D02*
X160627540Y-110020000D01*
X159377540Y-112020000D02*
X159377540Y-110020000D01*
X160627540Y-110020000D02*
X160627540Y-112020000D01*
X149332540Y-47450000D02*
X149332540Y-47950000D01*
X148332540Y-47950000D02*
X148332540Y-47450000D01*
X149332540Y-47950000D02*
X148332540Y-47950000D01*
X148332540Y-47450000D02*
X149332540Y-47450000D01*
X136657540Y-88147500D02*
X136657540Y-90147500D01*
X136657540Y-90147500D02*
X135407540Y-90147500D01*
X135407540Y-90147500D02*
X135407540Y-88147500D01*
X135407540Y-88147500D02*
X136657540Y-88147500D01*
X143192540Y-75520000D02*
X139892540Y-75520000D01*
X144192540Y-82820000D02*
X144192540Y-76520000D01*
X139892540Y-75520000D02*
X139892540Y-82820000D01*
X144192540Y-76520000D02*
X143192540Y-75520000D01*
X139892540Y-82820000D02*
X144192540Y-82820000D01*
X131502540Y-106730000D02*
X131502540Y-109270000D01*
X129597540Y-106730000D02*
X131502540Y-106730000D01*
X128962540Y-107365000D02*
X129597540Y-106730000D01*
X131502540Y-109270000D02*
X128962540Y-109270000D01*
X128962540Y-109270000D02*
X128962540Y-107365000D01*
X157432540Y-52750000D02*
X157432540Y-53250000D01*
X156432540Y-52750000D02*
X157432540Y-52750000D01*
X156432540Y-53250000D02*
X156432540Y-52750000D01*
X157432540Y-53250000D02*
X156432540Y-53250000D01*
X186132540Y-55775000D02*
X186132540Y-57025000D01*
X186132540Y-57025000D02*
X184132540Y-57025000D01*
X184132540Y-55775000D02*
X186132540Y-55775000D01*
X184132540Y-57025000D02*
X184132540Y-55775000D01*
X180007540Y-123680000D02*
X178962540Y-123680000D01*
X184462540Y-122410000D02*
X184462540Y-122810000D01*
X178962540Y-121540000D02*
X180007540Y-121540000D01*
X178962540Y-118600000D02*
X178962540Y-119000000D01*
X183417540Y-118165000D02*
X183417540Y-124515000D01*
X184462540Y-121140000D02*
X184462540Y-121540000D01*
X184462540Y-119870000D02*
X184462540Y-120270000D01*
X180442540Y-118165000D02*
X183417540Y-118165000D01*
X180007540Y-118600000D02*
X178962540Y-118600000D01*
X184462540Y-119000000D02*
X183417540Y-119000000D01*
X178962540Y-124080000D02*
X180007540Y-124080000D01*
X178962540Y-123680000D02*
X178962540Y-124080000D01*
X180007540Y-119870000D02*
X178962540Y-119870000D01*
X184462540Y-118600000D02*
X184462540Y-119000000D01*
X180007540Y-124515000D02*
X180007540Y-118600000D01*
X184462540Y-120270000D02*
X183417540Y-120270000D01*
X184462540Y-123680000D02*
X184462540Y-124080000D01*
X184462540Y-124080000D02*
X183417540Y-124080000D01*
X178962540Y-119870000D02*
X178962540Y-120270000D01*
X180007540Y-118600000D02*
X180442540Y-118165000D01*
X178962540Y-121140000D02*
X178962540Y-121540000D01*
X183417540Y-118600000D02*
X184462540Y-118600000D01*
X184462540Y-121540000D02*
X183417540Y-121540000D01*
X178962540Y-122410000D02*
X178962540Y-122810000D01*
X183417540Y-123680000D02*
X184462540Y-123680000D01*
X183417540Y-122410000D02*
X184462540Y-122410000D01*
X180007540Y-121140000D02*
X178962540Y-121140000D01*
X178962540Y-120270000D02*
X180007540Y-120270000D01*
X178962540Y-122810000D02*
X180007540Y-122810000D01*
X180007540Y-122410000D02*
X178962540Y-122410000D01*
X183417540Y-121140000D02*
X184462540Y-121140000D01*
X183417540Y-124515000D02*
X180007540Y-124515000D01*
X184462540Y-122810000D02*
X183417540Y-122810000D01*
X183417540Y-119870000D02*
X184462540Y-119870000D01*
X178962540Y-119000000D02*
X180007540Y-119000000D01*
M02*
