M48
; DRILL file {KiCad (6.0.1)} date Mon Jan  9 21:21:49 2023
; FORMAT={-:-/ absolute / inch / decimal}
; #@! TF.CreationDate,2023-01-09T21:21:49+01:00
; #@! TF.GenerationSoftware,Kicad,Pcbnew,(6.0.1)
; #@! TF.FileFunction,Plated,1,4,PTH
FMAT,2
INCH
; #@! TA.AperFunction,Plated,PTH,ViaDrill
T1C0.0079
; #@! TA.AperFunction,Plated,PTH,ComponentDrill
T2C0.0079
; #@! TA.AperFunction,Plated,PTH,ComponentDrill
T3C0.0100
; #@! TA.AperFunction,Plated,PTH,ViaDrill
T4C0.0118
; #@! TA.AperFunction,Plated,PTH,ComponentDrill
T5C0.0236
; #@! TA.AperFunction,Plated,PTH,ComponentDrill
T6C0.0315
; #@! TA.AperFunction,Plated,PTH,ComponentDrill
T7C0.0394
; #@! TA.AperFunction,Plated,PTH,ComponentDrill
T8C0.0472
; #@! TA.AperFunction,Plated,PTH,ComponentDrill
T9C0.0669
; #@! TA.AperFunction,Plated,PTH,ComponentDrill
T10C0.1693
%
G90
G05
T1
X4.8459Y-3.0371
X4.8459Y-3.0621
X4.8459Y-3.0871
X4.8463Y-2.9524
X4.8463Y-2.9774
X4.8694Y-4.2386
X4.8694Y-4.2586
X4.8713Y-2.9524
X4.8713Y-2.9774
X5.0413Y-2.9674
X5.0563Y-2.8124
X5.0663Y-3.0174
X5.2014Y-4.9166
X5.2075Y-3.0237
X5.2096Y-2.979
X5.2096Y-2.999
X5.2164Y-4.9316
X5.2195Y-2.8824
X5.3259Y-3.4271
X5.3509Y-3.4271
X5.3663Y-2.9974
X5.3663Y-3.0224
X5.3663Y-3.0474
X5.3663Y-3.0724
X5.3759Y-3.4271
X5.3809Y-3.6671
X5.3809Y-3.6871
X5.3913Y-2.9974
X5.3959Y-3.4271
X5.4009Y-3.6871
X5.4009Y-3.7071
X5.4009Y-3.7271
X5.4163Y-2.9974
X5.4559Y-3.4771
X5.4563Y-2.9574
X5.4759Y-3.4771
X5.4813Y-2.9574
X5.4959Y-3.4771
X5.5063Y-2.9574
X5.5313Y-2.9574
X5.5563Y-2.9574
X5.5813Y-2.9574
X5.5859Y-3.5121
X5.5859Y-3.5321
X5.5859Y-3.5521
X5.5859Y-3.5721
X5.5913Y-2.6824
X5.6209Y-2.4571
X5.6209Y-2.4771
X5.6209Y-2.4971
X5.6209Y-2.5171
X5.6209Y-2.5371
X5.6209Y-2.5571
X5.6209Y-2.5771
X5.8028Y-3.3022
X5.8278Y-3.3022
X5.8528Y-3.3022
X5.8778Y-3.3022
X5.8809Y-2.6021
X5.8809Y-2.6221
X5.8809Y-2.6421
X5.8809Y-2.6621
X5.9028Y-3.3022
X5.9278Y-3.3022
X5.9528Y-3.3022
X5.9778Y-3.3022
X6.3559Y-4.3321
X6.3611Y-4.311
X6.7209Y-3.8121
X6.7509Y-3.8571
X6.8709Y-2.1121
X6.8709Y-2.1371
X6.8709Y-2.1621
X6.8709Y-2.1871
X6.8709Y-2.2121
X6.8709Y-2.2371
X6.8709Y-2.2621
X6.8709Y-2.2871
X6.8709Y-2.3121
X6.8709Y-2.3371
X6.8709Y-2.3571
X6.8709Y-2.3771
X6.8709Y-2.3971
X6.8709Y-2.4171
X7.0159Y-4.1021
X7.0159Y-4.1271
X7.0993Y-4.2245
X7.1611Y-1.8904
X7.1809Y-1.8721
X7.1859Y-3.7871
X7.1959Y-1.9521
X7.2209Y-4.1021
X7.2859Y-4.1771
X7.3059Y-3.6871
X7.3159Y-3.8721
X7.487Y-3.8612
X7.5059Y-3.9521
X7.5309Y-3.9521
T2
X5.9924Y-2.064
X5.9924Y-2.1073
X5.9924Y-2.1506
X6.0357Y-2.064
X6.0357Y-2.1073
X6.0357Y-2.1506
X6.0787Y-2.5236
X6.079Y-2.064
X6.079Y-2.1073
X6.079Y-2.1506
X6.1207Y-2.5236
X7.0072Y-1.8484
X7.0072Y-1.9311
X7.0899Y-1.8484
X7.0899Y-1.9311
T3
X5.7336Y-1.7782
X5.7336Y-1.8031
X5.7336Y-1.8281
T4
X4.8548Y-2.3219
X4.8548Y-2.3612
X4.8694Y-4.2835
X4.8942Y-2.3219
X4.8942Y-2.3612
X4.9335Y-2.3219
X4.9335Y-2.3612
X4.9729Y-2.3219
X4.9729Y-2.3612
X5.0713Y-2.6846
X5.0763Y-2.3022
X5.1156Y-2.3022
X5.1229Y-4.6972
X5.155Y-2.3022
X5.1824Y-4.5866
X5.1844Y-4.8996
X5.1883Y-4.6961
X5.1883Y-4.7555
X5.1944Y-2.3022
X5.2218Y-1.9803
X5.2218Y-2.0591
X5.2446Y-4.7531
X5.2446Y-4.811
X5.2731Y-2.3022
X5.3084Y-1.9803
X5.3084Y-2.0591
X5.332Y-1.9803
X5.332Y-2.0591
X5.3391Y-4.5283
X5.3556Y-1.9803
X5.3556Y-2.0591
X5.3655Y-4.5283
X5.3715Y-2.3022
X5.3792Y-1.8622
X5.3792Y-1.8858
X5.3792Y-1.9094
X5.3792Y-1.9331
X5.3792Y-1.9567
X5.3792Y-1.9803
X5.3792Y-2.0591
X5.4029Y-1.7441
X5.4029Y-1.7677
X5.4029Y-1.7913
X5.4029Y-1.815
X5.4029Y-1.8386
X5.4029Y-1.8622
X5.4029Y-1.9803
X5.4029Y-2.0591
X5.4029Y-2.0906
X5.406Y-2.7043
X5.4109Y-2.3022
X5.4135Y-4.6972
X5.4147Y-4.6213
X5.4265Y-1.7441
X5.4387Y-4.5343
X5.4454Y-2.7043
X5.4501Y-1.7441
X5.4503Y-2.3022
X5.458Y-2.1299
X5.4737Y-1.7441
X5.4784Y-4.5331
X5.4816Y-2.0669
X5.4816Y-2.1299
X5.4847Y-2.7043
X5.4847Y-4.6996
X5.4847Y-4.7665
X5.4895Y-1.9252
X5.4895Y-1.9488
X5.4896Y-2.3022
X5.4973Y-1.7205
X5.4973Y-1.7441
X5.4973Y-1.8307
X5.4973Y-1.8543
X5.4973Y-1.878
X5.4973Y-1.9016
X5.517Y-4.5728
X5.5182Y-4.5323
X5.521Y-1.7205
X5.521Y-1.8307
X5.5241Y-2.7043
X5.5328Y-2.0118
X5.5446Y-1.7205
X5.5446Y-1.8307
X5.5552Y-4.7677
X5.5576Y-4.5319
X5.5595Y-4.6201
X5.5599Y-4.572
X5.5682Y-1.7205
X5.5682Y-1.8307
X5.5761Y-2.0669
X5.5761Y-2.1299
X5.5918Y-1.7205
X5.5918Y-1.8307
X5.5918Y-2.0433
X5.5997Y-2.1457
X5.6155Y-1.7205
X5.6155Y-1.7441
X5.6155Y-1.8307
X5.6155Y-2.0591
X5.6233Y-2.1457
X5.6391Y-1.7441
X5.6391Y-1.8307
X5.6391Y-2.0591
X5.647Y-2.1457
X5.6627Y-1.7441
X5.6855Y-1.9086
X5.6863Y-1.7441
X5.7099Y-1.7441
X5.7099Y-2.0591
X5.7099Y-4.8425
X5.7178Y-2.1457
X5.7206Y-4.2516
X5.7277Y-4.3563
X5.7336Y-1.7441
X5.7336Y-2.0591
X5.7414Y-2.1457
X5.7414Y-2.1693
X5.7572Y-1.7441
X5.7572Y-2.0591
X5.7651Y-2.1693
X5.7652Y-2.8337
X5.7692Y-2.2904
X5.7808Y-1.7441
X5.7808Y-2.0591
X5.7966Y-4.8189
X5.8044Y-1.7441
X5.8046Y-2.7943
X5.8046Y-2.8337
X5.8123Y-1.9074
X5.8123Y-1.937
X5.8281Y-1.7441
X5.8281Y-4.3976
X5.8351Y-2.2913
X5.8517Y-1.7441
X5.8595Y-2.0591
X5.8595Y-2.1378
X5.8595Y-2.2087
X5.8615Y-4.3976
X5.8698Y-3.9728
X5.8706Y-4.0201
X5.8706Y-4.0768
X5.8753Y-1.7441
X5.8832Y-1.8543
X5.8989Y-1.7444
X5.8989Y-1.7205
X5.9048Y-3.9311
X5.9068Y-1.8543
X5.9225Y-1.7205
X5.9225Y-2.0354
X5.9292Y-3.9311
X5.9304Y-1.8543
X5.9304Y-2.1929
X5.9462Y-1.7205
X5.9462Y-2.0197
X5.954Y-1.8543
X5.954Y-3.9307
X5.9698Y-1.7205
X5.9698Y-2.0039
X5.9777Y-1.8543
X5.9777Y-4.2795
X5.9796Y-3.9311
X5.9934Y-1.7205
X6.0013Y-1.8543
X6.0052Y-3.6496
X6.017Y-1.7205
X6.017Y-1.7441
X6.021Y-4.0039
X6.021Y-4.0748
X6.0249Y-1.8543
X6.0288Y-4.622
X6.0328Y-2.2323
X6.033Y-2.8967
X6.0407Y-1.7441
X6.0407Y-2.626
X6.0485Y-1.8543
X6.0564Y-2.2323
X6.0643Y-1.7441
X6.0643Y-2.3425
X6.0721Y-1.8543
X6.0761Y-3.7717
X6.0761Y-4.0984
X6.0879Y-1.7441
X6.0958Y-1.8543
X6.1076Y-4.437
X6.1092Y-4.6118
X6.1115Y-1.7441
X6.1115Y-2.0276
X6.1115Y-2.3425
X6.1115Y-4.3228
X6.1115Y-4.3622
X6.1194Y-1.8543
X6.1233Y-2.4055
X6.1259Y-2.6771
X6.1273Y-4.1811
X6.1351Y-1.7205
X6.1351Y-1.7441
X6.1351Y-2.0354
X6.1363Y-4.0571
X6.1367Y-4.0315
X6.1409Y-4.4071
X6.143Y-1.8543
X6.1588Y-1.7205
X6.1588Y-2.0433
X6.1588Y-2.1299
X6.1588Y-2.1535
X6.1588Y-2.1772
X6.1588Y-2.2008
X6.1588Y-4.3228
X6.1588Y-4.3622
X6.1666Y-1.8543
X6.1666Y-2.2913
X6.1706Y-4.4055
X6.1824Y-1.7205
X6.1824Y-2.0433
X6.1824Y-2.1299
X6.1903Y-1.8543
X6.1981Y-2.4213
X6.2021Y-4.1102
X6.206Y-1.7205
X6.206Y-2.0433
X6.206Y-2.1299
X6.206Y-3.9311
X6.2139Y-1.8543
X6.2162Y-4.2544
X6.2218Y-2.1535
X6.2218Y-4.7047
X6.2218Y-4.7441
X6.2218Y-4.8228
X6.2281Y-3.9327
X6.2296Y-1.7205
X6.2296Y-2.0433
X6.2375Y-1.8543
X6.2375Y-4.1909
X6.2454Y-2.1535
X6.2473Y-4.2165
X6.2532Y-1.7205
X6.2532Y-2.0433
X6.2559Y-2.6421
X6.2559Y-2.6771
X6.2611Y-1.8543
X6.269Y-2.1535
X6.2769Y-1.7205
X6.2769Y-2.0433
X6.2769Y-2.1299
X6.2847Y-1.8543
X6.2847Y-4.5138
X6.2847Y-4.8228
X6.2942Y-3.9665
X6.2966Y-2.6378
X6.3005Y-1.6969
X6.3005Y-1.7205
X6.3005Y-2.0433
X6.3005Y-2.1299
X6.3084Y-1.8543
X6.3084Y-3.7717
X6.3202Y-2.2323
X6.3241Y-1.6969
X6.3241Y-2.0433
X6.3241Y-2.1299
X6.3241Y-2.4213
X6.3241Y-4.8031
X6.3273Y-3.9539
X6.332Y-1.8543
X6.3399Y-3.7402
X6.3399Y-4.5276
X6.3399Y-4.5512
X6.3399Y-4.5866
X6.3477Y-1.6969
X6.3477Y-2.0433
X6.3477Y-2.1299
X6.3529Y-3.9195
X6.3556Y-1.8543
X6.3635Y-4.5276
X6.3635Y-4.5512
X6.3714Y-1.6969
X6.3714Y-1.7205
X6.3714Y-2.0433
X6.3714Y-2.1299
X6.3755Y-2.814
X6.3792Y-1.8543
X6.395Y-1.7205
X6.395Y-2.0433
X6.395Y-2.1299
X6.395Y-2.2953
X6.395Y-2.3819
X6.4029Y-1.8543
X6.4059Y-4.0171
X6.4059Y-4.0421
X6.4088Y-4.6594
X6.4107Y-2.1535
X6.4148Y-2.814
X6.4186Y-1.7205
X6.4186Y-2.0433
X6.4265Y-1.8543
X6.4344Y-2.1535
X6.4422Y-1.7205
X6.4422Y-2.0433
X6.4501Y-1.8543
X6.4501Y-3.8169
X6.4501Y-3.8425
X6.454Y-4.6417
X6.4542Y-2.8534
X6.4542Y-2.8927
X6.458Y-2.1535
X6.4658Y-1.7205
X6.4658Y-1.8701
X6.4658Y-2.0433
X6.4658Y-2.1299
X6.4757Y-3.8189
X6.4757Y-3.8425
X6.4816Y-1.7362
X6.4816Y-1.8858
X6.4828Y-3.589
X6.4895Y-2.0433
X6.4895Y-2.1299
X6.4895Y-4.3898
X6.4936Y-2.8534
X6.4936Y-2.8927
X6.4973Y-1.752
X6.4973Y-1.9016
X6.5013Y-3.8169
X6.5013Y-3.8425
X6.5092Y-4.2904
X6.5131Y-1.7677
X6.5131Y-1.9173
X6.5131Y-2.0433
X6.5131Y-2.1299
X6.521Y-2.1535
X6.5288Y-1.7835
X6.5288Y-1.9331
X6.5328Y-4.4488
X6.533Y-2.8534
X6.533Y-2.8927
X6.5367Y-2.0433
X6.5446Y-1.7992
X6.5446Y-2.1535
X6.5525Y-1.9331
X6.5603Y-1.815
X6.5603Y-2.0433
X6.5603Y-4.2874
X6.5662Y-4.7136
X6.5672Y-4.4281
X6.5682Y-2.1535
X6.5723Y-2.8534
X6.5723Y-2.8927
X6.5761Y-1.8307
X6.5761Y-1.9331
X6.584Y-2.0433
X6.584Y-2.1299
X6.5889Y-4.6132
X6.5997Y-1.8307
X6.5997Y-1.9331
X6.604Y-3.663
X6.6076Y-2.0433
X6.6076Y-2.1299
X6.6084Y-3.8386
X6.6117Y-2.8534
X6.6117Y-2.8927
X6.6135Y-3.7386
X6.6233Y-1.8307
X6.6233Y-1.9331
X6.6265Y-4.2291
X6.6312Y-2.0433
X6.6312Y-2.1299
X6.6332Y-4.1646
X6.647Y-1.8307
X6.647Y-1.9331
X6.647Y-2.1535
X6.6511Y-2.8534
X6.6511Y-2.8927
X6.6548Y-2.0433
X6.6637Y-3.9649
X6.6706Y-1.8307
X6.6706Y-1.9331
X6.6706Y-2.1535
X6.6753Y-3.885
X6.6769Y-3.8339
X6.6773Y-4.1327
X6.6784Y-2.0433
X6.6903Y-4.7894
X6.6904Y-2.8534
X6.6904Y-2.8927
X6.6942Y-1.8307
X6.6942Y-1.9331
X6.6942Y-2.1535
X6.7021Y-2.0433
X6.7021Y-2.1299
X6.7021Y-2.2953
X6.7021Y-2.374
X6.7072Y-4.6815
X6.7107Y-4.8646
X6.7178Y-1.8307
X6.7178Y-1.9331
X6.7292Y-4.6531
X6.7298Y-2.8534
X6.7298Y-2.8927
X6.7493Y-1.7165
X6.7493Y-2.3386
X6.7692Y-2.8534
X6.7692Y-2.8927
X6.7759Y-4.2707
X6.7808Y-1.8307
X6.7808Y-1.9331
X6.7808Y-2.0039
X6.7847Y-2.1575
X6.7859Y-4.7854
X6.7859Y-4.8673
X6.7966Y-1.6811
X6.7966Y-1.7598
X6.7966Y-1.9882
X6.8009Y-4.185
X6.8031Y-4.7598
X6.8044Y-1.8307
X6.8044Y-1.9331
X6.8123Y-1.9724
X6.8202Y-2.0591
X6.8202Y-2.0827
X6.8202Y-2.1063
X6.8202Y-2.1299
X6.8202Y-2.1535
X6.8202Y-2.1772
X6.8281Y-1.8307
X6.8281Y-1.9331
X6.8281Y-1.9567
X6.8359Y-2.0433
X6.8448Y-4.5305
X6.8453Y-4.5064
X6.8517Y-1.8307
X6.8517Y-1.9331
X6.8517Y-2.0276
X6.8674Y-2.0118
X6.8674Y-3.9921
X6.8689Y-4.5064
X6.8753Y-1.8307
X6.8832Y-1.9961
X6.8989Y-1.8307
X6.8989Y-1.9803
X6.9147Y-1.9646
X6.916Y-4.024
X6.9186Y-4.5866
X6.9186Y-4.6102
X6.9186Y-4.6339
X6.9186Y-4.6575
X6.9259Y-4.0621
X6.9304Y-1.9488
X6.9304Y-3.311
X6.9313Y-4.3463
X6.9351Y-4.1882
X6.9577Y-4.3894
X6.9619Y-1.6811
X6.9619Y-1.7598
X6.9698Y-1.8189
X6.9895Y-2.4252
X7.0013Y-3.2323
X7.0118Y-4.4882
X7.0249Y-3.1417
X7.0485Y-1.6969
X7.0603Y-2.311
X7.0958Y-3.5866
X7.1036Y-1.6969
X7.1091Y-2.3697
X7.1155Y-1.9646
X7.1309Y-4.1971
X7.1509Y-1.6969
X7.1509Y-3.713
X7.1536Y-3.8177
X7.158Y-3.8508
X7.1587Y-4.2285
X7.1693Y-4.3701
X7.1693Y-4.4449
X7.1709Y-1.7921
X7.178Y-4.2575
X7.1839Y-3.5799
X7.1904Y-2.2534
X7.1981Y-1.6969
X7.2029Y-1.7921
X7.2139Y-1.8465
X7.2159Y-3.9471
X7.2176Y-2.0197
X7.2283Y-4.5787
X7.2296Y-2.1772
X7.2339Y-4.3631
X7.2613Y-2.814
X7.2613Y-2.8731
X7.2677Y-4.0472
X7.2677Y-4.0866
X7.2729Y-4.3465
X7.2966Y-4.2913
X7.3071Y-4.0472
X7.3071Y-4.0866
X7.3109Y-4.4271
X7.3162Y-1.689
X7.3204Y-2.814
X7.3204Y-2.8731
X7.3714Y-1.7362
X7.3714Y-1.815
X7.3753Y-3.7598
X7.3792Y-1.9409
X7.3792Y-2.122
X7.3792Y-2.2323
X7.3794Y-2.814
X7.3794Y-2.8731
X7.3966Y-4.698
X7.3985Y-4.6181
X7.4095Y-3.3925
X7.4385Y-2.814
X7.4385Y-2.8731
X7.4466Y-3.1398
X7.4581Y-2.125
X7.4581Y-2.1644
X7.4765Y-4.1969
X7.4824Y-4.6181
X7.484Y-4.5476
X7.4843Y-4.3228
X7.4843Y-4.3622
X7.4843Y-4.4016
X7.4843Y-4.4409
X7.4975Y-2.125
X7.4975Y-2.1644
X7.5588Y-4.5437
X7.6288Y-4.5429
T5
X4.6211Y-1.8228
X4.6222Y-4.815
X4.6583Y-1.7331
X4.6583Y-1.9126
X4.6594Y-4.7252
X4.6594Y-4.9047
X4.748Y-1.6959
X4.748Y-1.9498
X4.7492Y-4.688
X4.7492Y-4.9419
X4.8378Y-1.7331
X4.8378Y-1.9126
X4.839Y-4.7252
X4.839Y-4.9047
X4.875Y-1.8228
X4.8762Y-4.815
X7.4557Y-1.8228
X7.4557Y-4.815
X7.4929Y-1.7331
X7.4929Y-1.9126
X7.4929Y-4.7252
X7.4929Y-4.9047
X7.5827Y-1.6959
X7.5827Y-1.9498
X7.5827Y-4.688
X7.5827Y-4.9419
X7.6725Y-1.7331
X7.6725Y-1.9126
X7.6725Y-4.7252
X7.6725Y-4.9047
X7.7096Y-1.8228
X7.7096Y-4.815
T6
X4.6654Y-2.5315
X4.6654Y-2.6102
X4.6654Y-2.689
X4.6654Y-2.7677
X4.6654Y-2.8465
X4.6654Y-2.9252
X4.6654Y-3.0039
X4.6654Y-3.0827
X4.6654Y-3.1614
X4.6654Y-3.2402
X4.6654Y-3.3189
X4.6654Y-3.3976
X4.6654Y-3.4764
X4.6654Y-3.5551
X4.6654Y-3.6339
X4.6654Y-3.7126
X4.6654Y-3.7913
X4.6654Y-3.8701
X4.6654Y-3.9488
X4.6654Y-4.0276
X4.6654Y-4.1063
X4.6654Y-4.185
X4.6654Y-4.2638
X4.6654Y-4.3425
X4.6654Y-4.4213
X4.7441Y-2.5315
X4.7441Y-2.6102
X4.7441Y-2.689
X4.7441Y-2.7677
X4.7441Y-2.8465
X4.7441Y-2.9252
X4.7441Y-3.0039
X4.7441Y-3.0827
X4.7441Y-3.1614
X4.7441Y-3.2402
X4.7441Y-3.3189
X4.7441Y-3.3976
X4.7441Y-3.4764
X4.7441Y-3.5551
X4.7441Y-3.6339
X4.7441Y-3.7126
X4.7441Y-3.7913
X4.7441Y-3.8701
X4.7441Y-3.9488
X4.7441Y-4.0276
X4.7441Y-4.1063
X4.7441Y-4.185
X4.7441Y-4.2638
X4.7441Y-4.3425
X4.7441Y-4.4213
X7.5827Y-2.5315
X7.5827Y-2.6102
X7.5827Y-2.689
X7.5827Y-2.7677
X7.5827Y-2.8465
X7.5827Y-2.9252
X7.5827Y-3.0039
X7.5827Y-3.0827
X7.5827Y-3.1614
X7.5827Y-3.2402
X7.5827Y-3.3189
X7.5827Y-3.3976
X7.5827Y-3.4764
X7.5827Y-3.5551
X7.5827Y-3.6339
X7.5827Y-3.7126
X7.5827Y-3.7913
X7.5827Y-3.8701
X7.5827Y-3.9488
X7.5827Y-4.0276
X7.5827Y-4.1063
X7.5827Y-4.185
X7.5827Y-4.2638
X7.5827Y-4.3425
X7.5827Y-4.4213
X7.6614Y-2.5315
X7.6614Y-2.6102
X7.6614Y-2.689
X7.6614Y-2.7677
X7.6614Y-2.8465
X7.6614Y-2.9252
X7.6614Y-3.0039
X7.6614Y-3.0827
X7.6614Y-3.1614
X7.6614Y-3.2402
X7.6614Y-3.3189
X7.6614Y-3.3976
X7.6614Y-3.4764
X7.6614Y-3.5551
X7.6614Y-3.6339
X7.6614Y-3.7126
X7.6614Y-3.7913
X7.6614Y-3.8701
X7.6614Y-3.9488
X7.6614Y-4.0276
X7.6614Y-4.1063
X7.6614Y-4.185
X7.6614Y-4.2638
X7.6614Y-4.3425
X7.6614Y-4.4213
T7
X4.9698Y-4.252
X4.9698Y-4.4173
X5.1273Y-4.4173
X5.7883Y-4.4687
X5.7883Y-4.5687
X5.8883Y-4.4671
X6.1076Y-4.7087
X6.1257Y-3.4433
X6.1273Y-3.5433
X6.2273Y-3.5433
X6.3202Y-4.7087
X7.2909Y-2.3421
X7.2909Y-2.4871
X7.4359Y-2.3421
T8
X5.1627Y-2.0197
T9
X5.0627Y-1.9197
X5.0627Y-2.1197
X5.2627Y-1.9197
X5.2627Y-2.1197
T10
X4.748Y-1.8228
X4.7492Y-4.815
X7.5827Y-1.8228
X7.5827Y-4.815
T0
M30
